<?xml version="1.0" encoding="UTF-8" standalone="no"?>
<!-- Generator: Adobe Illustrator 21.0.2, SVG Export Plug-In . SVG Version: 6.00 Build 0)  -->

<svg
   xmlns:dc="http://purl.org/dc/elements/1.1/"
   xmlns:cc="http://creativecommons.org/ns#"
   xmlns:rdf="http://www.w3.org/1999/02/22-rdf-syntax-ns#"
   xmlns:svg="http://www.w3.org/2000/svg"
   xmlns="http://www.w3.org/2000/svg"
   xmlns:sodipodi="http://sodipodi.sourceforge.net/DTD/sodipodi-0.dtd"
   xmlns:inkscape="http://www.inkscape.org/namespaces/inkscape"
   version="1.1"
   id="Layer_1"
   x="0px"
   y="0px"
   viewBox="0 0 386.18456 397.6408"
   xml:space="preserve"
   sodipodi:docname="green_ant.svg"
   inkscape:version="0.92.4 (5da689c313, 2019-01-14)"
   width="386.18454"
   height="397.64081"><metadata
   id="metadata1957"><rdf:RDF><cc:Work
       rdf:about=""><dc:format>image/svg+xml</dc:format><dc:type
         rdf:resource="http://purl.org/dc/dcmitype/StillImage" /><dc:title></dc:title></cc:Work></rdf:RDF></metadata><defs
   id="defs1955"><linearGradient
     gradientUnits="userSpaceOnUse"
     y2="1477.9301"
     x2="1307.98"
     y1="1475.95"
     x1="1307.98"
     id="paint0_linear"><stop
       id="stop1269"
       stop-color="white" /><stop
       id="stop1271"
       stop-opacity="0"
       stop-color="white"
       offset="1" /></linearGradient><linearGradient
     gradientUnits="userSpaceOnUse"
     y2="1436.9301"
     x2="1353.85"
     y1="1374.6801"
     x1="1353.85"
     id="paint1_linear"><stop
       id="stop1274"
       stop-color="white" /><stop
       id="stop1276"
       stop-opacity="0"
       stop-color="white"
       offset="1" /></linearGradient><linearGradient
     gradientUnits="userSpaceOnUse"
     y2="1366.9399"
     x2="1382.53"
     y1="1295.17"
     x1="1382.53"
     id="paint2_linear"><stop
       id="stop1279"
       stop-color="white" /><stop
       id="stop1281"
       stop-opacity="0"
       stop-color="white"
       offset="1" /></linearGradient><linearGradient
     gradientUnits="userSpaceOnUse"
     y2="1291.24"
     x2="1403.65"
     y1="1220.35"
     x1="1403.65"
     id="paint3_linear"><stop
       id="stop1284"
       stop-color="white" /><stop
       id="stop1286"
       stop-opacity="0"
       stop-color="white"
       offset="1" /></linearGradient><linearGradient
     gradientUnits="userSpaceOnUse"
     y2="1237.11"
     x2="1404.12"
     y1="1104.88"
     x1="1404.12"
     id="paint4_linear"><stop
       id="stop1289"
       stop-color="white" /><stop
       id="stop1291"
       stop-opacity="0"
       stop-color="white"
       offset="1" /></linearGradient><linearGradient
     gradientUnits="userSpaceOnUse"
     y2="1134.5699"
     x2="1410.77"
     y1="992.71802"
     x1="1410.77"
     id="paint5_linear"><stop
       id="stop1294"
       stop-color="white" /><stop
       id="stop1296"
       stop-opacity="0"
       stop-color="white"
       offset="1" /></linearGradient><linearGradient
     gradientUnits="userSpaceOnUse"
     y2="1435.25"
     x2="1306.14"
     y1="1326.42"
     x1="1306.14"
     id="paint6_linear"><stop
       id="stop1299"
       stop-color="white" /><stop
       id="stop1301"
       stop-opacity="0"
       stop-color="white"
       offset="1" /></linearGradient><linearGradient
     gradientUnits="userSpaceOnUse"
     y2="1364.75"
     x2="1327.24"
     y1="1258.64"
     x1="1327.24"
     id="paint7_linear"><stop
       id="stop1304"
       stop-color="white" /><stop
       id="stop1306"
       stop-opacity="0"
       stop-color="white"
       offset="1" /></linearGradient><linearGradient
     gradientUnits="userSpaceOnUse"
     y2="1295.17"
     x2="1359.03"
     y1="1192.46"
     x1="1359.03"
     id="paint8_linear"><stop
       id="stop1309"
       stop-color="white" /><stop
       id="stop1311"
       stop-opacity="0"
       stop-color="white"
       offset="1" /></linearGradient><linearGradient
     gradientUnits="userSpaceOnUse"
     y2="1234.38"
     x2="1369.36"
     y1="1093.8199"
     x1="1369.36"
     id="paint9_linear"><stop
       id="stop1314"
       stop-color="white" /><stop
       id="stop1316"
       stop-opacity="0"
       stop-color="white"
       offset="1" /></linearGradient><linearGradient
     gradientUnits="userSpaceOnUse"
     y2="1131.27"
     x2="1371.23"
     y1="1005.55"
     x1="1371.23"
     id="paint10_linear"><stop
       id="stop1319"
       stop-color="white" /><stop
       id="stop1321"
       stop-opacity="0"
       stop-color="white"
       offset="1" /></linearGradient><linearGradient
     gradientUnits="userSpaceOnUse"
     y2="1070.91"
     x2="1360.0699"
     y1="948"
     x1="1360.0699"
     id="paint11_linear"><stop
       id="stop1324"
       stop-color="white" /><stop
       id="stop1326"
       stop-opacity="0"
       stop-color="white"
       offset="1" /></linearGradient><linearGradient
     gradientUnits="userSpaceOnUse"
     y2="1291.9"
     x2="1383.4"
     y1="1063.64"
     x1="1383.4"
     id="paint12_linear"><stop
       id="stop1329"
       stop-color="white" /><stop
       id="stop1331"
       stop-opacity="0"
       stop-color="white"
       offset="1" /></linearGradient><linearGradient
     gradientUnits="userSpaceOnUse"
     y2="1474.15"
     x2="1333.96"
     y1="1282.66"
     x1="1333.96"
     id="paint13_linear"><stop
       id="stop1334"
       stop-color="white" /><stop
       id="stop1336"
       stop-opacity="0"
       stop-color="white"
       offset="1" /></linearGradient><linearGradient
     gradientUnits="userSpaceOnUse"
     y2="1477.9301"
     x2="1307.98"
     y1="1475.95"
     x1="1307.98"
     id="paint0_linear-2"><stop
       id="stop1269-0"
       stop-color="white" /><stop
       id="stop1271-6"
       stop-opacity="0"
       stop-color="white"
       offset="1" /></linearGradient><linearGradient
     gradientUnits="userSpaceOnUse"
     y2="1436.9301"
     x2="1353.85"
     y1="1374.6801"
     x1="1353.85"
     id="paint1_linear-5"><stop
       id="stop1274-8"
       stop-color="white" /><stop
       id="stop1276-2"
       stop-opacity="0"
       stop-color="white"
       offset="1" /></linearGradient><linearGradient
     gradientUnits="userSpaceOnUse"
     y2="1366.9399"
     x2="1382.53"
     y1="1295.17"
     x1="1382.53"
     id="paint2_linear-3"><stop
       id="stop1279-0"
       stop-color="white" /><stop
       id="stop1281-4"
       stop-opacity="0"
       stop-color="white"
       offset="1" /></linearGradient><linearGradient
     gradientUnits="userSpaceOnUse"
     y2="1291.24"
     x2="1403.65"
     y1="1220.35"
     x1="1403.65"
     id="paint3_linear-2"><stop
       id="stop1284-5"
       stop-color="white" /><stop
       id="stop1286-8"
       stop-opacity="0"
       stop-color="white"
       offset="1" /></linearGradient><linearGradient
     gradientUnits="userSpaceOnUse"
     y2="1237.11"
     x2="1404.12"
     y1="1104.88"
     x1="1404.12"
     id="paint4_linear-4"><stop
       id="stop1289-0"
       stop-color="white" /><stop
       id="stop1291-4"
       stop-opacity="0"
       stop-color="white"
       offset="1" /></linearGradient><linearGradient
     gradientUnits="userSpaceOnUse"
     y2="1134.5699"
     x2="1410.77"
     y1="992.71802"
     x1="1410.77"
     id="paint5_linear-3"><stop
       id="stop1294-6"
       stop-color="white" /><stop
       id="stop1296-4"
       stop-opacity="0"
       stop-color="white"
       offset="1" /></linearGradient><linearGradient
     gradientUnits="userSpaceOnUse"
     y2="1435.25"
     x2="1306.14"
     y1="1326.42"
     x1="1306.14"
     id="paint6_linear-3"><stop
       id="stop1299-4"
       stop-color="white" /><stop
       id="stop1301-4"
       stop-opacity="0"
       stop-color="white"
       offset="1" /></linearGradient><linearGradient
     gradientUnits="userSpaceOnUse"
     y2="1364.75"
     x2="1327.24"
     y1="1258.64"
     x1="1327.24"
     id="paint7_linear-0"><stop
       id="stop1304-8"
       stop-color="white" /><stop
       id="stop1306-3"
       stop-opacity="0"
       stop-color="white"
       offset="1" /></linearGradient><linearGradient
     gradientUnits="userSpaceOnUse"
     y2="1295.17"
     x2="1359.03"
     y1="1192.46"
     x1="1359.03"
     id="paint8_linear-3"><stop
       id="stop1309-3"
       stop-color="white" /><stop
       id="stop1311-2"
       stop-opacity="0"
       stop-color="white"
       offset="1" /></linearGradient><linearGradient
     gradientUnits="userSpaceOnUse"
     y2="1234.38"
     x2="1369.36"
     y1="1093.8199"
     x1="1369.36"
     id="paint9_linear-2"><stop
       id="stop1314-5"
       stop-color="white" /><stop
       id="stop1316-0"
       stop-opacity="0"
       stop-color="white"
       offset="1" /></linearGradient><linearGradient
     gradientUnits="userSpaceOnUse"
     y2="1131.27"
     x2="1371.23"
     y1="1005.55"
     x1="1371.23"
     id="paint10_linear-6"><stop
       id="stop1319-7"
       stop-color="white" /><stop
       id="stop1321-5"
       stop-opacity="0"
       stop-color="white"
       offset="1" /></linearGradient><linearGradient
     gradientUnits="userSpaceOnUse"
     y2="1070.91"
     x2="1360.0699"
     y1="948"
     x1="1360.0699"
     id="paint11_linear-6"><stop
       id="stop1324-8"
       stop-color="white" /><stop
       id="stop1326-5"
       stop-opacity="0"
       stop-color="white"
       offset="1" /></linearGradient><linearGradient
     gradientUnits="userSpaceOnUse"
     y2="1291.9"
     x2="1383.4"
     y1="1063.64"
     x1="1383.4"
     id="paint12_linear-6"><stop
       id="stop1329-0"
       stop-color="white" /><stop
       id="stop1331-9"
       stop-opacity="0"
       stop-color="white"
       offset="1" /></linearGradient><linearGradient
     gradientUnits="userSpaceOnUse"
     y2="1474.15"
     x2="1333.96"
     y1="1282.66"
     x1="1333.96"
     id="paint13_linear-3"><stop
       id="stop1334-8"
       stop-color="white" /><stop
       id="stop1336-2"
       stop-opacity="0"
       stop-color="white"
       offset="1" /></linearGradient></defs><sodipodi:namedview
   pagecolor="#ffffff"
   bordercolor="#666666"
   borderopacity="1"
   objecttolerance="10"
   gridtolerance="10"
   guidetolerance="10"
   inkscape:pageopacity="0"
   inkscape:pageshadow="2"
   inkscape:window-width="1920"
   inkscape:window-height="1001"
   id="namedview1953"
   showgrid="false"
   inkscape:zoom="0.5162984"
   inkscape:cx="-174.98892"
   inkscape:cy="-135.07414"
   inkscape:window-x="-9"
   inkscape:window-y="-9"
   inkscape:window-maximized="1"
   inkscape:current-layer="Layer_1" />
<style
   type="text/css"
   id="style1948">
	.st0{fill-rule:evenodd;clip-rule:evenodd;fill:#129647;}
</style>

<style
   type="text/css"
   id="style1709">
	.st0{fill-rule:evenodd;clip-rule:evenodd;fill:#FFFFFF;}
	.st1{opacity:0.7;}
	.st2{fill:#FFFFFF;}
</style><g
   id="g3523"
   transform="translate(-1048.1662,-8.7718765)"><path
     id="path1488"
     d="m 70.698789,192.03427 c 0,0 56.109381,70.7602 48.427971,103.99664 0,0 -60.957764,-49.46723 -60.266111,-106.34216 z"
     inkscape:connector-curvature="0"
     style="fill:#129647;fill-opacity:1;stroke-width:1.00082719" /><path
     id="path1490"
     d="m 129.57248,217.62749 c 0,0 65.83934,59.55459 62.65647,95.05727 0,0 -57.81003,-34.68498 -68.9753,-94.57449 z"
     inkscape:connector-curvature="0"
     style="fill:#129647;fill-opacity:1;stroke-width:1.00082719" /><path
     id="path1492"
     d="m 208.5218,243.99563 c 0,0 50.84061,53.18732 52.1974,83.96289 0,0 -66.32827,-39.92316 -67.96964,-85.08301 z"
     inkscape:connector-curvature="0"
     style="fill:#129647;fill-opacity:1;stroke-width:1.00082719" /><path
     id="path1494"
     d="m 260.98812,259.23825 102.82758,47.2078 c 0,0 -90.43099,9.7557 -121.76398,-52.73634 z"
     inkscape:connector-curvature="0"
     style="fill:#129647;fill-opacity:1;stroke-width:1.00082719" /><path
     id="path1496"
     d="m 400.48174,279.00953 c 0,0 82.51542,25.11047 89.85296,20.56288 0,0 -72.96672,25.93294 -126.65685,-28.02064 z"
     inkscape:connector-curvature="0"
     style="fill:#129647;fill-opacity:1;stroke-width:1.00509048" /><path
     id="path1498"
     d="m 70.50405,198.27361 c 0,0 76.73859,-6.61911 86.47475,-38.75324 0,0 -70.387856,-14.06758 -96.729855,30.40588 z"
     inkscape:connector-curvature="0"
     style="fill:#129647;fill-opacity:1;stroke-width:1.00082719" /><path
     id="path1500"
     d="m 130.57233,219.86783 c 0,0 78.82008,-10.54995 88.40466,-43.89725 0,0 -63.09494,-6.24805 -93.82208,39.43202 z"
     inkscape:connector-curvature="0"
     style="fill:#129647;fill-opacity:1;stroke-width:1.00082719" /><path
     id="path1502"
     d="m 200.62838,245.44987 c 0,0 64.24139,-5.19327 78.23776,-29.54553 0,0 -71.52592,-17.58856 -91.74453,18.444 z"
     inkscape:connector-curvature="0"
     style="fill:#129647;fill-opacity:1;stroke-width:1.00082719" /><path
     id="path1504"
     d="m 269.26118,251.60538 105.91643,-30.87304 c 0,0 -89.12435,-23.83944 -125.16454,33.43199 z"
     inkscape:connector-curvature="0"
     style="fill:#129647;fill-opacity:1;stroke-width:1.00082719" /><path
     id="path1506"
     d="m 378.67332,253.49649 c 0,0 59.08875,-39.46384 66.01033,-37.24657 0,0 -64.18376,-5.83661 -93.32173,51.73633 z"
     inkscape:connector-curvature="0"
     style="fill:#129647;fill-opacity:1;stroke-width:0.85529459" /><path
     id="path1508"
     d="m 441.98724,241.72602 c 0,0 99.5437,-62.61012 106.636,-87.97868 0,0 -25.94967,80.38 -103.49175,92.3076 z"
     inkscape:connector-curvature="0"
     style="fill:#129647;fill-opacity:1;stroke-width:1.00082719" /><path
     sodipodi:nodetypes="ccccc"
     id="path1510"
     d="m 192.1113,242.63247 0.68236,-3.79904 c 114.64311,37.44339 294.07808,38.87396 310.78362,12.19068 l 2.23945,2.13226 c -17.6688,28.21318 -196.22784,27.77666 -313.70543,-10.5239 z"
     inkscape:connector-curvature="0"
     style="fill:#129647;fill-opacity:1;stroke-width:1.00082719" /><path
     id="path1512"
     d="m 134.95455,222.58565 c -3.83474,-1.38778 -7.7194,-2.79366 -11.63732,-4.21157 -14.7987,-5.48808 -30.175648,-11.34203 -45.978902,-17.51881 -2.229313,-0.80676 -4.440204,-1.7514 -6.675001,-2.62037 -0.105829,-0.0504 -0.214125,-0.0896 -0.324408,-0.11709 -3.745919,-1.47609 -7.53724,-2.99267 -11.3619,-4.52127 -3.824633,-1.52866 -7.794531,-3.13395 -11.914148,-4.79341 0.733617,-1.54075 1.489936,-3.0612 2.244033,-4.57048 3.863411,1.60286 7.710183,3.19972 11.534212,4.77634 1.821697,0.65922 3.599433,1.49526 5.391136,2.21596 1.797748,0.73489 3.743027,1.53523 5.611867,2.27174 2.915689,1.21177 5.810872,2.39197 8.708313,3.56097 15.509763,6.26319 30.581008,12.17507 45.084568,17.71293 3.77649,1.36669 7.46088,2.74827 11.06762,4.1619 18.50303,6.94914 36.04528,13.21338 52.44381,18.72654 3.03516,1.01416 6.03095,2.00198 8.98737,2.96354 0.1496,0.0541 0.29113,0.10549 0.44916,0.1625 l 1.16593,2.66172 0.87749,2.00334 c -1.41412,-0.51176 -2.82824,-1.02354 -4.37115,-1.42536 -1.03979,-0.3763 -2.08789,-0.75561 -3.15265,-1.14094 -0.32439,-0.11736 -0.63218,-0.22881 -0.95659,-0.34619 -17.66472,-5.82692 -36.85418,-12.50664 -57.19344,-19.95172 z"
     inkscape:connector-curvature="0"
     style="fill:#129647;fill-opacity:1;stroke-width:1.00082719" /></g><style
   type="text/css"
   id="style1709-3">
	.st0{fill-rule:evenodd;clip-rule:evenodd;fill:#FFFFFF;}
	.st1{opacity:0.7;}
	.st2{fill:#FFFFFF;}
</style><g
   style="fill:none"
   id="g4897"
   transform="matrix(1.0788223,0,0,1.0788223,-5959.494,1065.0013)"><g
     style="fill:#129647;fill-opacity:1"
     id="g7660"
     transform="translate(2378.3828,1611.452)"><g
       transform="matrix(1.330578,0,0,1.330578,-371.7933,-1631.4408)"
       id="g1514"
       style="fill:#129647;fill-opacity:1"><g
         style="fill:#129647;fill-opacity:1"
         transform="translate(663.51824,76.304225)"
         id="g2000"><path
           sodipodi:nodetypes="ccccsccccccccccccscccccccccccccccsccccccccccscsccccccccscccsccscccsccccscccscccccccsccccccccccccccccccccccscccccscscccsscccccscccccccccc"
           inkscape:connector-curvature="0"
           d="m 1981.1682,-733.44933 c -2.7686,2.32375 -0.4125,3.51244 7.6674,3.86297 9.5104,0.41157 16.9846,3.20971 26.6653,9.98002 4.1205,2.8818 8.6597,5.58939 10.0861,6.01855 1.426,0.42929 7.2752,0.97726 12.9992,1.21814 5.7239,0.24461 12.0168,0.79995 13.986,1.24215 l 3.5807,0.80341 -0.2069,3.19978 c -0.5119,7.89211 4.5935,18.89151 10.7718,23.20352 4.5842,3.20018 7.2205,3.37605 11.1723,0.75217 l 3.4152,-2.2699 -0.1521,3.04657 c -0.2851,5.69517 0.558,8.48764 4.0903,13.5652 l 3.5056,5.04003 -3.6539,-1.38125 c -7.2621,-2.74688 -21.1452,-14.77328 -23.2024,-20.09779 -0.9844,-2.54768 -1.9322,-3.62398 -5.3668,-6.10531 -6.3795,-4.6097 -8.47,-5.54381 -9.8382,-4.39531 -1.4344,1.2043 -1.4014,1.24859 5.3242,7.48206 3.697,3.42799 5.6112,5.75021 6.7885,8.2288 3.5549,7.49536 15.6618,18.84103 24.1544,22.63629 3.8505,1.7204 10.717,2.53106 17.1311,2.02493 1.6852,-0.13369 2.118,0.25235 3.4346,3.08676 1.0192,2.19114 1.1766,3.93127 0.4872,5.37796 -0.56,1.17526 -0.7421,3.13136 -0.4044,4.34599 1.0088,3.63203 -0.3678,4.83102 -19.3671,16.9003 -3.5025,2.22818 -6.5539,4.62764 -6.8396,5.3821 -1.4018,3.72307 -2.6483,16.83499 -2.2721,23.89922 0.2977,5.5889 -0.1552,9.76257 -1.5254,14.0525 -1.9213,6.01778 -5.3103,12.4934 -7.4928,14.34704 -0.6178,0.51826 -1.9671,2.1843 -3.0045,3.6921 -2.3387,3.40703 -0.9448,5.76477 2.6681,4.51035 5.1598,-1.7913 10.9703,-11.72249 14.1789,-24.23851 0.8131,-3.17145 1.832,-6.06399 2.2645,-6.42639 1.0169,-0.85417 1.4197,-10.10469 0.7691,-17.67145 -0.2801,-3.25984 -0.3027,-6.32092 -0.05,-6.79939 0.2541,-0.47901 1.9706,-1.72606 3.8365,-2.74544 1.8553,-1.03266 5.9893,-3.55143 9.1833,-5.59996 5.5382,-3.55184 6.8043,-4.78756 13.4576,-13.12338 l 1.5867,-1.98784 0.243,3.01905 c 0.1346,1.661 0.7109,4.51179 1.2824,6.33693 0.7692,2.45718 0.6503,3.64431 -0.4558,4.59446 -2.8393,2.45597 -4.7872,8.2028 -5.7813,17.20133 -0.89,8.05535 -0.7794,9.30514 1.0144,11.44214 1.1074,1.31857 2.5469,4.24084 3.1997,6.49432 1.8284,6.31328 7.7355,19.8325 9.6738,22.14179 0.9547,1.13704 5.03,10.50673 9.0581,20.82278 4.3466,11.1279 7.9162,19.13123 8.7795,19.67934 2.0014,1.26849 3.3603,-0.1377 3.007,-3.10811 -0.2771,-2.33072 -5.3913,-15.58052 -12.3096,-31.88298 -1.6805,-3.96049 -2.9326,-7.57647 -2.7808,-8.03781 0.3566,-1.07968 -5.2782,-14.65208 -8.7105,-20.97907 -1.4574,-2.68499 -2.6511,-6.20467 -2.6551,-7.82068 -0.01,-1.61514 -0.3432,-3.73831 -0.7526,-4.72025 -1.0202,-2.44567 0.2836,-11.78745 1.8263,-13.08269 1.209,-1.01521 1.3496,-0.82328 3.8345,5.2052 1.4184,3.44164 2.9865,8.02886 3.485,10.19482 1.2353,5.36506 6.3097,12.26039 11.6506,15.83201 2.2718,1.51966 5.8617,4.82261 7.9759,7.34062 3.567,4.24897 4.5435,4.87962 13.5723,8.77124 5.786,2.49306 11.1746,4.1965 13.3003,4.20415 12.4423,0.0542 22.0646,-8.85674 23.1603,-21.41933 0.746,-8.55118 -4.5209,-25.89781 -9.2296,-30.39589 -1.435,-1.37103 -4.1854,-5.0027 -6.117,-8.06788 -4.1087,-6.52727 -9.2819,-10.93755 -14.5957,-12.44341 -4.0638,-1.15201 -8.5459,-3.72154 -7.7118,-4.42178 1.1521,-0.96734 11.854,1.80895 18.7405,4.86321 3.8026,1.68627 7.6967,3.18826 8.6572,3.33887 1.2419,0.19498 5.2004,3.98795 13.7039,13.12904 6.5771,7.07048 12.9744,13.4173 14.2151,14.10451 1.2398,0.68796 5.7457,5.40925 10.0112,10.48956 7.6918,9.16212 20.5032,21.51989 24.8019,23.92439 v 0 c 1.6233,0.90843 2.5692,0.87899 3.4514,-0.10717 1.7233,-1.92176 -0.3805,-4.62158 -9.575,-12.29169 -6.5861,-5.49409 -9.9623,-9.12661 -23.7969,-25.58459 -11.4551,-13.62707 -17.4184,-20.19643 -20.592,-22.68877 -2.4567,-1.92971 -5.0837,-4.50001 -5.8389,-5.70934 -1.4842,-2.37621 -5.0483,-3.73561 -22.0616,-8.42227 -11.0953,-3.05565 -12.5103,-3.12978 -18.0947,-0.94935 -4.2843,1.6744 -4.5055,1.64882 -7.3001,-0.83934 -3.4003,-3.02701 -8.7706,-5.64779 -10.4143,-5.08097 -0.6397,0.22163 -1.4031,0.11495 -1.6972,-0.23697 -0.6197,-0.73846 2.2063,-2.37078 9.6174,-5.55842 3.6182,-1.55594 6.1974,-3.2602 8.6168,-5.70057 1.8972,-1.91667 6.3058,-5.99868 9.7996,-9.07087 l 6.349,-5.58925 5.4097,1.3022 c 7.2738,1.75047 19.4915,2.58514 37.7525,2.58284 9.7353,0 12.2378,-0.4028 13.1991,-2.13804 1.6587,-2.99378 -1.6784,-4.04985 -12.4536,-3.9385 -5.9258,0.0607 -12.4676,0.22159 -14.5374,0.35538 -2.0693,0.13384 -6.9682,-0.42929 -10.8857,-1.24911 -3.918,-0.82019 -10.6533,-1.89343 -14.9668,-2.38755 l -7.8394,-0.89666 -14.1112,11.84711 -14.1129,11.84908 -4.4193,-0.74942 c -5.5734,-0.94292 -8.6822,-3.0279 -7.5895,-5.09141 1.479,-2.79269 2.9309,-11.11786 2.7322,-15.6649 -0.1097,-2.51491 -1.5464,-8.09356 -3.1933,-12.39522 -2.5303,-6.60918 -2.7852,-8.05845 -1.6423,-9.33961 0.7448,-0.83431 1.8894,-3.30259 2.5443,-5.48568 0.6545,-2.1825 2.6617,-7.62543 4.459,-12.09486 3.7411,-9.3024 4.0961,-11.14768 2.3324,-12.12508 -1.8841,-1.04416 -3.5291,0.81183 -5.6082,6.32776 -2.8267,7.49923 -5.9179,13.87748 -9.1851,18.95351 -3.4959,5.42962 -3.6841,7.30125 -1.3438,13.38929 2.6475,6.88576 4.3886,15.23804 4.2453,20.36731 -0.146,5.21473 -0.9158,4.91019 -2.7221,-1.06753 -2.3468,-7.76714 -10.2977,-14.8868 -17.5109,-15.68181 -1.428,-0.16055 -2.7003,-0.40735 -2.8254,-0.55692 -0.1238,-0.14904 0.9235,-1.19319 2.3341,-2.31225 3.3616,-2.67891 4.4413,-6.52921 3.1345,-11.2116 -2.0123,-7.20904 -9.0907,-13.34268 -18.678,-16.18819 l -5.2731,-1.56593 0.4938,-4.22092 c 0.2714,-2.32236 1.8788,-8.13415 3.5728,-12.91622 3.5063,-9.89866 3.906,-14.65975 1.7254,-20.57548 -2.9424,-7.98244 -5.0462,-16.97293 -4.9535,-21.17258 0.05,-2.33152 1.0108,-6.81126 2.1329,-9.95482 2.1818,-6.11003 2.2901,-7.36055 0.7963,-9.17174 -1.2085,-1.46545 -2.9633,-0.0568 -5.4365,4.44916 -4.5814,8.30034 -4.6908,17.32912 -0.3684,30.4804 1.398,4.2538 2.7517,9.1105 3.0078,10.78834 0.256,1.6791 -0.8343,7.51227 -2.4224,12.96208 -1.5883,5.4498 -3.0431,12.05701 -3.2326,14.68427 -0.2511,3.475 -0.9633,5.4632 -2.6163,7.29814 -4.659,5.17512 -7.6994,6.27763 -13.223,4.78597 -2.4914,-0.67196 -9.7733,-1.59303 -16.1811,-2.04866 l -11.6515,-0.82823 -10.183,-6.52687 c -5.6005,-3.58968 -11.658,-7.02256 -13.4603,-7.6257 -7.9502,-2.662 -15.9021,-2.34326 -19.6278,0.78396 z"
           style="fill:#129647;fill-opacity:1;stroke-width:0.85530818"
           id="path7662" /></g></g></g></g><style
   type="text/css"
   id="style1709-2">
	.st0{fill-rule:evenodd;clip-rule:evenodd;fill:#FFFFFF;}
	.st1{opacity:0.7;}
	.st2{fill:#FFFFFF;}
</style><style
   type="text/css"
   id="style1948-2">
	.st0{fill-rule:evenodd;clip-rule:evenodd;fill:#129647;}
</style><style
   type="text/css"
   id="style1709-6">
	.st0{fill-rule:evenodd;clip-rule:evenodd;fill:#FFFFFF;}
	.st1{opacity:0.7;}
	.st2{fill:#FFFFFF;}
</style></svg>