<?xml version="1.0" encoding="UTF-8" standalone="no"?>
<svg
   xmlns:dc="http://purl.org/dc/elements/1.1/"
   xmlns:cc="http://creativecommons.org/ns#"
   xmlns:rdf="http://www.w3.org/1999/02/22-rdf-syntax-ns#"
   xmlns:svg="http://www.w3.org/2000/svg"
   xmlns="http://www.w3.org/2000/svg"
   xmlns:sodipodi="http://sodipodi.sourceforge.net/DTD/sodipodi-0.dtd"
   xmlns:inkscape="http://www.inkscape.org/namespaces/inkscape"
   width="280"
   height="100"
   viewBox="0 0 280 100"
   version="1.1"
   id="svg1341"
   sodipodi:docname="logo_e_e_white_regular.svg"
   style="fill:none"
   inkscape:version="0.92.4 (5da689c313, 2019-01-14)">
  <metadata
     id="metadata1345">
    <rdf:RDF>
      <cc:Work
         rdf:about="">
        <dc:format>image/svg+xml</dc:format>
        <dc:type
           rdf:resource="http://purl.org/dc/dcmitype/StillImage" />
        <dc:title></dc:title>
      </cc:Work>
    </rdf:RDF>
  </metadata>
  <sodipodi:namedview
     pagecolor="#ffffff"
     bordercolor="#666666"
     borderopacity="1"
     objecttolerance="10"
     gridtolerance="10"
     guidetolerance="10"
     inkscape:pageopacity="0"
     inkscape:pageshadow="2"
     inkscape:window-width="1920"
     inkscape:window-height="1001"
     id="namedview1343"
     showgrid="false"
     inkscape:zoom="1.5643956"
     inkscape:cx="-140.75579"
     inkscape:cy="9.8658684"
     inkscape:window-x="-9"
     inkscape:window-y="-9"
     inkscape:window-maximized="1"
     inkscape:current-layer="g1514" />
  <rect
     width="1770"
     height="1686"
     id="rect1081"
     x="-4054.5994"
     y="-1550.5886"
     style="fill:#e5e5e5" />
  <g
     id="medium_plant_2"
     transform="translate(578.38534,-3214.922)">
    <g
       id="Vector_5">
      <mask
         fill="white"
         id="path-6-inside-1">
        <path
           inkscape:connector-curvature="0"
           id="path1090"
           d="m 1309.03,1475.95 -1.76,1.98 -0.34,-0.29 c 0.7,-0.58 1.4,-1.17 2.1,-1.69 z" />
      </mask>
      <path
         style="fill:#6c63ff"
         inkscape:connector-curvature="0"
         id="path1093"
         d="m 1309.03,1475.95 -1.76,1.98 -0.34,-0.29 c 0.7,-0.58 1.4,-1.17 2.1,-1.69 z" />
      <path
         style="fill:#ffffff"
         inkscape:connector-curvature="0"
         id="path1095"
         mask="url(#path-6-inside-1)"
         d="m 1309.03,1475.95 0.75,0.67 -1.35,-1.47 z m -1.76,1.98 -0.65,0.76 0.75,0.64 0.65,-0.73 z m -0.34,-0.29 -0.64,-0.76 -0.91,0.75 0.9,0.77 z m 1.35,-2.35 -1.76,1.98 1.5,1.33 1.76,-1.98 z m -0.36,1.89 -0.34,-0.3 -1.3,1.52 0.34,0.29 z m -0.35,1.23 c 0.71,-0.59 1.38,-1.16 2.05,-1.65 l -1.19,-1.61 c -0.73,0.54 -1.45,1.14 -2.14,1.73 z" />
      <path
         inkscape:connector-curvature="0"
         style="fill:url(#paint0_linear)"
         id="path1097"
         mask="url(#path-6-inside-1)"
         d="m 1309.03,1475.95 0.75,0.67 -1.35,-1.47 z m -1.76,1.98 -0.65,0.76 0.75,0.64 0.65,-0.73 z m -0.34,-0.29 -0.64,-0.76 -0.91,0.75 0.9,0.77 z m 1.35,-2.35 -1.76,1.98 1.5,1.33 1.76,-1.98 z m -0.36,1.89 -0.34,-0.3 -1.3,1.52 0.34,0.29 z m -0.35,1.23 c 0.71,-0.59 1.38,-1.16 2.05,-1.65 l -1.19,-1.61 c -0.73,0.54 -1.45,1.14 -2.14,1.73 z" />
    </g>
    <g
       id="Vector_6">
      <path
         style="fill:#6c63ff"
         inkscape:connector-curvature="0"
         id="path1100"
         d="m 1316.69,1436.42 c -0.88,0 -1.76,-0.03 -2.64,-0.1 l 0.24,-1.06 v 0 -0.01 l 1.33,-6.38 v 0 l 0.99,-4.72 1.09,-0.99 v 0 c 0.84,-0.78 2.1,-1.93 3.74,-3.37 0,0 0,0 0,0 l 2.71,-2.36 v 0 c 7.4,-6.43 19.33,-16.25 32.22,-24.84 12.42,-8.27 25.67,-15.35 36.64,-17.22 l -43.95,52.21 c -10.26,5.48 -21.23,9.03 -32.36,8.84 v 0 z" />
      <path
         style="stroke:#ffffff"
         inkscape:connector-curvature="0"
         id="path1102"
         d="m 1316.69,1436.42 c -0.88,0 -1.76,-0.03 -2.64,-0.1 l 0.24,-1.06 v 0 -0.01 l 1.33,-6.38 v 0 l 0.99,-4.72 1.09,-0.99 v 0 c 0.84,-0.78 2.1,-1.93 3.74,-3.37 0,0 0,0 0,0 l 2.71,-2.36 v 0 c 7.4,-6.43 19.33,-16.25 32.22,-24.84 12.42,-8.27 25.67,-15.35 36.64,-17.22 l -43.95,52.21 c -10.26,5.48 -21.23,9.03 -32.36,8.84 v 0 z" />
      <path
         inkscape:connector-curvature="0"
         style="stroke:url(#paint1_linear)"
         id="path1104"
         d="m 1316.69,1436.42 c -0.88,0 -1.76,-0.03 -2.64,-0.1 l 0.24,-1.06 v 0 -0.01 l 1.33,-6.38 v 0 l 0.99,-4.72 1.09,-0.99 v 0 c 0.84,-0.78 2.1,-1.93 3.74,-3.37 0,0 0,0 0,0 l 2.71,-2.36 v 0 c 7.4,-6.43 19.33,-16.25 32.22,-24.84 12.42,-8.27 25.67,-15.35 36.64,-17.22 l -43.95,52.21 c -10.26,5.48 -21.23,9.03 -32.36,8.84 v 0 z" />
    </g>
    <g
       id="Vector_7">
      <path
         style="fill:#6c63ff"
         inkscape:connector-curvature="0"
         id="path1107"
         d="m 1341.62,1360.07 0.05,-0.07 c 0.1,-0.13 0.25,-0.33 0.45,-0.58 0.4,-0.51 0.99,-1.25 1.75,-2.2 1.52,-1.9 3.72,-4.6 6.46,-7.83 5.47,-6.46 13.07,-15.01 21.59,-23.38 8.51,-8.38 17.92,-16.58 27.01,-22.34 8.83,-5.59 17.26,-8.81 24.24,-7.82 -0.02,0.03 -0.03,0.06 -0.05,0.09 -0.25,0.45 -0.62,1.12 -1.11,1.98 -0.98,1.71 -2.44,4.17 -4.36,7.16 -3.82,5.96 -9.44,14.01 -16.62,22.35 -14.28,16.55 -34.68,34.17 -59.41,38.91 z" />
      <path
         style="stroke:#ffffff"
         inkscape:connector-curvature="0"
         id="path1109"
         d="m 1341.62,1360.07 0.05,-0.07 c 0.1,-0.13 0.25,-0.33 0.45,-0.58 0.4,-0.51 0.99,-1.25 1.75,-2.2 1.52,-1.9 3.72,-4.6 6.46,-7.83 5.47,-6.46 13.07,-15.01 21.59,-23.38 8.51,-8.38 17.92,-16.58 27.01,-22.34 8.83,-5.59 17.26,-8.81 24.24,-7.82 -0.02,0.03 -0.03,0.06 -0.05,0.09 -0.25,0.45 -0.62,1.12 -1.11,1.98 -0.98,1.71 -2.44,4.17 -4.36,7.16 -3.82,5.96 -9.44,14.01 -16.62,22.35 -14.28,16.55 -34.68,34.17 -59.41,38.91 z" />
      <path
         inkscape:connector-curvature="0"
         style="stroke:url(#paint2_linear)"
         id="path1111"
         d="m 1341.62,1360.07 0.05,-0.07 c 0.1,-0.13 0.25,-0.33 0.45,-0.58 0.4,-0.51 0.99,-1.25 1.75,-2.2 1.52,-1.9 3.72,-4.6 6.46,-7.83 5.47,-6.46 13.07,-15.01 21.59,-23.38 8.51,-8.38 17.92,-16.58 27.01,-22.34 8.83,-5.59 17.26,-8.81 24.24,-7.82 -0.02,0.03 -0.03,0.06 -0.05,0.09 -0.25,0.45 -0.62,1.12 -1.11,1.98 -0.98,1.71 -2.44,4.17 -4.36,7.16 -3.82,5.96 -9.44,14.01 -16.62,22.35 -14.28,16.55 -34.68,34.17 -59.41,38.91 z" />
    </g>
    <g
       id="Vector_8">
      <path
         style="fill:#6c63ff"
         inkscape:connector-curvature="0"
         id="path1114"
         d="m 1368.62,1273.99 0.03,-0.04 c 0.09,-0.1 0.22,-0.25 0.4,-0.44 0.35,-0.39 0.87,-0.97 1.54,-1.7 1.34,-1.46 3.29,-3.55 5.71,-6.06 4.83,-5.02 11.55,-11.7 19.06,-18.38 7.51,-6.68 15.8,-13.34 23.81,-18.32 7.67,-4.77 15,-7.95 21.09,-8.19 -0.01,0.02 -0.02,0.04 -0.03,0.05 -0.28,0.53 -0.7,1.29 -1.24,2.27 -1.09,1.94 -2.7,4.73 -4.74,8.07 -4.08,6.68 -9.91,15.58 -16.91,24.45 -7,8.88 -15.16,17.72 -23.9,24.31 -8.57,6.45 -17.64,10.7 -26.69,10.73 z" />
      <path
         style="stroke:#ffffff"
         inkscape:connector-curvature="0"
         id="path1116"
         d="m 1368.62,1273.99 0.03,-0.04 c 0.09,-0.1 0.22,-0.25 0.4,-0.44 0.35,-0.39 0.87,-0.97 1.54,-1.7 1.34,-1.46 3.29,-3.55 5.71,-6.06 4.83,-5.02 11.55,-11.7 19.06,-18.38 7.51,-6.68 15.8,-13.34 23.81,-18.32 7.67,-4.77 15,-7.95 21.09,-8.19 -0.01,0.02 -0.02,0.04 -0.03,0.05 -0.28,0.53 -0.7,1.29 -1.24,2.27 -1.09,1.94 -2.7,4.73 -4.74,8.07 -4.08,6.68 -9.91,15.58 -16.91,24.45 -7,8.88 -15.16,17.72 -23.9,24.31 -8.57,6.45 -17.64,10.7 -26.69,10.73 z" />
      <path
         inkscape:connector-curvature="0"
         style="stroke:url(#paint3_linear)"
         id="path1118"
         d="m 1368.62,1273.99 0.03,-0.04 c 0.09,-0.1 0.22,-0.25 0.4,-0.44 0.35,-0.39 0.87,-0.97 1.54,-1.7 1.34,-1.46 3.29,-3.55 5.71,-6.06 4.83,-5.02 11.55,-11.7 19.06,-18.38 7.51,-6.68 15.8,-13.34 23.81,-18.32 7.67,-4.77 15,-7.95 21.09,-8.19 -0.01,0.02 -0.02,0.04 -0.03,0.05 -0.28,0.53 -0.7,1.29 -1.24,2.27 -1.09,1.94 -2.7,4.73 -4.74,8.07 -4.08,6.68 -9.91,15.58 -16.91,24.45 -7,8.88 -15.16,17.72 -23.9,24.31 -8.57,6.45 -17.64,10.7 -26.69,10.73 z" />
    </g>
    <g
       id="Vector_9">
      <path
         style="fill:#6c63ff"
         inkscape:connector-curvature="0"
         id="path1121"
         d="m 1379.16,1236.04 5.46,-19.46 44.79,-109.2 c 0,0.55 -0.01,1.18 -0.02,1.88 -0.04,2.82 -0.16,6.87 -0.48,11.83 -0.62,9.93 -2.02,23.49 -5.09,38.03 -6.07,28.71 -18.66,61.09 -44.66,76.92 z" />
      <path
         style="stroke:#ffffff"
         inkscape:connector-curvature="0"
         id="path1123"
         d="m 1379.16,1236.04 5.46,-19.46 44.79,-109.2 c 0,0.55 -0.01,1.18 -0.02,1.88 -0.04,2.82 -0.16,6.87 -0.48,11.83 -0.62,9.93 -2.02,23.49 -5.09,38.03 -6.07,28.71 -18.66,61.09 -44.66,76.92 z" />
      <path
         inkscape:connector-curvature="0"
         style="stroke:url(#paint4_linear)"
         id="path1125"
         d="m 1379.16,1236.04 5.46,-19.46 44.79,-109.2 c 0,0.55 -0.01,1.18 -0.02,1.88 -0.04,2.82 -0.16,6.87 -0.48,11.83 -0.62,9.93 -2.02,23.49 -5.09,38.03 -6.07,28.71 -18.66,61.09 -44.66,76.92 z" />
    </g>
    <g
       id="Vector_10">
      <path
         style="fill:#6c63ff"
         inkscape:connector-curvature="0"
         id="path1128"
         d="m 1407.22,999.179 c -0.01,-0.122 -0.02,-0.243 -0.03,-0.362 0.68,1.953 1.48,4.353 2.32,7.153 2.51,8.24 5.47,19.9 7.32,33.58 3.64,26.85 2.97,61.41 -13.9,93.03 l 0.3,-39.13 v 0 -0.05 l 0.02,-0.2 c 0.01,-0.18 0.03,-0.44 0.06,-0.78 0.06,-0.69 0.13,-1.69 0.23,-2.97 0.2,-2.57 0.48,-6.23 0.8,-10.66 0.63,-8.85 1.43,-20.73 2.07,-32.85 0.64,-12.12 1.14,-24.48 1.16,-34.29 0.02,-4.91 -0.09,-9.18 -0.35,-12.471 z" />
      <path
         style="stroke:#ffffff"
         inkscape:connector-curvature="0"
         id="path1130"
         d="m 1407.22,999.179 c -0.01,-0.122 -0.02,-0.243 -0.03,-0.362 0.68,1.953 1.48,4.353 2.32,7.153 2.51,8.24 5.47,19.9 7.32,33.58 3.64,26.85 2.97,61.41 -13.9,93.03 l 0.3,-39.13 v 0 -0.05 l 0.02,-0.2 c 0.01,-0.18 0.03,-0.44 0.06,-0.78 0.06,-0.69 0.13,-1.69 0.23,-2.97 0.2,-2.57 0.48,-6.23 0.8,-10.66 0.63,-8.85 1.43,-20.73 2.07,-32.85 0.64,-12.12 1.14,-24.48 1.16,-34.29 0.02,-4.91 -0.09,-9.18 -0.35,-12.471 z" />
      <path
         inkscape:connector-curvature="0"
         style="stroke:url(#paint5_linear)"
         id="path1132"
         d="m 1407.22,999.179 c -0.01,-0.122 -0.02,-0.243 -0.03,-0.362 0.68,1.953 1.48,4.353 2.32,7.153 2.51,8.24 5.47,19.9 7.32,33.58 3.64,26.85 2.97,61.41 -13.9,93.03 l 0.3,-39.13 v 0 -0.05 l 0.02,-0.2 c 0.01,-0.18 0.03,-0.44 0.06,-0.78 0.06,-0.69 0.13,-1.69 0.23,-2.97 0.2,-2.57 0.48,-6.23 0.8,-10.66 0.63,-8.85 1.43,-20.73 2.07,-32.85 0.64,-12.12 1.14,-24.48 1.16,-34.29 0.02,-4.91 -0.09,-9.18 -0.35,-12.471 z" />
    </g>
    <g
       id="Vector_11">
      <path
         style="fill:#6c63ff"
         inkscape:connector-curvature="0"
         id="path1135"
         d="m 1313.65,1434.5 c -17.11,-15.67 -21.79,-42.43 -22.13,-65.49 -0.17,-11.61 0.76,-22.23 1.72,-29.96 0.49,-3.86 0.99,-6.99 1.36,-9.16 0.19,-1.09 0.34,-1.93 0.45,-2.5 0.02,-0.08 0.03,-0.16 0.05,-0.23 6.06,3.22 10.74,10.59 14.33,20.04 3.69,9.72 6.19,21.54 7.87,32.98 1.69,11.44 2.56,22.49 3.01,30.69 0.22,4.09 0.34,7.47 0.41,9.83 0.03,1.18 0.05,2.1 0.06,2.73 0,0.31 0,0.55 0.01,0.71 v 0.09 z" />
      <path
         style="stroke:#ffffff"
         inkscape:connector-curvature="0"
         id="path1137"
         d="m 1313.65,1434.5 c -17.11,-15.67 -21.79,-42.43 -22.13,-65.49 -0.17,-11.61 0.76,-22.23 1.72,-29.96 0.49,-3.86 0.99,-6.99 1.36,-9.16 0.19,-1.09 0.34,-1.93 0.45,-2.5 0.02,-0.08 0.03,-0.16 0.05,-0.23 6.06,3.22 10.74,10.59 14.33,20.04 3.69,9.72 6.19,21.54 7.87,32.98 1.69,11.44 2.56,22.49 3.01,30.69 0.22,4.09 0.34,7.47 0.41,9.83 0.03,1.18 0.05,2.1 0.06,2.73 0,0.31 0,0.55 0.01,0.71 v 0.09 z" />
      <path
         inkscape:connector-curvature="0"
         style="stroke:url(#paint6_linear)"
         id="path1139"
         d="m 1313.65,1434.5 c -17.11,-15.67 -21.79,-42.43 -22.13,-65.49 -0.17,-11.61 0.76,-22.23 1.72,-29.96 0.49,-3.86 0.99,-6.99 1.36,-9.16 0.19,-1.09 0.34,-1.93 0.45,-2.5 0.02,-0.08 0.03,-0.16 0.05,-0.23 6.06,3.22 10.74,10.59 14.33,20.04 3.69,9.72 6.19,21.54 7.87,32.98 1.69,11.44 2.56,22.49 3.01,30.69 0.22,4.09 0.34,7.47 0.41,9.83 0.03,1.18 0.05,2.1 0.06,2.73 0,0.31 0,0.55 0.01,0.71 v 0.09 z" />
    </g>
    <g
       id="Vector_12">
      <path
         style="fill:#6c63ff"
         inkscape:connector-curvature="0"
         id="path1142"
         d="m 1339.01,1363.97 c -17.51,-18.11 -24.07,-44.26 -26.22,-66.01 -1.08,-10.96 -1.05,-20.78 -0.74,-27.86 0.15,-3.53 0.37,-6.39 0.56,-8.36 0.09,-0.98 0.17,-1.74 0.23,-2.26 0,-0.03 0.01,-0.06 0.01,-0.09 6.28,3.2 11.32,10.69 15.32,20.35 4.12,9.94 7.1,22.06 9.25,33.82 2.14,11.75 3.44,23.12 4.2,31.55 0.38,4.21 0.63,7.69 0.78,10.12 0.08,1.21 0.13,2.16 0.17,2.81 0.01,0.32 0.02,0.57 0.03,0.73 l 0.01,0.08 z" />
      <path
         style="stroke:#ffffff"
         inkscape:connector-curvature="0"
         id="path1144"
         d="m 1339.01,1363.97 c -17.51,-18.11 -24.07,-44.26 -26.22,-66.01 -1.08,-10.96 -1.05,-20.78 -0.74,-27.86 0.15,-3.53 0.37,-6.39 0.56,-8.36 0.09,-0.98 0.17,-1.74 0.23,-2.26 0,-0.03 0.01,-0.06 0.01,-0.09 6.28,3.2 11.32,10.69 15.32,20.35 4.12,9.94 7.1,22.06 9.25,33.82 2.14,11.75 3.44,23.12 4.2,31.55 0.38,4.21 0.63,7.69 0.78,10.12 0.08,1.21 0.13,2.16 0.17,2.81 0.01,0.32 0.02,0.57 0.03,0.73 l 0.01,0.08 z" />
      <path
         inkscape:connector-curvature="0"
         style="stroke:url(#paint7_linear)"
         id="path1146"
         d="m 1339.01,1363.97 c -17.51,-18.11 -24.07,-44.26 -26.22,-66.01 -1.08,-10.96 -1.05,-20.78 -0.74,-27.86 0.15,-3.53 0.37,-6.39 0.56,-8.36 0.09,-0.98 0.17,-1.74 0.23,-2.26 0,-0.03 0.01,-0.06 0.01,-0.09 6.28,3.2 11.32,10.69 15.32,20.35 4.12,9.94 7.1,22.06 9.25,33.82 2.14,11.75 3.44,23.12 4.2,31.55 0.38,4.21 0.63,7.69 0.78,10.12 0.08,1.21 0.13,2.16 0.17,2.81 0.01,0.32 0.02,0.57 0.03,0.73 l 0.01,0.08 z" />
    </g>
    <g
       id="Vector_13">
      <path
         style="fill:#6c63ff"
         inkscape:connector-curvature="0"
         id="path1149"
         d="m 1361.71,1294.43 c -6.76,-6 -10.76,-15.17 -12.92,-25.68 -2.21,-10.71 -2.49,-22.74 -1.88,-34.03 0.61,-11.3 2.12,-21.83 3.47,-29.55 0.67,-3.85 1.31,-7 1.78,-9.19 0.23,-1.09 0.42,-1.94 0.55,-2.52 0.01,-0.02 0.01,-0.04 0.02,-0.06 4.41,4.22 7.82,11.46 10.42,20.11 2.72,9.03 4.55,19.51 5.78,29.49 1.23,9.97 1.85,19.41 2.17,26.37 0.15,3.47 0.24,6.33 0.28,8.31 0.02,0.99 0.03,1.77 0.04,2.29 0,0.27 0,0.47 0,0.6 v 0.05 z" />
      <path
         style="stroke:#ffffff"
         inkscape:connector-curvature="0"
         id="path1151"
         d="m 1361.71,1294.43 c -6.76,-6 -10.76,-15.17 -12.92,-25.68 -2.21,-10.71 -2.49,-22.74 -1.88,-34.03 0.61,-11.3 2.12,-21.83 3.47,-29.55 0.67,-3.85 1.31,-7 1.78,-9.19 0.23,-1.09 0.42,-1.94 0.55,-2.52 0.01,-0.02 0.01,-0.04 0.02,-0.06 4.41,4.22 7.82,11.46 10.42,20.11 2.72,9.03 4.55,19.51 5.78,29.49 1.23,9.97 1.85,19.41 2.17,26.37 0.15,3.47 0.24,6.33 0.28,8.31 0.02,0.99 0.03,1.77 0.04,2.29 0,0.27 0,0.47 0,0.6 v 0.05 z" />
      <path
         inkscape:connector-curvature="0"
         style="stroke:url(#paint8_linear)"
         id="path1153"
         d="m 1361.71,1294.43 c -6.76,-6 -10.76,-15.17 -12.92,-25.68 -2.21,-10.71 -2.49,-22.74 -1.88,-34.03 0.61,-11.3 2.12,-21.83 3.47,-29.55 0.67,-3.85 1.31,-7 1.78,-9.19 0.23,-1.09 0.42,-1.94 0.55,-2.52 0.01,-0.02 0.01,-0.04 0.02,-0.06 4.41,4.22 7.82,11.46 10.42,20.11 2.72,9.03 4.55,19.51 5.78,29.49 1.23,9.97 1.85,19.41 2.17,26.37 0.15,3.47 0.24,6.33 0.28,8.31 0.02,0.99 0.03,1.77 0.04,2.29 0,0.27 0,0.47 0,0.6 v 0.05 z" />
    </g>
    <g
       id="Vector_14">
      <path
         style="fill:#6c63ff"
         inkscape:connector-curvature="0"
         id="path1156"
         d="m 1382.22,1233.15 c -21.65,-21.41 -26.42,-55.82 -25.7,-85.16 0.36,-14.85 2.13,-28.37 3.81,-38.17 0.85,-4.9 1.66,-8.87 2.27,-11.62 0.15,-0.69 0.29,-1.3 0.42,-1.83 l 18.36,116.57 z" />
      <path
         style="stroke:#ffffff"
         inkscape:connector-curvature="0"
         id="path1158"
         d="m 1382.22,1233.15 c -21.65,-21.41 -26.42,-55.82 -25.7,-85.16 0.36,-14.85 2.13,-28.37 3.81,-38.17 0.85,-4.9 1.66,-8.87 2.27,-11.62 0.15,-0.69 0.29,-1.3 0.42,-1.83 l 18.36,116.57 z" />
      <path
         inkscape:connector-curvature="0"
         style="stroke:url(#paint9_linear)"
         id="path1160"
         d="m 1382.22,1233.15 c -21.65,-21.41 -26.42,-55.82 -25.7,-85.16 0.36,-14.85 2.13,-28.37 3.81,-38.17 0.85,-4.9 1.66,-8.87 2.27,-11.62 0.15,-0.69 0.29,-1.3 0.42,-1.83 l 18.36,116.57 z" />
    </g>
    <g
       id="Vector_15">
      <path
         style="fill:#6c63ff"
         inkscape:connector-curvature="0"
         id="path1163"
         d="m 1402.78,1129.72 c -29.17,-20.82 -45.13,-51.48 -53.81,-77.15 -4.42,-13.07 -6.95,-24.84 -8.37,-33.34 -0.49,-2.88 -0.84,-5.39 -1.1,-7.45 0.04,0.12 0.09,0.23 0.13,0.35 1.23,3.06 3.04,6.94 5.23,11.32 4.39,8.78 10.32,19.63 16.28,30.2 5.97,10.57 11.96,20.86 16.46,28.5 2.25,3.83 4.13,6.99 5.45,9.2 0.66,1.1 1.17,1.96 1.53,2.55 0.17,0.3 0.31,0.52 0.4,0.67 l 0.1,0.18 0.03,0.04 v 0 z" />
      <path
         style="stroke:#ffffff"
         inkscape:connector-curvature="0"
         id="path1165"
         d="m 1402.78,1129.72 c -29.17,-20.82 -45.13,-51.48 -53.81,-77.15 -4.42,-13.07 -6.95,-24.84 -8.37,-33.34 -0.49,-2.88 -0.84,-5.39 -1.1,-7.45 0.04,0.12 0.09,0.23 0.13,0.35 1.23,3.06 3.04,6.94 5.23,11.32 4.39,8.78 10.32,19.63 16.28,30.2 5.97,10.57 11.96,20.86 16.46,28.5 2.25,3.83 4.13,6.99 5.45,9.2 0.66,1.1 1.17,1.96 1.53,2.55 0.17,0.3 0.31,0.52 0.4,0.67 l 0.1,0.18 0.03,0.04 v 0 z" />
      <path
         inkscape:connector-curvature="0"
         style="stroke:url(#paint10_linear)"
         id="path1167"
         d="m 1402.78,1129.72 c -29.17,-20.82 -45.13,-51.48 -53.81,-77.15 -4.42,-13.07 -6.95,-24.84 -8.37,-33.34 -0.49,-2.88 -0.84,-5.39 -1.1,-7.45 0.04,0.12 0.09,0.23 0.13,0.35 1.23,3.06 3.04,6.94 5.23,11.32 4.39,8.78 10.32,19.63 16.28,30.2 5.97,10.57 11.96,20.86 16.46,28.5 2.25,3.83 4.13,6.99 5.45,9.2 0.66,1.1 1.17,1.96 1.53,2.55 0.17,0.3 0.31,0.52 0.4,0.67 l 0.1,0.18 0.03,0.04 v 0 z" />
    </g>
    <g
       id="Vector_16">
      <path
         style="fill:#6c63ff"
         inkscape:connector-curvature="0"
         id="path1170"
         d="m 1334.29,955.612 c -0.92,-1.133 -1.81,-2.175 -2.69,-3.114 1.06,0.709 2.23,1.515 3.49,2.421 6.14,4.432 14.38,11.243 22.78,20.753 16.75,18.981 34.12,48.718 36.6,91.778 l -3.07,2.63 c -0.07,-0.18 -0.15,-0.39 -0.25,-0.63 -0.34,-0.84 -0.84,-2.07 -1.48,-3.63 -1.29,-3.13 -3.14,-7.61 -5.44,-13.01 -4.58,-10.81 -10.91,-25.32 -17.89,-40.11 -6.97,-14.797 -14.59,-29.891 -21.76,-41.866 -3.58,-5.987 -7.06,-11.206 -10.29,-15.222 z" />
      <path
         style="stroke:#ffffff"
         inkscape:connector-curvature="0"
         id="path1172"
         d="m 1334.29,955.612 c -0.92,-1.133 -1.81,-2.175 -2.69,-3.114 1.06,0.709 2.23,1.515 3.49,2.421 6.14,4.432 14.38,11.243 22.78,20.753 16.75,18.981 34.12,48.718 36.6,91.778 l -3.07,2.63 c -0.07,-0.18 -0.15,-0.39 -0.25,-0.63 -0.34,-0.84 -0.84,-2.07 -1.48,-3.63 -1.29,-3.13 -3.14,-7.61 -5.44,-13.01 -4.58,-10.81 -10.91,-25.32 -17.89,-40.11 -6.97,-14.797 -14.59,-29.891 -21.76,-41.866 -3.58,-5.987 -7.06,-11.206 -10.29,-15.222 z" />
      <path
         inkscape:connector-curvature="0"
         style="stroke:url(#paint11_linear)"
         id="path1174"
         d="m 1334.29,955.612 c -0.92,-1.133 -1.81,-2.175 -2.69,-3.114 1.06,0.709 2.23,1.515 3.49,2.421 6.14,4.432 14.38,11.243 22.78,20.753 16.75,18.981 34.12,48.718 36.6,91.778 l -3.07,2.63 c -0.07,-0.18 -0.15,-0.39 -0.25,-0.63 -0.34,-0.84 -0.84,-2.07 -1.48,-3.63 -1.29,-3.13 -3.14,-7.61 -5.44,-13.01 -4.58,-10.81 -10.91,-25.32 -17.89,-40.11 -6.97,-14.797 -14.59,-29.891 -21.76,-41.866 -3.58,-5.987 -7.06,-11.206 -10.29,-15.222 z" />
    </g>
    <g
       id="Vector_17">
      <path
         style="fill:#444053"
         inkscape:connector-curvature="0"
         id="path1177"
         d="m 1401.58,1137.54 c -4.37,38.26 -16.4,89.86 -35.97,153.74 l -2.14,-0.65 c 19.1,-62.38 31.05,-113.52 35.61,-151.57 2.29,-19.07 2.72,-34.88 1.26,-47.18 -1.43,-12.01 -4.67,-20.75 -9.84,-25.9 l 1.56,-1.63 c 5.24,5.2 8.7,13.84 10.32,25.89 1.66,12.31 1.4,28.12 -0.8,47.3 z" />
      <path
         style="stroke:#ffffff"
         inkscape:connector-curvature="0"
         id="path1179"
         d="m 1401.58,1137.54 c -4.37,38.26 -16.4,89.86 -35.97,153.74 l -2.14,-0.65 c 19.1,-62.38 31.05,-113.52 35.61,-151.57 2.29,-19.07 2.72,-34.88 1.26,-47.18 -1.43,-12.01 -4.67,-20.75 -9.84,-25.9 l 1.56,-1.63 c 5.24,5.2 8.7,13.84 10.32,25.89 1.66,12.31 1.4,28.12 -0.8,47.3 z" />
      <path
         inkscape:connector-curvature="0"
         style="stroke:url(#paint12_linear)"
         id="path1181"
         d="m 1401.58,1137.54 c -4.37,38.26 -16.4,89.86 -35.97,153.74 l -2.14,-0.65 c 19.1,-62.38 31.05,-113.52 35.61,-151.57 2.29,-19.07 2.72,-34.88 1.26,-47.18 -1.43,-12.01 -4.67,-20.75 -9.84,-25.9 l 1.56,-1.63 c 5.24,5.2 8.7,13.84 10.32,25.89 1.66,12.31 1.4,28.12 -0.8,47.3 z" />
    </g>
    <g
       id="Vector_18">
      <path
         style="fill:#444053"
         inkscape:connector-curvature="0"
         id="path1184"
         d="m 1341.39,1366.86 c -5.5,16.12 -11.37,32.85 -17.5,50.05 -0.85,2.42 -1.73,4.87 -2.6,7.26 l -0.13,0.34 c -0.32,0.88 -0.64,1.76 -0.96,2.64 -1.16,3.23 -2.33,6.47 -3.52,9.72 -4.4,12.09 -8.92,24.35 -13.59,36.79 l -0.41,-0.34 m 38.71,-106.46 c 1.46,-4.28 2.9,-8.52 4.31,-12.71 7.45,-22.16 14.22,-43.05 20.21,-62.28 m -24.52,74.99 -0.47,-0.16 m 0.47,0.16 -0.47,-0.16 c 0,0 0,0 0,0 m 24.99,-74.83 c 0.1,-0.34 0.21,-0.68 0.33,-1.01 m -0.33,1.01 -0.47,-0.15 c 0,0 -0.01,0 -0.01,0.01 m 0.48,0.14 -0.48,-0.14 c 0,0 0,0 0,0 m 0.81,-0.87 c 0.13,-0.45 0.27,-0.89 0.41,-1.33 0.22,-0.71 0.43,-1.41 0.64,-2.11 0.44,-1.38 0.87,-2.73 1.29,-4.12 l -0.61,0.28 m -1.73,7.28 -0.47,-0.16 c 0,0 -0.01,0 -0.01,0.01 m 0.48,0.15 -0.48,-0.14 c 0,-0.01 0,-0.01 0,-0.01 m 2.21,-7.13 c 0.07,-0.22 0.13,-0.43 0.2,-0.64 l -1.17,0.53 m 0.97,0.11 -0.75,0.34 m 0.75,-0.34 c -0.38,1.24 -0.76,2.45 -1.15,3.69 h -0.01 c -0.21,0.71 -0.42,1.4 -0.64,2.11 -0.13,0.44 -0.27,0.88 -0.41,1.33 m 1.24,-7.24 -2.27,1.15 m 2.27,-1.15 0.21,0.46 0.01,-0.01 m -0.22,-0.45 0.23,0.45 h -0.01 m -2.49,0.7 c -0.08,0.3 -0.18,0.59 -0.28,0.88 m 0.28,-0.88 0.22,0.45 0.2,-0.1 m -0.42,-0.35 0.48,0.14 c -0.02,0.07 -0.04,0.14 -0.06,0.21 m -0.7,0.53 c -0.63,2.09 -1.28,4.17 -1.95,6.3 -0.32,1.03 -0.64,2.08 -0.97,3.14 -5.6,17.87 -11.94,36.97 -18.89,57.13 -1.36,3.91 -2.76,7.97 -4.16,12.03 -5.54,15.84 -11.41,32.2 -17.6,49.07 -0.55,1.51 -1.1,3 -1.66,4.5 -0.61,1.64 -1.23,3.29 -1.85,4.99 -0.53,1.46 -1.07,2.91 -1.62,4.38 -0.2,0.54 -0.4,1.08 -0.6,1.63 l -2.19,5.91 c -4.47,11.98 -9.08,24.14 -13.81,36.5 m 65.3,-185.58 0.48,0.16 v -0.01 c 0,0 0,0 0,0 m -0.48,-0.15 0.48,0.15 c 0,0 0,0 0,0 m -65.78,185.43 3.35,2.74 c 0.06,-0.17 0.12,-0.33 0.18,-0.5 m -3.53,-2.24 0.47,0.18 c 0.04,-0.11 0.09,-0.23 0.13,-0.34 m -0.6,0.16 0.32,-0.39 0.28,0.23 m 2.93,2.4 c 4.65,-12.38 9.15,-24.58 13.53,-36.62 v 0 c 1.19,-3.25 2.36,-6.49 3.52,-9.72 0.32,-0.88 0.64,-1.76 0.96,-2.64 v -0.01 l 0.13,-0.33 0.47,0.17 -0.47,-0.18 v 0 c 0.87,-2.38 1.75,-4.83 2.59,-7.25 v 0 c 6.14,-17.2 12,-33.93 17.51,-50.04 m -38.24,106.62 -2.93,-2.4 m 0,0 c 4.68,-12.24 9.24,-24.29 13.67,-36.16 h 0.01 l 2.19,-5.92 c 0.2,-0.54 0.4,-1.09 0.6,-1.63 0.55,-1.46 1.09,-2.92 1.62,-4.38 v 0 c 0.63,-1.71 1.24,-3.35 1.84,-4.98 0.56,-1.5 1.11,-2.99 1.67,-4.51 m 0,0 c 6.19,-16.87 12.06,-33.23 17.61,-49.07 v -0.01 c 1.39,-4.06 2.79,-8.12 4.15,-12.03 v 0 c 6.96,-20.16 13.29,-39.27 18.9,-57.14 v 0 c 0.32,-1.06 0.65,-2.1 0.97,-3.14 0.66,-2.12 1.31,-4.21 1.95,-6.3 m -43.58,127.69 -0.46,-0.16 0.46,0.17 c 0,0 0,-0.01 0,-0.01 z m 43.58,-127.69 c 0.07,-0.22 0.15,-0.45 0.22,-0.68 m 0,0 2.07,-1.05 m -1.46,6.79 c -0.11,0.32 -0.23,0.67 -0.33,1.02 m 0,0 c -5.99,19.22 -12.76,40.11 -20.21,62.26 v 0 c -1.41,4.19 -2.84,8.42 -4.3,12.71" />
      <path
         style="stroke:#ffffff"
         inkscape:connector-curvature="0"
         id="path1186"
         d="m 1341.39,1366.86 c -5.5,16.12 -11.37,32.85 -17.5,50.05 -0.85,2.42 -1.73,4.87 -2.6,7.26 l -0.13,0.34 c -0.32,0.88 -0.64,1.76 -0.96,2.64 -1.16,3.23 -2.33,6.47 -3.52,9.72 -4.4,12.09 -8.92,24.35 -13.59,36.79 l -0.41,-0.34 m 38.71,-106.46 c 1.46,-4.28 2.9,-8.52 4.31,-12.71 7.45,-22.16 14.22,-43.05 20.21,-62.28 m -24.52,74.99 -0.47,-0.16 m 0.47,0.16 -0.47,-0.16 c 0,0 0,0 0,0 m 24.99,-74.83 c 0.1,-0.34 0.21,-0.68 0.33,-1.01 m -0.33,1.01 -0.47,-0.15 c 0,0 -0.01,0 -0.01,0.01 m 0.48,0.14 -0.48,-0.14 c 0,0 0,0 0,0 m 0.81,-0.87 c 0.13,-0.45 0.27,-0.89 0.41,-1.33 0.22,-0.71 0.43,-1.41 0.64,-2.11 0.44,-1.38 0.87,-2.73 1.29,-4.12 l -0.61,0.28 m -1.73,7.28 -0.47,-0.16 c 0,0 -0.01,0 -0.01,0.01 m 0.48,0.15 -0.48,-0.14 c 0,-0.01 0,-0.01 0,-0.01 m 2.21,-7.13 c 0.07,-0.22 0.13,-0.43 0.2,-0.64 l -1.17,0.53 m 0.97,0.11 -0.75,0.34 m 0.75,-0.34 c -0.38,1.24 -0.76,2.45 -1.15,3.69 h -0.01 c -0.21,0.71 -0.42,1.4 -0.64,2.11 -0.13,0.44 -0.27,0.88 -0.41,1.33 m 1.24,-7.24 -2.27,1.15 m 2.27,-1.15 0.21,0.46 0.01,-0.01 m -0.22,-0.45 0.23,0.45 h -0.01 m -2.49,0.7 c -0.08,0.3 -0.18,0.59 -0.28,0.88 m 0.28,-0.88 0.22,0.45 0.2,-0.1 m -0.42,-0.35 0.48,0.14 c -0.02,0.07 -0.04,0.14 -0.06,0.21 m -0.7,0.53 c -0.63,2.09 -1.28,4.17 -1.95,6.3 -0.32,1.03 -0.64,2.08 -0.97,3.14 -5.6,17.87 -11.94,36.97 -18.89,57.13 -1.36,3.91 -2.76,7.97 -4.16,12.03 -5.54,15.84 -11.41,32.2 -17.6,49.07 -0.55,1.51 -1.1,3 -1.66,4.5 -0.61,1.64 -1.23,3.29 -1.85,4.99 -0.53,1.46 -1.07,2.91 -1.62,4.38 -0.2,0.54 -0.4,1.08 -0.6,1.63 l -2.19,5.91 c -4.47,11.98 -9.08,24.14 -13.81,36.5 m 65.3,-185.58 0.48,0.16 v -0.01 c 0,0 0,0 0,0 m -0.48,-0.15 0.48,0.15 c 0,0 0,0 0,0 m -65.78,185.43 3.35,2.74 c 0.06,-0.17 0.12,-0.33 0.18,-0.5 m -3.53,-2.24 0.47,0.18 c 0.04,-0.11 0.09,-0.23 0.13,-0.34 m -0.6,0.16 0.32,-0.39 0.28,0.23 m 2.93,2.4 c 4.65,-12.38 9.15,-24.58 13.53,-36.62 v 0 c 1.19,-3.25 2.36,-6.49 3.52,-9.72 0.32,-0.88 0.64,-1.76 0.96,-2.64 v -0.01 l 0.13,-0.33 0.47,0.17 -0.47,-0.18 v 0 c 0.87,-2.38 1.75,-4.83 2.59,-7.25 v 0 c 6.14,-17.2 12,-33.93 17.51,-50.04 m -38.24,106.62 -2.93,-2.4 m 0,0 c 4.68,-12.24 9.24,-24.29 13.67,-36.16 h 0.01 l 2.19,-5.92 c 0.2,-0.54 0.4,-1.09 0.6,-1.63 0.55,-1.46 1.09,-2.92 1.62,-4.38 v 0 c 0.63,-1.71 1.24,-3.35 1.84,-4.98 0.56,-1.5 1.11,-2.99 1.67,-4.51 m 0,0 c 6.19,-16.87 12.06,-33.23 17.61,-49.07 v -0.01 c 1.39,-4.06 2.79,-8.12 4.15,-12.03 v 0 c 6.96,-20.16 13.29,-39.27 18.9,-57.14 v 0 c 0.32,-1.06 0.65,-2.1 0.97,-3.14 0.66,-2.12 1.31,-4.21 1.95,-6.3 m -43.58,127.69 -0.46,-0.16 0.46,0.17 c 0,0 0,-0.01 0,-0.01 z m 43.58,-127.69 c 0.07,-0.22 0.15,-0.45 0.22,-0.68 m 0,0 2.07,-1.05 m -1.46,6.79 c -0.11,0.32 -0.23,0.67 -0.33,1.02 m 0,0 c -5.99,19.22 -12.76,40.11 -20.21,62.26 v 0 c -1.41,4.19 -2.84,8.42 -4.3,12.71" />
      <path
         inkscape:connector-curvature="0"
         style="stroke:url(#paint13_linear)"
         id="path1188"
         d="m 1341.39,1366.86 c -5.5,16.12 -11.37,32.85 -17.5,50.05 -0.85,2.42 -1.73,4.87 -2.6,7.26 l -0.13,0.34 c -0.32,0.88 -0.64,1.76 -0.96,2.64 -1.16,3.23 -2.33,6.47 -3.52,9.72 -4.4,12.09 -8.92,24.35 -13.59,36.79 l -0.41,-0.34 m 38.71,-106.46 c 1.46,-4.28 2.9,-8.52 4.31,-12.71 7.45,-22.16 14.22,-43.05 20.21,-62.28 m -24.52,74.99 -0.47,-0.16 m 0.47,0.16 -0.47,-0.16 c 0,0 0,0 0,0 m 24.99,-74.83 c 0.1,-0.34 0.21,-0.68 0.33,-1.01 m -0.33,1.01 -0.47,-0.15 c 0,0 -0.01,0 -0.01,0.01 m 0.48,0.14 -0.48,-0.14 c 0,0 0,0 0,0 m 0.81,-0.87 c 0.13,-0.45 0.27,-0.89 0.41,-1.33 0.22,-0.71 0.43,-1.41 0.64,-2.11 0.44,-1.38 0.87,-2.73 1.29,-4.12 l -0.61,0.28 m -1.73,7.28 -0.47,-0.16 c 0,0 -0.01,0 -0.01,0.01 m 0.48,0.15 -0.48,-0.14 c 0,-0.01 0,-0.01 0,-0.01 m 2.21,-7.13 c 0.07,-0.22 0.13,-0.43 0.2,-0.64 l -1.17,0.53 m 0.97,0.11 -0.75,0.34 m 0.75,-0.34 c -0.38,1.24 -0.76,2.45 -1.15,3.69 h -0.01 c -0.21,0.71 -0.42,1.4 -0.64,2.11 -0.13,0.44 -0.27,0.88 -0.41,1.33 m 1.24,-7.24 -2.27,1.15 m 2.27,-1.15 0.21,0.46 0.01,-0.01 m -0.22,-0.45 0.23,0.45 h -0.01 m -2.49,0.7 c -0.08,0.3 -0.18,0.59 -0.28,0.88 m 0.28,-0.88 0.22,0.45 0.2,-0.1 m -0.42,-0.35 0.48,0.14 c -0.02,0.07 -0.04,0.14 -0.06,0.21 m -0.7,0.53 c -0.63,2.09 -1.28,4.17 -1.95,6.3 -0.32,1.03 -0.64,2.08 -0.97,3.14 -5.6,17.87 -11.94,36.97 -18.89,57.13 -1.36,3.91 -2.76,7.97 -4.16,12.03 -5.54,15.84 -11.41,32.2 -17.6,49.07 -0.55,1.51 -1.1,3 -1.66,4.5 -0.61,1.64 -1.23,3.29 -1.85,4.99 -0.53,1.46 -1.07,2.91 -1.62,4.38 -0.2,0.54 -0.4,1.08 -0.6,1.63 l -2.19,5.91 c -4.47,11.98 -9.08,24.14 -13.81,36.5 m 65.3,-185.58 0.48,0.16 v -0.01 c 0,0 0,0 0,0 m -0.48,-0.15 0.48,0.15 c 0,0 0,0 0,0 m -65.78,185.43 3.35,2.74 c 0.06,-0.17 0.12,-0.33 0.18,-0.5 m -3.53,-2.24 0.47,0.18 c 0.04,-0.11 0.09,-0.23 0.13,-0.34 m -0.6,0.16 0.32,-0.39 0.28,0.23 m 2.93,2.4 c 4.65,-12.38 9.15,-24.58 13.53,-36.62 v 0 c 1.19,-3.25 2.36,-6.49 3.52,-9.72 0.32,-0.88 0.64,-1.76 0.96,-2.64 v -0.01 l 0.13,-0.33 0.47,0.17 -0.47,-0.18 v 0 c 0.87,-2.38 1.75,-4.83 2.59,-7.25 v 0 c 6.14,-17.2 12,-33.93 17.51,-50.04 m -38.24,106.62 -2.93,-2.4 m 0,0 c 4.68,-12.24 9.24,-24.29 13.67,-36.16 h 0.01 l 2.19,-5.92 c 0.2,-0.54 0.4,-1.09 0.6,-1.63 0.55,-1.46 1.09,-2.92 1.62,-4.38 v 0 c 0.63,-1.71 1.24,-3.35 1.84,-4.98 0.56,-1.5 1.11,-2.99 1.67,-4.51 m 0,0 c 6.19,-16.87 12.06,-33.23 17.61,-49.07 v -0.01 c 1.39,-4.06 2.79,-8.12 4.15,-12.03 v 0 c 6.96,-20.16 13.29,-39.27 18.9,-57.14 v 0 c 0.32,-1.06 0.65,-2.1 0.97,-3.14 0.66,-2.12 1.31,-4.21 1.95,-6.3 m -43.58,127.69 -0.46,-0.16 0.46,0.17 c 0,0 0,-0.01 0,-0.01 z m 43.58,-127.69 c 0.07,-0.22 0.15,-0.45 0.22,-0.68 m 0,0 2.07,-1.05 m -1.46,6.79 c -0.11,0.32 -0.23,0.67 -0.33,1.02 m 0,0 c -5.99,19.22 -12.76,40.11 -20.21,62.26 v 0 c -1.41,4.19 -2.84,8.42 -4.3,12.71" />
    </g>
  </g>
  <g
     id="medium_plant_1"
     transform="translate(-1457.7671,-3510.0165)">
    <path
       style="fill:#8f8960"
       inkscape:connector-curvature="0"
       d="m 1046.24,1538.42 c 0,0 41.9,-78.68 71.81,-77.46 0,0 -22.76,79.38 -70.2,91.26 z"
       id="Vector_19" />
    <path
       style="fill:#b9b435"
       inkscape:connector-curvature="0"
       d="m 1049.8,1466.69 c 0,0 29.67,-87.1 60.11,-91.43 0,0 -11.43,72.56 -57.81,98.41 z"
       id="Vector_20" />
    <path
       style="fill:#b9b435"
       inkscape:connector-curvature="0"
       d="m 1047.97,1372.27 c 0,0 28.89,-68.86 54.04,-77.23 0,0 -13.22,83.28 -50.23,95.17 z"
       id="Vector_21" />
    <path
       style="fill:#b9b435"
       inkscape:connector-curvature="0"
       d="m 1044.86,1310.03 8.3,-125.84 c 0,0 35.28,99.26 -7.2,148.31 z"
       id="Vector_22" />
    <path
       style="fill:#8f8960"
       inkscape:connector-curvature="0"
       d="m 1022.74,1181.83 c 0,0 -23.115,-94.92 -30.389,-100.83 0,0 57.489,65.97 43.579,141.77 z"
       id="Vector_23" />
    <path
       style="fill:#8f8960"
       inkscape:connector-curvature="0"
       d="m 1051.48,1537.25 c 0,0 -28.56,-84.6 -58.172,-88.37 0,0 9.472,82.08 54.322,101.73 z"
       id="Vector_24" />
    <path
       style="fill:#8f8960"
       inkscape:connector-curvature="0"
       d="m 1051.36,1465.07 c 0,0 -32.45,-86.06 -63.024,-89.39 0,0 13.774,72.16 60.944,96.46 z"
       id="Vector_25" />
    <path
       style="fill:#b9b435"
       inkscape:connector-curvature="0"
       d="m 1053.97,1377.96 c 0,0 -23.62,-70.9 -48.05,-81.18 0,0 6.89,84.14 42.89,98.8 z"
       id="Vector_26" />
    <path
       style="fill:#8f8960"
       inkscape:connector-curvature="0"
       d="m 1041.49,1307.3 -57.471,-111.93 c 0,0 6.988,105.27 65.381,132.95 z"
       id="Vector_27" />
    <path
       style="fill:#8f8960"
       inkscape:connector-curvature="0"
       d="m 1006.26,1188.64 c 0,0 -73.527,-63.42 -75.493,-72.63 0,0 32.539,81.57 105.833,102.92 z"
       id="Vector_28" />
    <path
       style="fill:#b9b435"
       inkscape:connector-curvature="0"
       d="m 1040.17,1261.49 c 0,0 -81.912,-97.72 -105.111,-100.03 0,0 74.551,11.22 107.761,95.54 z"
       id="Vector_29" />
    <path
       style="fill:#444053"
       inkscape:connector-curvature="0"
       d="m 1051.77,1390.98 -3.36,0.08 c -3.36,-136.92 -20.16,-219.36 -47.34,-232.16 l 1.41,-3.07 c 28.74,13.54 45.79,94.86 49.29,235.15 z"
       id="Vector_30" />
    <path
       style="fill:#444053"
       inkscape:connector-curvature="0"
       d="m 1052.3,1459.55 c 0,4.61 0,9.28 0,13.99 -0.11,17.82 -0.35,36.37 -0.73,55.47 0,2.68 -0.12,5.37 -0.17,8.07 -0.01,0.13 -0.01,0.26 0,0.39 -0.1,4.53 -0.22,9.12 -0.34,13.75 -0.12,4.63 -0.26,9.44 -0.4,14.43 -1.5,-0.48 -2.99,-0.99 -4.47,-1.5 0.17,-4.69 0.34,-9.36 0.5,-14 0,-2.19 0.16,-4.37 0.22,-6.54 0.07,-2.18 0.15,-4.54 0.2,-6.8 0.13,-3.54 0.24,-7.05 0.34,-10.56 0.54,-18.79 0.92,-37.01 1.16,-54.51 0,-4.54 0.04,-8.98 0.13,-13.34 0.21,-22.3 0.14,-43.37 -0.21,-62.99 -0.07,-3.63 -0.15,-7.21 -0.24,-10.74 0,-0.18 0,-0.35 0,-0.54 l 1.86,-1.9 1.4,-1.43 c 0,1.7 0,3.4 0.13,5.22 0,1.25 0,2.51 0,3.79 0,0.39 0,0.76 0,1.15 0.47,21.11 0.69,44.12 0.62,68.59 z"
       id="Vector_31" />
  </g>
  <g
     id="second_plant"
     transform="translate(-312.80024,-3498.2128)">
    <path
       style="fill:#6c63ff"
       inkscape:connector-curvature="0"
       d="m 692.483,1488.62 c 0,0 -35.63,-65.55 -61.483,-71.29 0,0 21.485,81.57 59.484,89.56 z"
       id="Vector_32" />
    <path
       style="fill:#444053"
       inkscape:connector-curvature="0"
       d="m 693.164,1461.3 3.247,-0.24 c -10.003,-130.58 -1.721,-210.62 23.126,-225.44 l -1.624,-2.79 c -26.39,15.69 -34.915,94.68 -24.749,228.47 z"
       id="second_plant_stem" />
    <path
       style="fill:#6c63ff"
       inkscape:connector-curvature="0"
       d="m 689.358,1426.41 -20.813,-124.35 c 0,0 -25.198,102.37 21.989,146.81 z"
       id="Vector_33" />
    <path
       style="fill:#6c63ff"
       inkscape:connector-curvature="0"
       d="m 698.581,1296.59 c 0,0 13.438,-96.87 20.158,-103.42 0,0 -50.614,71.52 -29.196,145.49 z"
       id="Vector_34" />
    <path
       style="fill:#6c63ff"
       inkscape:connector-curvature="0"
       d="m 754.587,1559.23 c 0,0 0,2.43 -0.319,6.6 l -4.67,-3.98 -0.454,-0.39 c 0.123,-0.08 0.253,-0.16 0.387,-0.22 1.587,-0.9 3.288,-1.57 5.056,-2.01 z"
       id="Vector_35" />
    <path
       style="fill:#6c63ff"
       inkscape:connector-curvature="0"
       d="m 687.074,1494.91 c 0,0 16.429,-72.94 39.711,-85.67 0,0 1.546,84.4 -32.807,102.68 z"
       id="Vector_36" />
    <path
       style="fill:#6c63ff"
       inkscape:connector-curvature="0"
       d="m 692.449,1423.33 45.995,-117.26 c 0,0 3.578,105.45 -51.774,138.94 z"
       id="Vector_37" />
    <path
       style="fill:#6c63ff"
       inkscape:connector-curvature="0"
       d="m 715.648,1301.7 c 0,0 66.825,-70.63 67.849,-79.99 0,0 -24.223,84.44 -94.928,113.2 z"
       id="Vector_38" />
    <path
       style="fill:#6c63ff"
       inkscape:connector-curvature="0"
       d="m 715.329,1276.26 c 0,0 71.73,-105.59 94.576,-110.26 0,0 -73.057,18.78 -97.667,106.08 z"
       id="Vector_39" />
  </g>
  <g
     id="Tree_1"
     transform="translate(0,-1596)">
    <path
       style="opacity:0.5;fill:#3f3703"
       inkscape:connector-curvature="0"
       d="m 1178.92,-149.974 c 0,0 78.42,-3.332 86.69,-157.734 8.26,-154.402 -73.48,-180.566 -73.48,-180.566 0,0 -26.06,-14.56 -37.22,-15.159 -11.17,-0.599 -49.85,3.032 -49.85,3.032 l 42.29,-8.198 c 0,0 -59.56,-22.795 -77.35,-24.629 l 64.36,13.699 c 0,0 0.89,-35.858 -14.52,-47.724 0,0 13.14,-0.973 20.18,24.854 1.97,7.452 5.66,14.333 10.76,20.093 5.1,5.759 11.47,10.236 18.61,13.071 23.86,9.358 56.87,24.143 64.39,36.794 0,0 13.89,14.598 11.76,-23.394 -2.12,-37.992 -12.24,-70.594 -15.96,-71.493 0,0 -28.41,-30.356 -68.27,-32.19 0,0 23.26,-9.433 62.53,20.063 0,0 3.32,-14.972 -11.46,-32.528 -14.78,-17.555 -37.67,-54.536 -62.76,-58.654 0,0 35.06,-2.133 62.87,43.458 0,0 10.27,6.7 11.17,-10.331 1.12,-12.955 3.46,-25.774 6.96,-38.292 0,0 8.45,39.19 -9.38,56.82 0,0 34.13,44.692 32.64,94.812 0,0 10.57,22.795 14.48,-3.968 0,0 2.27,-36.794 6.85,-68.049 1.83,-12.588 1.06,-25.421 -2.26,-37.697 -3.32,-12.276 -9.13,-23.73 -17.06,-33.646 -7.44,-9.47 -12.8,-18.715 -9.86,-23.469 l 39.57,47.425 c 0,0 33.31,-77.482 57.4,-94.064 24.08,-16.581 27.21,-20.362 27.21,-20.362 l -38.98,45.89 48.95,-17.33 -48.95,22.795 c 0,0 -22.67,18.528 -35.66,69.284 -12.99,50.756 -14.22,82.348 -14.22,82.348 0,0 69.83,-55.622 83.12,-53.788 l -45.19,34.362 c -12.28,9.344 -22.42,21.23 -29.74,34.855 -7.32,13.626 -11.65,28.672 -12.69,44.123 0,0 87.33,-22.458 108.47,-26.725 l 39.9,-41.174 -30.22,39.078 62.23,-0.899 35.66,-25.527 c 0,0 -28.1,23.693 -25.38,25.191 2.71,1.497 43.81,3.368 43.81,3.368 0,0 -104.56,-0.636 -116.03,6.962 -11.46,7.599 -37.22,10.331 -37.22,10.331 l 74.04,11.23 -88.22,-6.401 c 0,0 -66.78,12.165 -70.43,33.126 0,0 13.63,35.672 22.67,49.821 7.45,11.79 22.67,49.857 25.69,83.283 3.01,33.426 7.44,84.781 -4.21,116.035 -11.65,31.255 -15.71,49.072 -9.87,58.505 5.85,9.432 11.17,21.597 -7.44,24.03 -18.61,2.433 -100.95,-1.235 -100.95,-1.235 0,0 -25.27,4.978 -20.43,-13.512 z"
       id="Vector_40"
       inkscape:transform-center-x="194.76241"
       inkscape:transform-center-y="472.1513" />
  </g>
  <g
     id="big_plant"
     transform="translate(206.56619,-2453.578)">
    <path
       style="fill:#6c63ff"
       inkscape:connector-curvature="0"
       d="m 527.382,629.976 c 0,0 56.318,-61.058 97.437,-45.903 0,0 -48.166,63.348 -105.005,64.972 z"
       id="Vector_41" />
    <path
       style="fill:#6c63ff"
       inkscape:connector-curvature="0"
       d="m 552.878,560.796 c 0,0 62.246,-58.476 89.317,-48.194 0,0 -44.934,64.973 -92.029,61.189 z"
       id="Vector_42" />
    <path
       style="fill:#6c63ff"
       inkscape:connector-curvature="0"
       d="m 577.741,496.911 c 0,0 53.59,-69.845 82.821,-64.436 0,0 -32.479,62.26 -82.821,71.47 z"
       id="Vector_43" />
    <path
       style="fill:#6c63ff"
       inkscape:connector-curvature="0"
       d="m 604.844,410.774 c 0,0 47.371,-53.603 72.948,-53.424 0,0 -37.351,71.47 -74.896,70.885 z"
       id="Vector_44" />
    <path
       style="fill:#6c63ff"
       inkscape:connector-curvature="0"
       d="m 620.775,353.419 45.78,-111.526 c 0,0 2.289,100.822 -51.577,132.22 z"
       id="Vector_45" />
    <path
       style="fill:#6c63ff"
       inkscape:connector-curvature="0"
       d="m 639.353,230.425 c 0,0 7.568,-93.138 2.696,-100.707 0,0 32.723,77.415 -3.02,141.851 z"
       id="Vector_46" />
    <path
       style="fill:#6c63ff"
       inkscape:connector-curvature="0"
       d="m 532.026,627.166 c 0,0 -13.349,-82.012 -56.026,-92.034 0,0 5.294,79.413 51.82,112.078 z"
       id="Vector_47" />
    <path
       style="fill:#6c63ff"
       inkscape:connector-curvature="0"
       d="m 557.912,561.381 c 0,0 -0.455,-85.407 -26.551,-97.963 0,0 -16.24,77.318 18.984,108.829 z"
       id="Vector_48" />
    <path
       style="fill:#6c63ff"
       inkscape:connector-curvature="0"
       d="m 579.738,495.953 c 0,0 -3.654,-87.973 -30.676,-100.367 0,0 -9.257,69.619 26.632,106.117 z"
       id="Vector_49" />
    <path
       style="fill:#6c63ff"
       inkscape:connector-curvature="0"
       d="m 608.547,417.791 c 0,0 -0.179,-71.47 -19.487,-88.331 0,0 -19.196,78.374 9.37,102.722 z"
       id="Vector_50" />
    <path
       style="fill:#6c63ff"
       inkscape:connector-curvature="0"
       d="M 618.502,349.911 599.745,230.815 c 0,0 -25.512,97.573 19.65,140.569 z"
       id="Vector_51" />
    <path
       style="fill:#6c63ff"
       inkscape:connector-curvature="0"
       d="m 622.172,231.546 c 0,0 -48.183,-80.046 -47.192,-89.013 0,0 5.115,83.897 65.77,125.723 z"
       id="Vector_52" />
    <path
       style="fill:#6c63ff"
       inkscape:connector-curvature="0"
       d="m 627.823,207.912 c 0,0 -45.47,-113.7021 -66.046,-122.912 0,0 64.958,33.039 69.83,119.664 z"
       id="Vector_53" />
    <path
       style="fill:#444053"
       inkscape:connector-curvature="0"
       d="m 602.571,428.917 -3.102,-0.958 c 38.374,-125.154 47.939,-205.054 26.958,-224.952 l 2.241,-2.372 c 22.248,21.117 13.219,100.042 -26.097,228.282 z"
       id="Vector_54" />
    <path
       style="fill:#444053"
       inkscape:connector-curvature="0"
       d="m 605.397,419.61 -1.462,4.743 -1.072,3.525 c -0.13,0.341 -0.227,0.682 -0.325,1.023 -5.992,19.232 -12.748,40.121 -20.218,62.26 -1.396,4.207 -2.842,8.447 -4.303,12.735 -5.505,16.129 -11.368,32.86 -17.506,50.045 -0.845,2.421 -1.722,4.873 -2.599,7.277 l -0.162,0.39 c -1.462,4.093 -2.956,8.122 -4.466,12.329 -5.716,15.702 -11.671,31.707 -17.864,48.015 -1.624,4.532 -3.442,9.063 -5.196,13.628 -1.332,3.476 -2.68,6.984 -4.044,10.493 -0.325,0.877 -0.666,1.754 -1.023,2.631 -2.956,7.635 -5.96,15.312 -9.013,23.033 l -3.914,-3.249 c 2.577,-6.497 5.132,-12.962 7.665,-19.394 0.796,-2.03 1.624,-4.044 2.371,-6.059 1.624,-4.239 3.248,-8.446 4.872,-12.637 l 0.146,-0.373 c 1.148,-2.989 2.301,-5.962 3.459,-8.918 6.496,-16.812 12.765,-33.331 18.79,-49.444 l 2.192,-5.913 c 0.747,-2.014 1.494,-4.012 2.225,-6.01 1.185,-3.248 2.354,-6.335 3.508,-9.486 6.187,-16.86 12.065,-33.25 17.587,-49.054 1.418,-4.072 2.809,-8.1 4.173,-12.085 6.951,-20.142 13.268,-39.26 18.871,-57.128 1.039,-3.248 2.03,-6.497 3.004,-9.632 0,-0.227 0.146,-0.455 0.211,-0.682 l 2.274,-1.153 z"
       id="Vector_55" />
  </g>
  <defs
     id="defs1339">
    <linearGradient
       id="paint0_linear"
       x1="1307.98"
       y1="1475.95"
       x2="1307.98"
       y2="1477.9301"
       gradientUnits="userSpaceOnUse">
      <stop
         stop-color="white"
         id="stop1269" />
      <stop
         offset="1"
         stop-color="white"
         stop-opacity="0"
         id="stop1271" />
    </linearGradient>
    <linearGradient
       id="paint1_linear"
       x1="1353.85"
       y1="1374.6801"
       x2="1353.85"
       y2="1436.9301"
       gradientUnits="userSpaceOnUse">
      <stop
         stop-color="white"
         id="stop1274" />
      <stop
         offset="1"
         stop-color="white"
         stop-opacity="0"
         id="stop1276" />
    </linearGradient>
    <linearGradient
       id="paint2_linear"
       x1="1382.53"
       y1="1295.17"
       x2="1382.53"
       y2="1366.9399"
       gradientUnits="userSpaceOnUse">
      <stop
         stop-color="white"
         id="stop1279" />
      <stop
         offset="1"
         stop-color="white"
         stop-opacity="0"
         id="stop1281" />
    </linearGradient>
    <linearGradient
       id="paint3_linear"
       x1="1403.65"
       y1="1220.35"
       x2="1403.65"
       y2="1291.24"
       gradientUnits="userSpaceOnUse">
      <stop
         stop-color="white"
         id="stop1284" />
      <stop
         offset="1"
         stop-color="white"
         stop-opacity="0"
         id="stop1286" />
    </linearGradient>
    <linearGradient
       id="paint4_linear"
       x1="1404.12"
       y1="1104.88"
       x2="1404.12"
       y2="1237.11"
       gradientUnits="userSpaceOnUse">
      <stop
         stop-color="white"
         id="stop1289" />
      <stop
         offset="1"
         stop-color="white"
         stop-opacity="0"
         id="stop1291" />
    </linearGradient>
    <linearGradient
       id="paint5_linear"
       x1="1410.77"
       y1="992.71802"
       x2="1410.77"
       y2="1134.5699"
       gradientUnits="userSpaceOnUse">
      <stop
         stop-color="white"
         id="stop1294" />
      <stop
         offset="1"
         stop-color="white"
         stop-opacity="0"
         id="stop1296" />
    </linearGradient>
    <linearGradient
       id="paint6_linear"
       x1="1306.14"
       y1="1326.42"
       x2="1306.14"
       y2="1435.25"
       gradientUnits="userSpaceOnUse">
      <stop
         stop-color="white"
         id="stop1299" />
      <stop
         offset="1"
         stop-color="white"
         stop-opacity="0"
         id="stop1301" />
    </linearGradient>
    <linearGradient
       id="paint7_linear"
       x1="1327.24"
       y1="1258.64"
       x2="1327.24"
       y2="1364.75"
       gradientUnits="userSpaceOnUse">
      <stop
         stop-color="white"
         id="stop1304" />
      <stop
         offset="1"
         stop-color="white"
         stop-opacity="0"
         id="stop1306" />
    </linearGradient>
    <linearGradient
       id="paint8_linear"
       x1="1359.03"
       y1="1192.46"
       x2="1359.03"
       y2="1295.17"
       gradientUnits="userSpaceOnUse">
      <stop
         stop-color="white"
         id="stop1309" />
      <stop
         offset="1"
         stop-color="white"
         stop-opacity="0"
         id="stop1311" />
    </linearGradient>
    <linearGradient
       id="paint9_linear"
       x1="1369.36"
       y1="1093.8199"
       x2="1369.36"
       y2="1234.38"
       gradientUnits="userSpaceOnUse">
      <stop
         stop-color="white"
         id="stop1314" />
      <stop
         offset="1"
         stop-color="white"
         stop-opacity="0"
         id="stop1316" />
    </linearGradient>
    <linearGradient
       id="paint10_linear"
       x1="1371.23"
       y1="1005.55"
       x2="1371.23"
       y2="1131.27"
       gradientUnits="userSpaceOnUse">
      <stop
         stop-color="white"
         id="stop1319" />
      <stop
         offset="1"
         stop-color="white"
         stop-opacity="0"
         id="stop1321" />
    </linearGradient>
    <linearGradient
       id="paint11_linear"
       x1="1360.0699"
       y1="948"
       x2="1360.0699"
       y2="1070.91"
       gradientUnits="userSpaceOnUse">
      <stop
         stop-color="white"
         id="stop1324" />
      <stop
         offset="1"
         stop-color="white"
         stop-opacity="0"
         id="stop1326" />
    </linearGradient>
    <linearGradient
       id="paint12_linear"
       x1="1383.4"
       y1="1063.64"
       x2="1383.4"
       y2="1291.9"
       gradientUnits="userSpaceOnUse">
      <stop
         stop-color="white"
         id="stop1329" />
      <stop
         offset="1"
         stop-color="white"
         stop-opacity="0"
         id="stop1331" />
    </linearGradient>
    <linearGradient
       id="paint13_linear"
       x1="1333.96"
       y1="1282.66"
       x2="1333.96"
       y2="1474.15"
       gradientUnits="userSpaceOnUse">
      <stop
         stop-color="white"
         id="stop1334" />
      <stop
         offset="1"
         stop-color="white"
         stop-opacity="0"
         id="stop1336" />
    </linearGradient>
  </defs>
  <g
     id="g1514"
     transform="matrix(1.330578,0,0,1.330578,-437.53266,-2310.7475)">
    <rect
       style="fill:#333333;fill-rule:evenodd;stroke-width:0.2322787"
       id="rect1847"
       width="209.44975"
       height="76.163544"
       x="329.31653"
       y="1736.7521"
       ry="0.066323474" />
    <g
       id="g1582"
       transform="matrix(-0.12763859,0,0,-0.12763859,493.20608,1905.8481)"
       style="fill:#ffffff;fill-opacity:1">
      <path
         style="fill:#ffffff;fill-opacity:1;stroke-width:1.53823411"
         inkscape:connector-curvature="0"
         d="m 1058.2687,960.05405 c 0,0 -101.4231,-92.47287 -87.53819,-135.90788 0,0 110.18699,64.6462 108.93679,138.97311 z"
         id="path1488" />
      <path
         style="fill:#ffffff;fill-opacity:1;stroke-width:1.53823411"
         inkscape:connector-curvature="0"
         d="m 951.84884,926.60761 c 0,0 -119.01093,-77.82886 -113.25754,-124.22548 0,0 104.49713,45.328 124.67941,123.59456 z"
         id="path1490" />
      <path
         style="fill:#ffffff;fill-opacity:1;stroke-width:1.53823411"
         inkscape:connector-curvature="0"
         d="m 809.14036,892.14844 c 0,0 -91.89928,-69.50779 -94.35179,-109.72682 0,0 119.8947,52.17353 122.86163,111.19066 z"
         id="path1492" />
      <path
         style="fill:#ffffff;fill-opacity:1;stroke-width:1.53823411"
         inkscape:connector-curvature="0"
         d="M 714.30246,872.22863 528.43174,810.53518 c 0,0 163.46271,-12.74924 220.1001,68.91838 z"
         id="path1494" />
      <path
         style="fill:#ffffff;fill-opacity:1;stroke-width:1.54478669"
         inkscape:connector-curvature="0"
         d="m 479.43286,846.39055 c 0,0 -149.15455,-32.81557 -162.41785,-26.87257 0,0 131.89433,-33.8904 228.9444,36.61873 z"
         id="path1496" />
      <path
         style="fill:#ffffff;fill-opacity:1;stroke-width:1.53823411"
         inkscape:connector-curvature="0"
         d="m 1058.6207,951.90019 c 0,0 -138.71233,8.65012 -156.3114,50.64461 0,0 127.2328,18.3842 174.8485,-39.7359 z"
         id="path1498" />
      <path
         style="fill:#ffffff;fill-opacity:1;stroke-width:1.53823411"
         inkscape:connector-curvature="0"
         d="m 950.0415,923.67983 c 0,0 -142.47483,13.78718 -159.79988,57.36704 0,0 114.05018,8.16525 169.59241,-51.53167 z"
         id="path1500" />
      <path
         style="fill:#ffffff;fill-opacity:1;stroke-width:1.53823411"
         inkscape:connector-curvature="0"
         d="m 823.40853,890.24796 c 0,0 -116.12251,6.78678 -141.4223,38.61153 0,0 129.28996,22.98561 165.83705,-24.10349 z"
         id="path1502" />
      <path
         style="fill:#ffffff;fill-opacity:1;stroke-width:1.53823411"
         inkscape:connector-curvature="0"
         d="m 708.83985,876.10257 -191.45407,40.34635 c 0,0 161.1008,31.15454 226.2469,-43.69056 z"
         id="path1504" />
      <path
         style="fill:#ffffff;fill-opacity:1;stroke-width:1.31455588"
         inkscape:connector-curvature="0"
         d="m 518.85368,871.09299 c 0,0 -106.80859,51.57325 -119.32006,48.67561 0,0 116.01836,7.62755 168.68805,-67.61151 z"
         id="path1506" />
      <path
         style="fill:#ffffff;fill-opacity:1;stroke-width:1.53823411"
         inkscape:connector-curvature="0"
         d="m 838.80396,893.92989 -1.23343,4.96475 C 630.34205,849.96182 305.99611,848.09228 275.79925,882.96327 l -4.04802,-2.78657 c 31.93805,-36.87032 354.70067,-36.29988 567.05273,13.75319 z"
         id="path1510"
         sodipodi:nodetypes="ccccc" />
      <path
         style="fill:#ffffff;fill-opacity:1;stroke-width:1.53823411"
         inkscape:connector-curvature="0"
         d="m 942.12027,920.12805 c 6.93166,1.81363 13.95353,3.65087 21.03555,5.50385 26.75007,7.17212 54.54538,14.82231 83.11128,22.89443 4.0297,1.05434 8.0261,2.28881 12.0657,3.42444 0.1915,0.0658 0.3869,0.11697 0.5864,0.15343 6.7711,1.92899 13.6243,3.91094 20.5377,5.90863 6.9134,1.99769 14.0894,4.09556 21.536,6.26424 -1.3261,2.01352 -2.6932,4.00051 -4.0563,5.97293 -6.9835,-2.09472 -13.9369,-4.18157 -20.8492,-6.24193 -3.2929,-0.86157 -6.5063,-1.95413 -9.745,-2.89593 -3.2496,-0.96042 -6.7659,-2.00633 -10.144,-2.96885 -5.2704,-1.58356 -10.5037,-3.12594 -15.7411,-4.65365 -28.0354,-8.18507 -55.27811,-15.91099 -81.49466,-23.14809 -6.8264,-1.7861 -13.48633,-3.59158 -20.00582,-5.439 -33.44598,-9.08144 -65.15532,-17.26787 -94.79723,-24.47275 -5.48632,-1.32531 -10.90148,-2.61627 -16.2455,-3.87288 -0.27065,-0.0708 -0.52626,-0.13769 -0.81195,-0.21244 l -2.10749,-3.47841 -1.58612,-2.61811 c 2.55615,0.6688 5.11229,1.3376 7.90124,1.86274 1.87952,0.49177 3.77407,0.98747 5.6987,1.49104 0.58641,0.15343 1.14274,0.29899 1.72915,0.45242 31.93064,7.61488 66.61743,16.3443 103.38265,26.07389 z"
         id="path1512" />
    </g>
    <path
       sodipodi:nodetypes="ccscscscc"
       style="fill:#ffffff;stroke-width:0.38021621;fill-opacity:1"
       inkscape:connector-curvature="0"
       d="m 459.0166,1775.2683 c 12.9859,5.5871 30.85,3.6623 30.85,3.6623 0,0 -18.52076,6.3134 -33.09982,0.9566 -12.36837,-4.5445 -14.95258,-19.498 -0.98534,-24.2909 18.75007,-5.2221 22.88354,-1.0714 26.14551,5.7945 3.16906,6.6704 -23.90953,6.7513 -25.9998,6.9582 0,0 23.5388,-6.7703 19.82337,-10.9073 -1.06233,-1.1828 -1.26386,-2.5907 -10.23924,-1.7643 -12.7473,2.147 -14.72091,15.7482 -6.49468,19.5909 z"
       id="path1539" />
    <g
       aria-label="arth"
       style="font-style:normal;font-variant:normal;font-weight:normal;font-stretch:normal;font-size:146.55354309px;line-height:3;font-family:'Lucida Sans';-inkscape-font-specification:'Lucida Sans';letter-spacing:0px;word-spacing:0px;fill:#ffffff;fill-opacity:1;stroke:none;stroke-width:3.66383839"
       id="text1537"
       transform="matrix(0.14486616,0,0,0.14486616,292.20756,1543.9323)">
      <path
         d="m 1397.2677,1584.4929 q -6.2972,5.7963 -12.4513,8.7302 -6.0826,2.9339 -11.9504,2.9339 -8.2293,0 -15.3137,-5.4385 -7.0844,-5.4385 -7.0844,-15.8862 0,-11.4495 9.8752,-18.8916 9.8752,-7.5138 31.5577,-7.5138 h 3.2917 v -9.3742 q 0,-5.5817 -1.5028,-8.0862 -1.5027,-2.5762 -4.7229,-4.0074 -3.1486,-1.4312 -7.8715,-1.4312 -10.9486,0 -23.9008,6.8697 v -11.6641 q 14.2403,-5.7963 26.8347,-5.7963 6.8697,0 12.5945,2.2183 5.7963,2.1468 9.2311,6.8697 3.4349,4.6514 3.4349,15.0275 v 35.2072 q 0,5.8678 0.9303,7.9431 0.9302,2.0036 2.5761,3.077 1.7174,1.0734 3.9358,1.0734 0.9302,0 2.7192,-0.2862 l 1.0018,7.7999 q -4.7944,2.2899 -10.5907,2.2899 -3.8642,0 -7.4422,-2.5046 -3.578,-2.5045 -5.1523,-9.1595 z m -2.0752,-7.6569 v -20.1082 l -4.5082,-0.1431 q -11.0917,0 -18.6055,4.2936 -7.5137,4.2935 -7.5137,11.6641 0,5.0808 3.6495,8.5872 3.7211,3.5064 8.6587,3.5064 4.4367,0 9.0165,-1.9321 4.5798,-2.0037 9.3027,-5.8679 z"
         style="fill:#ffffff;fill-opacity:1;stroke-width:3.66383839"
         id="path1607"
         inkscape:connector-curvature="0" />
      <path
         d="m 1438.1997,1594.368 v -77.7134 h 14.0972 v 14.5981 q 4.0073,-7.8 10.3761,-12.022 6.4403,-4.2935 13.954,-4.2935 2.1468,0 4.5083,0.3578 v 13.1669 q -3.578,-1.2165 -6.4404,-1.2165 -6.655,0 -12.3082,4.0073 -5.5816,3.9358 -10.0898,11.8788 v 51.2365 z"
         style="fill:#ffffff;fill-opacity:1;stroke-width:3.66383839"
         id="path1609"
         inkscape:connector-curvature="0" />
      <path
         d="m 1532.9442,1594.368 q -6.5119,1.789 -11.3063,1.789 -10.4477,0 -16.6018,-6.011 -6.1541,-6.0825 -6.1541,-17.2458 v -45.6548 h -9.7321 v -10.5908 h 9.7321 v -14.0972 l 14.0972,-1.3596 v 15.4568 h 20.3228 v 10.5908 h -20.3228 v 43.0787 q 0,8.1578 3.1486,11.7357 3.1486,3.5064 10.0183,3.5064 2.7908,0 6.7981,-0.9302 z"
         style="fill:#ffffff;fill-opacity:1;stroke-width:3.66383839"
         id="path1611"
         inkscape:connector-curvature="0" />
      <path
         d="m 1553.2671,1594.368 v -112.9922 h 14.0972 v 49.8769 q 5.3669,-7.8 12.4513,-12.022 7.156,-4.2935 14.8128,-4.2935 9.8752,0 16.0293,6.2972 6.1541,6.2257 6.1541,17.3174 v 55.8162 h -14.0972 v -51.2365 q 0,-8.0862 -1.4312,-10.6623 -1.4312,-2.5761 -4.0073,-3.9358 -2.5761,-1.4311 -5.5101,-1.4311 -5.2238,0 -11.3064,3.2201 -6.0109,3.2202 -13.0953,13.7394 v 50.3062 z"
         style="fill:#ffffff;fill-opacity:1;stroke-width:3.66383839"
         id="path1613"
         inkscape:connector-curvature="0" />
    </g>
    <rect
       ry="0.066323474"
       y="1740.6294"
       x="93.62365"
       height="76.163544"
       width="209.44975"
       id="rect1904"
       style="fill:#333333;fill-rule:evenodd;stroke-width:0.2322787" />
    <g
       id="g1845"
       transform="matrix(0.75155308,0,0,0.75155308,103.79104,1746.099)">
      <path
         id="path1711"
         d="m 26.4,19.6 v 0 c 3.7,0 6.6,3 6.6,6.6 V 59.5 72.8 H 19.7 13.6 0.3 v -13.3 -33.3 0 0 0 C 0.4,12.1 11.9,0.6 26,0.6 v 0 c 7.5,0 14.3,3.3 19,8.5 4.7,-5.2 11.5,-8.5 19,-8.5 v 0 c 14.1,0 25.6,11.5 25.6,25.6 v 0 0 0 33.2 13.3 H 76.3 70.2 56.9 V 59.5 26.2 c 0,-3.6 3,-6.6 6.6,-6.6 v 0 c 3.7,0 6.6,3 6.6,6.6 v 33.3 h 6.1 v -33.3 0 c 0,-6.8 -5.6,-12.4 -12.4,-12.4 v 0 c -6.8,0 -12.4,5.6 -12.4,12.4 v 0 46.5 H 38.3 c 0,-23.8 0,-22.8 0,-46.6 0,-6.8 -5.6,-12.4 -12.4,-12.4 v 0 c -6.8,0 -12.4,5.6 -12.4,12.4 v 0 33.3 h 6.1 V 26.2 c 0.1,-3.7 3.1,-6.6 6.8,-6.6 z m 16.3,48.8 h 4.5 V 26.2 C 47.2,17 54.7,9.5 64,9.5 73.2,9.5 80.7,17 80.7,26.2 V 63.9 H 65.8 V 26.2 c 0,-1.2 -1,-2.3 -2.3,-2.3 -1.2,0 -2.3,1 -2.3,2.3 V 68.4 H 85.1 V 26.2 C 85.2,14.5 75.6,5 64,5 58,5 52.3,7.6 48.2,12 L 45,15.6 41.7,12 C 37.7,7.5 32,5 26,5 14.3,5 4.7,14.5 4.7,26.2 V 68.4 H 28.6 V 26.2 c 0,-1.2 -1,-2.3 -2.3,-2.3 -1.2,0 -2.3,1 -2.3,2.3 V 63.9 H 9.2 V 26.2 C 9.2,17 16.8,9.5 26,9.5 c 9.2,0 16.7,7.5 16.7,16.7 0,17.7 0,24.5 0,42.2 z"
         class="st0"
         inkscape:connector-curvature="0"
         style="clip-rule:evenodd;fill:#ffffff;fill-rule:evenodd" />
      <g
         id="g1793"
         class="st1"
         style="opacity:0.7">
	<path
   id="path1713"
   d="m 102.1,11 h 2.1 l 3.4,5.2 3.4,-5.2 h 2.1 V 22 H 111 v -7.9 l -3.5,5.2 h -0.1 L 104,14.1 V 22 h -1.9 z"
   class="st2"
   inkscape:connector-curvature="0"
   style="fill:#ffffff" />

	<path
   id="path1715"
   d="m 121.3,22.2 c -0.9,0 -1.6,-0.1 -2.3,-0.4 -0.7,-0.3 -1.3,-0.7 -1.8,-1.2 -0.5,-0.5 -0.9,-1.1 -1.2,-1.8 -0.3,-0.7 -0.4,-1.4 -0.4,-2.2 v 0 c 0,-0.8 0.1,-1.5 0.4,-2.2 0.3,-0.7 0.7,-1.3 1.2,-1.8 0.5,-0.5 1.1,-0.9 1.8,-1.2 0.7,-0.3 1.5,-0.5 2.3,-0.5 0.8,0 1.6,0.1 2.3,0.4 0.7,0.3 1.3,0.7 1.8,1.2 0.5,0.5 0.9,1.1 1.2,1.8 0.3,0.7 0.4,1.4 0.4,2.2 v 0 c 0,0.8 -0.1,1.5 -0.4,2.2 -0.3,0.7 -0.7,1.3 -1.2,1.8 -0.5,0.5 -1.1,0.9 -1.8,1.2 -0.7,0.3 -1.4,0.5 -2.3,0.5 z m 0.1,-1.8 c 0.5,0 1,-0.1 1.5,-0.3 0.5,-0.2 0.8,-0.5 1.2,-0.8 0.3,-0.4 0.6,-0.8 0.8,-1.2 0.2,-0.5 0.3,-1 0.3,-1.5 v 0 c 0,-0.5 -0.1,-1 -0.3,-1.5 -0.2,-0.5 -0.4,-0.9 -0.8,-1.2 -0.3,-0.4 -0.7,-0.6 -1.2,-0.8 -0.5,-0.2 -1,-0.3 -1.5,-0.3 -0.5,0 -1,0.1 -1.5,0.3 -0.5,0.2 -0.8,0.5 -1.2,0.8 -0.3,0.4 -0.6,0.8 -0.8,1.2 -0.2,0.5 -0.3,1 -0.3,1.5 v 0 c 0,0.5 0.1,1 0.3,1.5 0.2,0.5 0.4,0.9 0.8,1.2 0.3,0.4 0.7,0.6 1.2,0.8 0.4,0.2 0.9,0.3 1.5,0.3 z"
   class="st2"
   inkscape:connector-curvature="0"
   style="fill:#ffffff" />

	<path
   id="path1717"
   d="m 128.8,11 h 2.1 l 3.3,8.5 3.3,-8.5 h 2.1 L 135,22.1 h -1.7 z"
   class="st2"
   inkscape:connector-curvature="0"
   style="fill:#ffffff" />

	<path
   id="path1719"
   d="m 141.9,11 h 8.2 v 1.7 h -6.2 v 2.8 h 5.5 v 1.7 h -5.5 v 2.9 h 6.3 V 22 H 142 V 11 Z"
   class="st2"
   inkscape:connector-curvature="0"
   style="fill:#ffffff" />

	<path
   id="path1721"
   d="m 152.7,11 h 2.1 l 3.4,5.2 3.4,-5.2 h 2.1 v 11 h -1.9 v -7.9 l -3.5,5.2 h -0.1 l -3.4,-5.2 V 22 h -1.9 V 11 Z"
   class="st2"
   inkscape:connector-curvature="0"
   style="fill:#ffffff" />

	<path
   id="path1723"
   d="m 166.7,11 h 8.2 v 1.7 h -6.2 v 2.8 h 5.5 v 1.7 h -5.5 v 2.9 H 175 V 22 h -8.2 V 11 Z"
   class="st2"
   inkscape:connector-curvature="0"
   style="fill:#ffffff" />

	<path
   id="path1725"
   d="m 177.6,11 h 1.8 l 5.9,7.6 V 11 h 1.9 v 11 h -1.6 l -6.1,-7.8 V 22 h -1.9 z"
   class="st2"
   inkscape:connector-curvature="0"
   style="fill:#ffffff" />

	<path
   id="path1727"
   d="m 193.1,12.8 h -3.5 V 11 h 8.9 v 1.8 H 195 V 22 h -2 v -9.2 z"
   class="st2"
   inkscape:connector-curvature="0"
   style="fill:#ffffff" />

	<path
   id="path1729"
   d="m 104.8,29.7 h -3.5 v -1.8 h 8.9 v 1.8 h -3.5 v 9.2 h -2 v -9.2 z"
   class="st2"
   inkscape:connector-curvature="0"
   style="fill:#ffffff" />

	<path
   id="path1731"
   d="m 112.6,27.9 h 8.2 v 1.7 h -6.2 v 2.8 h 5.5 v 1.7 h -5.5 V 37 h 6.3 v 1.7 h -8.2 V 27.9 Z"
   class="st2"
   inkscape:connector-curvature="0"
   style="fill:#ffffff" />

	<path
   id="path1733"
   d="m 123.5,27.9 h 2.1 l 3.4,5.2 3.4,-5.2 h 2.1 v 11 h -1.9 V 31 l -3.5,5.2 H 129 L 125.6,31 v 7.9 h -1.9 v -11 z"
   class="st2"
   inkscape:connector-curvature="0"
   style="fill:#ffffff" />

	<path
   id="path1735"
   d="m 137.4,27.9 h 4.3 c 0.6,0 1.2,0.1 1.7,0.3 0.5,0.2 1,0.4 1.3,0.7 0.4,0.3 0.6,0.7 0.8,1.2 0.2,0.5 0.3,1 0.3,1.5 v 0 c 0,0.6 -0.1,1.2 -0.3,1.6 -0.2,0.5 -0.5,0.9 -0.9,1.2 -0.4,0.3 -0.9,0.6 -1.4,0.7 -0.5,0.2 -1.1,0.2 -1.7,0.2 h -2.2 v 3.5 h -1.9 z m 4.2,5.7 c 0.7,0 1.3,-0.2 1.7,-0.6 0.4,-0.4 0.6,-0.8 0.6,-1.4 v 0 c 0,-0.7 -0.2,-1.1 -0.6,-1.5 -0.4,-0.3 -1,-0.5 -1.7,-0.5 h -2.3 v 4 z"
   class="st2"
   inkscape:connector-curvature="0"
   style="fill:#ffffff" />

	<path
   id="path1737"
   d="m 148.3,27.9 h 1.9 v 9.3 h 5.8 v 1.7 h -7.7 z"
   class="st2"
   inkscape:connector-curvature="0"
   style="fill:#ffffff" />

	<path
   id="path1739"
   d="m 162.2,27.8 h 1.8 l 4.8,11.1 h -2 l -1.1,-2.7 h -5.2 l -1.1,2.7 h -2 z m 2.8,6.7 -1.9,-4.4 -1.9,4.4 z"
   class="st2"
   inkscape:connector-curvature="0"
   style="fill:#ffffff" />

	<path
   id="path1741"
   d="m 173.8,29.7 h -3.5 v -1.8 h 8.9 v 1.8 h -3.5 v 9.2 h -2 v -9.2 z"
   class="st2"
   inkscape:connector-curvature="0"
   style="fill:#ffffff" />

	<path
   id="path1743"
   d="m 181.6,27.9 h 8.2 v 1.7 h -6.2 v 2.8 h 5.5 v 1.7 h -5.5 V 37 h 6.3 v 1.7 h -8.2 V 27.9 Z"
   class="st2"
   inkscape:connector-curvature="0"
   style="fill:#ffffff" />

	<path
   id="path1745"
   d="m 197.5,27.9 h 8.2 v 1.7 h -6.3 v 3 h 5.6 v 1.7 h -5.6 v 4.5 h -1.9 z"
   class="st2"
   inkscape:connector-curvature="0"
   style="fill:#ffffff" />

	<path
   id="path1747"
   d="m 213.4,39.1 c -0.9,0 -1.6,-0.1 -2.3,-0.4 -0.7,-0.3 -1.3,-0.7 -1.8,-1.2 -0.5,-0.5 -0.9,-1.1 -1.2,-1.8 -0.3,-0.7 -0.4,-1.4 -0.4,-2.2 v 0 c 0,-0.8 0.1,-1.5 0.4,-2.2 0.3,-0.7 0.7,-1.3 1.2,-1.8 0.5,-0.5 1.1,-0.9 1.8,-1.2 0.7,-0.3 1.5,-0.5 2.3,-0.5 0.8,0 1.6,0.1 2.3,0.4 0.7,0.3 1.3,0.7 1.8,1.2 0.5,0.5 0.9,1.1 1.2,1.8 0.3,0.7 0.4,1.4 0.4,2.2 v 0 c 0,0.8 -0.1,1.5 -0.4,2.2 -0.3,0.7 -0.7,1.3 -1.2,1.8 -0.5,0.5 -1.1,0.9 -1.8,1.2 -0.7,0.3 -1.4,0.5 -2.3,0.5 z m 0,-1.8 c 0.5,0 1,-0.1 1.5,-0.3 0.5,-0.2 0.8,-0.5 1.2,-0.8 0.3,-0.4 0.6,-0.8 0.8,-1.2 0.2,-0.5 0.3,-1 0.3,-1.5 v 0 c 0,-0.5 -0.1,-1 -0.3,-1.5 -0.2,-0.5 -0.4,-0.9 -0.8,-1.2 -0.3,-0.4 -0.7,-0.6 -1.2,-0.8 -0.5,-0.2 -1,-0.3 -1.5,-0.3 -0.5,0 -1,0.1 -1.5,0.3 -0.5,0.2 -0.8,0.5 -1.2,0.8 -0.3,0.4 -0.6,0.8 -0.8,1.2 -0.2,0.5 -0.3,1 -0.3,1.5 v 0 c 0,0.5 0.1,1 0.3,1.5 0.2,0.5 0.4,0.9 0.8,1.2 0.3,0.4 0.7,0.6 1.2,0.8 0.5,0.2 1,0.3 1.5,0.3 z"
   class="st2"
   inkscape:connector-curvature="0"
   style="fill:#ffffff" />

	<path
   id="path1749"
   d="m 221.8,27.9 h 4.9 c 0.7,0 1.3,0.1 1.8,0.3 0.5,0.2 1,0.5 1.3,0.8 0.3,0.3 0.5,0.7 0.7,1.1 0.2,0.4 0.2,0.8 0.2,1.3 v 0 c 0,0.5 -0.1,0.9 -0.2,1.2 -0.1,0.4 -0.3,0.7 -0.5,1 -0.2,0.3 -0.5,0.5 -0.8,0.7 -0.3,0.2 -0.7,0.3 -1.1,0.4 l 3,4.2 h -2.3 l -2.7,-3.8 v 0 h -2.4 v 3.8 h -1.9 z m 4.8,5.4 c 0.7,0 1.2,-0.2 1.7,-0.5 0.4,-0.3 0.6,-0.8 0.6,-1.4 v 0 c 0,-0.6 -0.2,-1.1 -0.6,-1.4 -0.4,-0.3 -1,-0.5 -1.7,-0.5 h -2.8 v 3.7 h 2.8 z"
   class="st2"
   inkscape:connector-curvature="0"
   style="fill:#ffffff" />

	<path
   id="path1751"
   d="m 102.1,44.8 h 1.8 l 5.9,7.6 v -7.6 h 1.9 v 11 h -1.6 L 104,48 v 7.8 h -1.9 z"
   class="st2"
   inkscape:connector-curvature="0"
   style="fill:#ffffff" />

	<path
   id="path1753"
   d="m 120.1,56 c -0.9,0 -1.6,-0.1 -2.3,-0.4 -0.7,-0.3 -1.3,-0.7 -1.8,-1.2 -0.5,-0.5 -0.9,-1.1 -1.2,-1.8 -0.3,-0.7 -0.4,-1.4 -0.4,-2.2 v 0 c 0,-0.8 0.1,-1.5 0.4,-2.2 0.3,-0.7 0.7,-1.3 1.2,-1.8 0.5,-0.5 1.1,-0.9 1.8,-1.2 0.7,-0.3 1.5,-0.5 2.3,-0.5 0.8,0 1.6,0.1 2.3,0.4 0.7,0.3 1.3,0.7 1.8,1.2 0.5,0.5 0.9,1.1 1.2,1.8 0.3,0.7 0.4,1.4 0.4,2.2 v 0 c 0,0.8 -0.1,1.5 -0.4,2.2 -0.3,0.7 -0.7,1.3 -1.2,1.8 -0.5,0.5 -1.1,0.9 -1.8,1.2 -0.7,0.3 -1.5,0.5 -2.3,0.5 z m 0,-1.8 c 0.5,0 1,-0.1 1.5,-0.3 0.5,-0.2 0.8,-0.5 1.2,-0.8 0.3,-0.4 0.6,-0.8 0.8,-1.2 0.2,-0.5 0.3,-1 0.3,-1.5 v 0 c 0,-0.5 -0.1,-1 -0.3,-1.5 -0.2,-0.5 -0.4,-0.9 -0.8,-1.2 -0.3,-0.4 -0.7,-0.6 -1.2,-0.8 -0.5,-0.2 -1,-0.3 -1.5,-0.3 -0.5,0 -1,0.1 -1.5,0.3 -0.5,0.2 -0.8,0.5 -1.2,0.8 -0.3,0.4 -0.6,0.8 -0.8,1.2 -0.2,0.5 -0.3,1 -0.3,1.5 v 0 c 0,0.5 0.1,1 0.3,1.5 0.2,0.5 0.4,0.9 0.8,1.2 0.3,0.4 0.7,0.6 1.2,0.8 0.5,0.2 1,0.3 1.5,0.3 z"
   class="st2"
   inkscape:connector-curvature="0"
   style="fill:#ffffff" />

	<path
   id="path1755"
   d="m 128.5,44.8 h 1.8 l 5.9,7.6 v -7.6 h 1.9 v 11 h -1.6 L 130.4,48 v 7.8 h -1.9 z"
   class="st2"
   inkscape:connector-curvature="0"
   style="fill:#ffffff" />

	<path
   id="path1757"
   d="m 146.3,44.8 h 4.3 c 0.6,0 1.2,0.1 1.7,0.3 0.5,0.2 1,0.4 1.3,0.7 0.4,0.3 0.6,0.7 0.8,1.2 0.2,0.5 0.3,1 0.3,1.5 v 0 c 0,0.6 -0.1,1.2 -0.3,1.6 -0.2,0.5 -0.5,0.9 -0.9,1.2 -0.4,0.3 -0.9,0.6 -1.4,0.7 -0.5,0.2 -1.1,0.2 -1.7,0.2 h -2.2 v 3.5 h -1.9 z m 4.2,5.7 c 0.7,0 1.3,-0.2 1.7,-0.6 0.4,-0.4 0.6,-0.8 0.6,-1.4 v 0 c 0,-0.7 -0.2,-1.1 -0.6,-1.5 -0.4,-0.3 -1,-0.5 -1.7,-0.5 h -2.3 v 4 z"
   class="st2"
   inkscape:connector-curvature="0"
   style="fill:#ffffff" />

	<path
   id="path1759"
   d="m 157.2,44.8 h 4.9 c 0.7,0 1.3,0.1 1.8,0.3 0.5,0.2 1,0.5 1.3,0.8 0.3,0.3 0.5,0.7 0.7,1.1 0.2,0.4 0.2,0.8 0.2,1.3 v 0 c 0,0.5 -0.1,0.9 -0.2,1.2 -0.1,0.4 -0.3,0.7 -0.5,1 -0.2,0.3 -0.5,0.5 -0.8,0.7 -0.3,0.2 -0.7,0.3 -1.1,0.4 l 3,4.2 h -2.3 L 161.5,52 v 0 h -2.4 v 3.8 h -1.9 z m 4.7,5.4 c 0.7,0 1.2,-0.2 1.7,-0.5 0.4,-0.3 0.6,-0.8 0.6,-1.4 v 0 c 0,-0.6 -0.2,-1.1 -0.6,-1.4 -0.4,-0.3 -1,-0.5 -1.7,-0.5 h -2.8 v 3.7 h 2.8 z"
   class="st2"
   inkscape:connector-curvature="0"
   style="fill:#ffffff" />

	<path
   id="path1761"
   d="m 174.1,56 c -0.9,0 -1.6,-0.1 -2.3,-0.4 -0.7,-0.3 -1.3,-0.7 -1.8,-1.2 -0.5,-0.5 -0.9,-1.1 -1.2,-1.8 -0.3,-0.7 -0.4,-1.4 -0.4,-2.2 v 0 c 0,-0.8 0.1,-1.5 0.4,-2.2 0.3,-0.7 0.7,-1.3 1.2,-1.8 0.5,-0.5 1.1,-0.9 1.8,-1.2 0.7,-0.3 1.5,-0.5 2.3,-0.5 0.8,0 1.6,0.1 2.3,0.4 0.7,0.3 1.3,0.7 1.8,1.2 0.5,0.5 0.9,1.1 1.2,1.8 0.3,0.7 0.4,1.4 0.4,2.2 v 0 c 0,0.8 -0.1,1.5 -0.4,2.2 -0.3,0.7 -0.7,1.3 -1.2,1.8 -0.5,0.5 -1.1,0.9 -1.8,1.2 -0.7,0.3 -1.4,0.5 -2.3,0.5 z m 0,-1.8 c 0.5,0 1,-0.1 1.5,-0.3 0.5,-0.2 0.8,-0.5 1.2,-0.8 0.3,-0.4 0.6,-0.8 0.8,-1.2 0.2,-0.5 0.3,-1 0.3,-1.5 v 0 c 0,-0.5 -0.1,-1 -0.3,-1.5 -0.2,-0.5 -0.4,-0.9 -0.8,-1.2 -0.3,-0.4 -0.7,-0.6 -1.2,-0.8 -0.5,-0.2 -1,-0.3 -1.5,-0.3 -0.5,0 -1,0.1 -1.5,0.3 -0.5,0.2 -0.8,0.5 -1.2,0.8 -0.3,0.4 -0.6,0.8 -0.8,1.2 -0.2,0.5 -0.3,1 -0.3,1.5 v 0 c 0,0.5 0.1,1 0.3,1.5 0.2,0.5 0.4,0.9 0.8,1.2 0.3,0.4 0.7,0.6 1.2,0.8 0.5,0.2 1,0.3 1.5,0.3 z"
   class="st2"
   inkscape:connector-curvature="0"
   style="fill:#ffffff" />

	<path
   id="path1763"
   d="m 182.6,44.8 h 8.2 v 1.7 h -6.3 v 3 h 5.6 v 1.7 h -5.6 v 4.5 h -1.9 z"
   class="st2"
   inkscape:connector-curvature="0"
   style="fill:#ffffff" />

	<path
   id="path1765"
   d="m 193.3,44.8 h 1.9 v 11 h -1.9 z"
   class="st2"
   inkscape:connector-curvature="0"
   style="fill:#ffffff" />

	<path
   id="path1767"
   d="m 201.2,46.6 h -3.5 v -1.8 h 8.9 v 1.8 h -3.5 v 9.2 h -2 v -9.2 z"
   class="st2"
   inkscape:connector-curvature="0"
   style="fill:#ffffff" />

	<path
   id="path1769"
   d="m 107.3,72.9 c -0.9,0 -1.6,-0.1 -2.3,-0.4 -0.7,-0.3 -1.3,-0.7 -1.8,-1.2 -0.5,-0.5 -0.9,-1.1 -1.2,-1.8 -0.3,-0.7 -0.4,-1.4 -0.4,-2.2 v 0 c 0,-0.8 0.1,-1.5 0.4,-2.2 0.3,-0.7 0.7,-1.3 1.2,-1.8 0.5,-0.5 1.1,-0.9 1.8,-1.2 0.7,-0.3 1.5,-0.5 2.3,-0.5 0.8,0 1.6,0.1 2.3,0.4 0.7,0.3 1.3,0.7 1.8,1.2 0.5,0.5 0.9,1.1 1.2,1.8 0.3,0.7 0.4,1.4 0.4,2.2 v 0 c 0,0.8 -0.1,1.5 -0.4,2.2 -0.3,0.7 -0.7,1.3 -1.2,1.8 -0.5,0.5 -1.1,0.9 -1.8,1.2 -0.7,0.3 -1.4,0.5 -2.3,0.5 z m 0.1,-1.8 c 0.5,0 1,-0.1 1.5,-0.3 0.5,-0.2 0.8,-0.5 1.2,-0.8 0.3,-0.4 0.6,-0.8 0.8,-1.2 0.2,-0.5 0.3,-1 0.3,-1.5 v 0 c 0,-0.5 -0.1,-1 -0.3,-1.5 -0.2,-0.5 -0.4,-0.9 -0.8,-1.2 -0.3,-0.4 -0.7,-0.6 -1.2,-0.8 -0.5,-0.2 -1,-0.3 -1.5,-0.3 -0.5,0 -1,0.1 -1.5,0.3 -0.5,0.2 -0.8,0.5 -1.2,0.8 -0.3,0.4 -0.6,0.8 -0.8,1.2 -0.2,0.5 -0.3,1 -0.3,1.5 v 0 c 0,0.5 0.1,1 0.3,1.5 0.2,0.5 0.4,0.9 0.8,1.2 0.3,0.4 0.7,0.6 1.2,0.8 0.4,0.2 0.9,0.3 1.5,0.3 z"
   class="st2"
   inkscape:connector-curvature="0"
   style="fill:#ffffff" />

	<path
   id="path1771"
   d="m 115.8,61.7 h 4.9 c 0.7,0 1.3,0.1 1.8,0.3 0.5,0.2 1,0.5 1.3,0.8 0.3,0.3 0.5,0.7 0.7,1.1 0.2,0.4 0.2,0.8 0.2,1.3 v 0 c 0,0.5 -0.1,0.9 -0.2,1.2 -0.1,0.4 -0.3,0.7 -0.5,1 -0.2,0.3 -0.5,0.5 -0.8,0.7 -0.3,0.2 -0.7,0.3 -1.1,0.4 l 3,4.2 h -2.3 l -2.7,-3.8 v 0 h -2.4 v 3.8 h -1.9 z m 4.7,5.4 c 0.7,0 1.2,-0.2 1.7,-0.5 0.4,-0.3 0.6,-0.8 0.6,-1.4 v 0 c 0,-0.6 -0.2,-1.1 -0.6,-1.4 -0.4,-0.3 -1,-0.5 -1.7,-0.5 h -2.8 V 67 h 2.8 z"
   class="st2"
   inkscape:connector-curvature="0"
   style="fill:#ffffff" />

	<path
   id="path1773"
   d="m 132.7,72.9 c -0.9,0 -1.6,-0.1 -2.3,-0.4 -0.7,-0.3 -1.3,-0.7 -1.8,-1.2 -0.5,-0.5 -0.9,-1.1 -1.2,-1.8 -0.3,-0.7 -0.4,-1.4 -0.4,-2.2 v 0 c 0,-0.8 0.1,-1.5 0.4,-2.2 0.3,-0.7 0.7,-1.3 1.2,-1.8 0.5,-0.5 1.1,-0.9 1.8,-1.2 0.7,-0.3 1.5,-0.5 2.3,-0.5 0.5,0 0.9,0 1.3,0.1 0.4,0.1 0.8,0.2 1.1,0.3 0.3,0.1 0.7,0.3 1,0.5 0.3,0.2 0.6,0.4 0.9,0.6 l -1.2,1.5 c -0.2,-0.2 -0.4,-0.3 -0.6,-0.5 -0.2,-0.1 -0.5,-0.3 -0.7,-0.4 -0.2,-0.1 -0.5,-0.2 -0.8,-0.2 -0.3,-0.1 -0.6,-0.1 -1,-0.1 -0.5,0 -1,0.1 -1.4,0.3 -0.4,0.2 -0.8,0.5 -1.1,0.8 -0.3,0.4 -0.6,0.8 -0.8,1.2 -0.2,0.4 -0.3,1 -0.3,1.5 v 0 c 0,0.6 0.1,1.1 0.3,1.6 0.2,0.5 0.4,0.9 0.8,1.2 0.3,0.3 0.7,0.6 1.2,0.8 0.5,0.2 1,0.3 1.5,0.3 0.5,0 1,-0.1 1.5,-0.2 0.5,-0.2 0.9,-0.4 1.2,-0.6 v -2.1 h -2.8 v -1.7 h 4.7 v 4.6 c -0.3,0.2 -0.6,0.5 -0.9,0.7 -0.3,0.2 -0.7,0.4 -1.1,0.6 -0.4,0.2 -0.8,0.3 -1.2,0.4 -0.6,0 -1.1,0.1 -1.6,0.1 z"
   class="st2"
   inkscape:connector-curvature="0"
   style="fill:#ffffff" />

	<path
   id="path1775"
   d="m 144,61.6 h 1.8 l 4.8,11.1 h -2 L 147.5,70 h -5.2 l -1.1,2.7 h -2 z m 2.8,6.7 -1.9,-4.4 -1.9,4.4 z"
   class="st2"
   inkscape:connector-curvature="0"
   style="fill:#ffffff" />

	<path
   id="path1777"
   d="m 152.9,61.7 h 1.8 l 5.9,7.6 v -7.6 h 1.9 v 11 h -1.6 l -6.1,-7.8 v 7.8 h -1.9 z"
   class="st2"
   inkscape:connector-curvature="0"
   style="fill:#ffffff" />

	<path
   id="path1779"
   d="m 165.8,61.7 h 1.9 v 11 h -1.9 z"
   class="st2"
   inkscape:connector-curvature="0"
   style="fill:#ffffff" />

	<path
   id="path1781"
   d="m 170.6,71.2 6.5,-7.9 h -6.3 v -1.7 h 8.8 V 63 l -6.5,7.9 h 6.5 v 1.7 h -9 z"
   class="st2"
   inkscape:connector-curvature="0"
   style="fill:#ffffff" />

	<path
   id="path1783"
   d="m 186.2,61.6 h 1.8 l 4.8,11.1 h -2 L 189.7,70 h -5.2 l -1.1,2.7 h -2 z m 2.8,6.7 -1.9,-4.4 -1.9,4.4 z"
   class="st2"
   inkscape:connector-curvature="0"
   style="fill:#ffffff" />

	<path
   id="path1785"
   d="m 197.8,63.4 h -3.5 v -1.8 h 8.9 v 1.8 h -3.5 v 9.2 h -2 v -9.2 z"
   class="st2"
   inkscape:connector-curvature="0"
   style="fill:#ffffff" />

	<path
   id="path1787"
   d="m 205.7,61.7 h 1.9 v 11 h -1.9 z"
   class="st2"
   inkscape:connector-curvature="0"
   style="fill:#ffffff" />

	<path
   id="path1789"
   d="m 216.1,72.9 c -0.9,0 -1.6,-0.1 -2.3,-0.4 -0.7,-0.3 -1.3,-0.7 -1.8,-1.2 -0.5,-0.5 -0.9,-1.1 -1.2,-1.8 -0.3,-0.7 -0.4,-1.4 -0.4,-2.2 v 0 c 0,-0.8 0.1,-1.5 0.4,-2.2 0.3,-0.7 0.7,-1.3 1.2,-1.8 0.5,-0.5 1.1,-0.9 1.8,-1.2 0.7,-0.3 1.5,-0.5 2.3,-0.5 0.8,0 1.6,0.1 2.3,0.4 0.7,0.3 1.3,0.7 1.8,1.2 0.5,0.5 0.9,1.1 1.2,1.8 0.3,0.7 0.4,1.4 0.4,2.2 v 0 c 0,0.8 -0.1,1.5 -0.4,2.2 -0.3,0.7 -0.7,1.3 -1.2,1.8 -0.5,0.5 -1.1,0.9 -1.8,1.2 -0.7,0.3 -1.4,0.5 -2.3,0.5 z m 0.1,-1.8 c 0.5,0 1,-0.1 1.5,-0.3 0.5,-0.2 0.8,-0.5 1.2,-0.8 0.3,-0.4 0.6,-0.8 0.8,-1.2 0.2,-0.5 0.3,-1 0.3,-1.5 v 0 c 0,-0.5 -0.1,-1 -0.3,-1.5 -0.2,-0.5 -0.4,-0.9 -0.8,-1.2 -0.3,-0.4 -0.7,-0.6 -1.2,-0.8 -0.5,-0.2 -1,-0.3 -1.5,-0.3 -0.5,0 -1,0.1 -1.5,0.3 -0.5,0.2 -0.8,0.5 -1.2,0.8 -0.3,0.4 -0.6,0.8 -0.8,1.2 -0.2,0.5 -0.3,1 -0.3,1.5 v 0 c 0,0.5 0.1,1 0.3,1.5 0.2,0.5 0.4,0.9 0.8,1.2 0.3,0.4 0.7,0.6 1.2,0.8 0.4,0.2 0.9,0.3 1.5,0.3 z"
   class="st2"
   inkscape:connector-curvature="0"
   style="fill:#ffffff" />

	<path
   id="path1791"
   d="m 224.6,61.7 h 1.8 l 5.9,7.6 v -7.6 h 1.9 v 11 h -1.6 l -6.1,-7.8 v 7.8 h -1.9 z"
   class="st2"
   inkscape:connector-curvature="0"
   style="fill:#ffffff" />

</g>
    </g>
    <rect
       style="fill:#333333;fill-rule:evenodd;stroke-width:0.2322787"
       id="rect1933"
       width="209.44975"
       height="76.163544"
       x="352.56528"
       y="1652.2336"
       ry="0.066323474" />
    <g
       aria-label="regenerativ"
       style="font-style:normal;font-variant:normal;font-weight:normal;font-stretch:normal;font-size:30.06212234px;line-height:3;font-family:'Lucida Sans';-inkscape-font-specification:'Lucida Sans';letter-spacing:0px;word-spacing:0px;fill:#ffffff;fill-opacity:1;stroke:none;stroke-width:0.75155306"
       id="text1908"
       transform="matrix(0.70361839,0,0,0.70361839,76.291421,572.22735)">
      <path
         d="m 364.3887,1695.0648 v -15.9411 h 2.89171 v 2.9944 q 0.82202,-1.5999 2.12843,-2.466 1.32109,-0.8807 2.86236,-0.8807 0.44036,0 0.92476,0.073 v 2.7009 q -0.73394,-0.2496 -1.32109,-0.2496 -1.36513,0 -2.52475,0.822 -1.14494,0.8074 -2.06971,2.4367 v 10.51 z"
         style="fill:#ffffff;fill-opacity:1;stroke-width:0.75155306"
         id="path1910"
         inkscape:connector-curvature="0" />
      <path
         d="m 388.40317,1694.5511 q -2.9064,0.8807 -4.97611,0.8807 -3.71373,0 -5.84215,-2.4954 -2.12842,-2.5101 -2.12842,-5.9155 0,-2.2459 0.93944,-4.2716 0.93944,-2.0256 2.45136,-3.0091 1.52659,-0.9835 3.58162,-0.9835 2.75961,0 4.40363,1.9816 1.64402,1.9817 1.64402,5.9303 l -0.0147,0.8807 H 378.4069 q 0.23486,2.1137 0.91009,3.2587 0.67522,1.1449 1.79081,1.7908 1.13026,0.6312 2.86236,0.6312 0.88072,0 1.74677,-0.1468 0.88073,-0.1615 2.68622,-0.822 z m -9.86414,-9.1743 h 7.03113 q 0,-2.3926 -0.93944,-3.4201 -0.92476,-1.0275 -2.37796,-1.0275 -1.6587,0 -2.59814,1.1155 -0.92476,1.101 -1.11559,3.3321 z"
         style="fill:#ffffff;fill-opacity:1;stroke-width:0.75155306"
         id="path1912"
         inkscape:connector-curvature="0" />
      <path
         d="m 393.51138,1700.3639 0.33761,-2.5101 q 2.51007,1.189 4.96142,1.189 2.74493,0 3.80181,-1.4092 1.07155,-1.3945 1.07155,-3.7724 v -2.5101 q -0.63119,1.3211 -1.96696,2.3339 -1.33577,1.0129 -3.25869,1.0129 -3.27336,0 -4.7706,-2.3487 -1.49723,-2.3632 -1.49723,-5.3577 0,-2.2752 0.88073,-4.2422 0.88072,-1.9816 2.43667,-2.9798 1.57063,-0.9981 3.58162,-0.9981 0.89541,0 1.6587,0.2055 0.77798,0.2055 1.43852,0.6165 0.67523,0.411 1.49724,1.3504 v -1.8201 h 2.90639 v 11.5962 q 0,5.0642 -0.85137,6.9284 -0.83669,1.8642 -2.64217,2.7156 -1.79081,0.8513 -4.27153,0.8513 -0.80733,0 -1.74677,-0.088 -0.92476,-0.088 -1.6587,-0.2349 -0.71926,-0.1321 -1.90824,-0.5284 z m 10.17239,-10.8183 v -6.6201 q -0.95412,-0.9982 -1.99632,-1.4826 -1.02751,-0.4991 -2.15778,-0.4991 -1.92291,0 -3.09722,1.556 -1.15962,1.5413 -1.15962,4.477 0,2.3046 0.86605,3.7578 0.86605,1.4385 2.81832,1.4385 1.26238,0 2.43668,-0.6605 1.18898,-0.6606 2.28989,-1.967 z"
         style="fill:#ffffff;fill-opacity:1;stroke-width:0.75155306"
         id="path1914"
         inkscape:connector-curvature="0" />
      <path
         d="m 423.86708,1694.5511 q -2.9064,0.8807 -4.97611,0.8807 -3.71373,0 -5.84215,-2.4954 -2.12842,-2.5101 -2.12842,-5.9155 0,-2.2459 0.93944,-4.2716 0.93944,-2.0256 2.45136,-3.0091 1.52659,-0.9835 3.58162,-0.9835 2.75961,0 4.40363,1.9816 1.64402,1.9817 1.64402,5.9303 l -0.0147,0.8807 h -10.05496 q 0.23486,2.1137 0.91009,3.2587 0.67522,1.1449 1.79081,1.7908 1.13026,0.6312 2.86236,0.6312 0.88072,0 1.74677,-0.1468 0.88073,-0.1615 2.68622,-0.822 z m -9.86414,-9.1743 h 7.03113 q 0,-2.3926 -0.93944,-3.4201 -0.92476,-1.0275 -2.37796,-1.0275 -1.6587,0 -2.59814,1.1155 -0.92476,1.101 -1.11559,3.3321 z"
         style="fill:#ffffff;fill-opacity:1;stroke-width:0.75155306"
         id="path1916"
         inkscape:connector-curvature="0" />
      <path
         d="m 428.91657,1695.0648 v -15.9411 h 2.89172 v 2.9944 q 1.10091,-1.5999 2.55411,-2.466 1.46788,-0.8807 3.0385,-0.8807 2.02567,0 3.28805,1.2917 1.26237,1.2771 1.26237,3.5523 v 11.4494 h -2.89172 v -10.51 q 0,-1.6587 -0.29357,-2.1871 -0.29358,-0.5285 -0.82201,-0.8073 -0.52844,-0.2936 -1.13027,-0.2936 -1.07155,0 -2.31924,0.6605 -1.23302,0.6606 -2.68622,2.8183 v 10.3192 z"
         style="fill:#ffffff;fill-opacity:1;stroke-width:0.75155306"
         id="path1918"
         inkscape:connector-curvature="0" />
      <path
         d="m 459.27227,1694.5511 q -2.9064,0.8807 -4.9761,0.8807 -3.71373,0 -5.84215,-2.4954 -2.12843,-2.5101 -2.12843,-5.9155 0,-2.2459 0.93945,-4.2716 0.93944,-2.0256 2.45135,-3.0091 1.52659,-0.9835 3.58162,-0.9835 2.75961,0 4.40363,1.9816 1.64402,1.9817 1.64402,5.9303 l -0.0147,0.8807 H 449.276 q 0.23486,2.1137 0.91008,3.2587 0.67522,1.1449 1.79081,1.7908 1.13027,0.6312 2.86236,0.6312 0.88073,0 1.74678,-0.1468 0.88072,-0.1615 2.68621,-0.822 z m -9.86413,-9.1743 h 7.03113 q 0,-2.3926 -0.93944,-3.4201 -0.92477,-1.0275 -2.37796,-1.0275 -1.65871,0 -2.59815,1.1155 -0.92476,1.101 -1.11558,3.3321 z"
         style="fill:#ffffff;fill-opacity:1;stroke-width:0.75155306"
         id="path1920"
         inkscape:connector-curvature="0" />
      <path
         d="m 464.32177,1695.0648 v -15.9411 h 2.89172 v 2.9944 q 0.82201,-1.5999 2.12842,-2.466 1.32109,-0.8807 2.86236,-0.8807 0.44036,0 0.92476,0.073 v 2.7009 q -0.73393,-0.2496 -1.32109,-0.2496 -1.36512,0 -2.52474,0.822 -1.14495,0.8074 -2.06971,2.4367 v 10.51 z"
         style="fill:#ffffff;fill-opacity:1;stroke-width:0.75155306"
         id="path1922"
         inkscape:connector-curvature="0" />
      <path
         d="m 484.87205,1693.0391 q -1.29173,1.189 -2.5541,1.7909 -1.2477,0.6018 -2.45136,0.6018 -1.68806,0 -3.14125,-1.1156 -1.4532,-1.1156 -1.4532,-3.2587 0,-2.3486 2.02567,-3.8752 2.02567,-1.5413 6.47333,-1.5413 h 0.67523 v -1.9229 q 0,-1.1449 -0.30826,-1.6587 -0.30825,-0.5284 -0.96879,-0.822 -0.64587,-0.2936 -1.61467,-0.2936 -2.24585,0 -4.90271,1.4092 v -2.3926 q 2.92108,-1.189 5.50454,-1.189 1.40916,0 2.58346,0.455 1.18898,0.4404 1.89357,1.4092 0.70458,0.9541 0.70458,3.0825 v 7.222 q 0,1.2036 0.19082,1.6293 0.19082,0.411 0.52844,0.6312 0.35229,0.2202 0.80733,0.2202 0.19082,0 0.55779,-0.059 l 0.2055,1.6 q -0.98347,0.4697 -2.17245,0.4697 -0.79266,0 -1.5266,-0.5138 -0.73393,-0.5137 -1.05687,-1.8789 z m -0.42568,-1.5706 v -4.1247 l -0.92476,-0.029 q -2.27521,0 -3.81648,0.8808 -1.54128,0.8807 -1.54128,2.3926 0,1.0422 0.74862,1.7614 0.7633,0.7193 1.77613,0.7193 0.91009,0 1.84953,-0.3963 0.93944,-0.411 1.90824,-1.2037 z"
         style="fill:#ffffff;fill-opacity:1;stroke-width:0.75155306"
         id="path1924"
         inkscape:connector-curvature="0" />
      <path
         d="m 500.37283,1695.0648 q -1.33577,0.367 -2.31925,0.367 -2.1431,0 -3.40547,-1.233 -1.26238,-1.2477 -1.26238,-3.5376 v -9.3651 h -1.99631 v -2.1724 h 1.99631 v -2.8917 l 2.89172,-0.2789 v 3.1706 h 4.16877 v 2.1724 h -4.16877 v 8.8367 q 0,1.6733 0.64587,2.4073 0.64586,0.7192 2.05503,0.7192 0.57247,0 1.39448,-0.1908 z"
         style="fill:#ffffff;fill-opacity:1;stroke-width:0.75155306"
         id="path1926"
         inkscape:connector-curvature="0" />
      <path
         d="m 504.5416,1695.0648 v -15.9411 h 2.89172 v 15.9411 z m 0,-18.8328 v -2.8918 h 2.89172 v 2.8918 z"
         style="fill:#ffffff;fill-opacity:1;stroke-width:0.75155306"
         id="path1928"
         inkscape:connector-curvature="0" />
      <path
         d="m 516.53416,1695.0648 -5.93022,-15.9411 h 2.89172 l 4.63849,12.4035 4.88803,-12.4035 h 2.70089 l -6.29719,15.9411 z"
         style="fill:#ffffff;fill-opacity:1;stroke-width:0.75155306"
         id="path1930"
         inkscape:connector-curvature="0" />
    </g>
  </g>
  <style
     id="style1709"
     type="text/css">
	.st0{fill-rule:evenodd;clip-rule:evenodd;fill:#FFFFFF;}
	.st1{opacity:0.7;}
	.st2{fill:#FFFFFF;}
</style>
</svg>
