<?xml version="1.0" encoding="UTF-8" standalone="no"?>
<svg
   xmlns:dc="http://purl.org/dc/elements/1.1/"
   xmlns:cc="http://creativecommons.org/ns#"
   xmlns:rdf="http://www.w3.org/1999/02/22-rdf-syntax-ns#"
   xmlns:svg="http://www.w3.org/2000/svg"
   xmlns="http://www.w3.org/2000/svg"
   xmlns:xlink="http://www.w3.org/1999/xlink"
   xmlns:sodipodi="http://sodipodi.sourceforge.net/DTD/sodipodi-0.dtd"
   xmlns:inkscape="http://www.inkscape.org/namespaces/inkscape"
   id="e7d73eaa-25fa-486a-81c6-86c739fe4253"
   data-name="Layer 1"
   width="888"
   height="771.5132"
   viewBox="0 0 888 771.5132"
   version="1.1"
   sodipodi:docname="the_cost_falling.svg"
   inkscape:version="0.92.4 (5da689c313, 2019-01-14)">
  <metadata
     id="metadata59">
    <rdf:RDF>
      <cc:Work
         rdf:about="">
        <dc:format>image/svg+xml</dc:format>
        <dc:type
           rdf:resource="http://purl.org/dc/dcmitype/StillImage" />
        <dc:title />
      </cc:Work>
    </rdf:RDF>
  </metadata>
  <defs
     id="defs57">
    <linearGradient
       gradientUnits="userSpaceOnUse"
       y2="321.58"
       x2="316.9"
       y1="512.48"
       x1="316.9"
       id="a17f7adb-619f-4eca-9f9e-ffa615402df6">
      <stop
         id="stop2"
         stop-opacity="0.25"
         stop-color="gray"
         offset="0" />
      <stop
         id="stop4"
         stop-opacity="0.12"
         stop-color="gray"
         offset="0.54" />
      <stop
         id="stop6"
         stop-opacity="0.1"
         stop-color="gray"
         offset="1" />
    </linearGradient>
    <linearGradient
       xlink:href="#a17f7adb-619f-4eca-9f9e-ffa615402df6"
       y2="709.84"
       x2="622.29"
       y1="709.84"
       x1="552.73"
       id="afa9d3b0-698e-4c8c-85f1-7e162fccf1ba" />
  </defs>
  <sodipodi:namedview
     pagecolor="#ffffff"
     bordercolor="#666666"
     borderopacity="1"
     objecttolerance="10"
     gridtolerance="10"
     guidetolerance="10"
     inkscape:pageopacity="0"
     inkscape:pageshadow="2"
     inkscape:window-width="1920"
     inkscape:window-height="1001"
     id="namedview55"
     showgrid="false"
     inkscape:zoom="0.5401414"
     inkscape:cx="195.16143"
     inkscape:cy="189.68428"
     inkscape:window-x="-9"
     inkscape:window-y="-9"
     inkscape:window-maximized="1"
     inkscape:current-layer="e7d73eaa-25fa-486a-81c6-86c739fe4253" />
  <rect
     style="fill:#10cc00;fill-rule:evenodd;stroke-width:0.91130722"
     id="rect916"
     width="901.46204"
     height="795.77338"
     x="-1133.9565"
     y="434.20862" />
  <path
     style="fill:#ffffff;fill-opacity:1;stroke:#ffffff;stroke-width:0.77575427px;stroke-linecap:butt;stroke-linejoin:miter;stroke-opacity:1"
     d="M 291.31248,600.5186 C 185.51546,612.00724 118.73525,556.84611 118.73525,556.84611 53.994218,648.4226 60.578112,748.72065 60.578112,748.72065 40.826535,605.90494 88.010702,514.32845 88.010702,514.32845 17.783221,427.11274 62.772708,327.90488 62.772708,327.90488 93.483653,226.3493 219.13598,176.15439 219.13598,176.15439 c 25.43105,-12.23198 53.42572,-20.42372 84.36137,-27.08268 l 0.0499,61.73768 c -47.52865,7.69936 -75.04991,40.01904 -75.04991,82.61431 0,44.64451 26.6373,68.29878 79.32249,88.79134 38.24687,15.39871 58.37214,32.84665 58.37214,61.06783 0,29.2751 -24.66306,50.29461 -61.34822,50.29461 -28.90609,0 -61.67233,-9.7486 -80.26534,-22.07342 l -12.4052,34.36896 c 18.09215,12.85176 49.09036,22.07342 79.02774,22.60037 l 0.11151,72.04521"
     id="path913"
     inkscape:connector-curvature="0"
     sodipodi:nodetypes="ccccccccscsscccc" />
  <path
     sodipodi:nodetypes="ccccccccscscc"
     inkscape:connector-curvature="0"
     id="path920"
     d="m 352.2019,637.81569 c 36.84304,-0.17699 149.6102,-9.55304 307.52641,-111.75579 0,0 188.53052,-122.3236 235.19556,-269.08145 -174.93531,9.04822 -293.23267,-23.41096 -390.37975,-40.1853 l -24.15598,60.17671 c 28.69988,11.68263 45.66049,26.68475 56.65307,40.07816 l -23.98514,27.25052 c -13.23802,-17.44834 -31.34634,-30.64573 -52.07325,-37.95111 -37.29052,-13.75934 -54.07687,5.2485 -61.26812,24.48648 -9.34555,25.00113 -1.64858,42.08147 33.98223,74.99623 42.33598,38.60542 63.66894,74.95743 47.66558,117.76947 -14.20808,38.0094 -54.1416,63.7786 -107.05744,53.56004 l -22.10317,60.65604"
     style="fill:#ffffff;fill-opacity:1;stroke:#ffffff;stroke-width:0.7752679;stroke-linecap:butt;stroke-linejoin:miter;stroke-miterlimit:4;stroke-dasharray:none;stroke-opacity:1"
     inkscape:transform-center-x="-260.12717"
     inkscape:transform-center-y="-130.4654" />
</svg>
