<?xml version="1.0" encoding="UTF-8" standalone="no"?>
<!-- Generator: Adobe Illustrator 21.0.2, SVG Export Plug-In . SVG Version: 6.00 Build 0)  -->

<svg
   xmlns:dc="http://purl.org/dc/elements/1.1/"
   xmlns:cc="http://creativecommons.org/ns#"
   xmlns:rdf="http://www.w3.org/1999/02/22-rdf-syntax-ns#"
   xmlns:svg="http://www.w3.org/2000/svg"
   xmlns="http://www.w3.org/2000/svg"
   xmlns:sodipodi="http://sodipodi.sourceforge.net/DTD/sodipodi-0.dtd"
   xmlns:inkscape="http://www.inkscape.org/namespaces/inkscape"
   version="1.1"
   id="Layer_1"
   x="0px"
   y="0px"
   viewBox="0 0 565.6 457.1"
   style="enable-background:new 0 0 565.6 457.1;"
   xml:space="preserve"
   sodipodi:docname="green_leaf.svg"
   inkscape:version="0.92.4 (5da689c313, 2019-01-14)"><metadata
   id="metadata1957"><rdf:RDF><cc:Work
       rdf:about=""><dc:format>image/svg+xml</dc:format><dc:type
         rdf:resource="http://purl.org/dc/dcmitype/StillImage" /><dc:title></dc:title></cc:Work></rdf:RDF></metadata><defs
   id="defs1955"><linearGradient
     gradientUnits="userSpaceOnUse"
     y2="1477.9301"
     x2="1307.98"
     y1="1475.95"
     x1="1307.98"
     id="paint0_linear"><stop
       id="stop1269"
       stop-color="white" /><stop
       id="stop1271"
       stop-opacity="0"
       stop-color="white"
       offset="1" /></linearGradient><linearGradient
     gradientUnits="userSpaceOnUse"
     y2="1436.9301"
     x2="1353.85"
     y1="1374.6801"
     x1="1353.85"
     id="paint1_linear"><stop
       id="stop1274"
       stop-color="white" /><stop
       id="stop1276"
       stop-opacity="0"
       stop-color="white"
       offset="1" /></linearGradient><linearGradient
     gradientUnits="userSpaceOnUse"
     y2="1366.9399"
     x2="1382.53"
     y1="1295.17"
     x1="1382.53"
     id="paint2_linear"><stop
       id="stop1279"
       stop-color="white" /><stop
       id="stop1281"
       stop-opacity="0"
       stop-color="white"
       offset="1" /></linearGradient><linearGradient
     gradientUnits="userSpaceOnUse"
     y2="1291.24"
     x2="1403.65"
     y1="1220.35"
     x1="1403.65"
     id="paint3_linear"><stop
       id="stop1284"
       stop-color="white" /><stop
       id="stop1286"
       stop-opacity="0"
       stop-color="white"
       offset="1" /></linearGradient><linearGradient
     gradientUnits="userSpaceOnUse"
     y2="1237.11"
     x2="1404.12"
     y1="1104.88"
     x1="1404.12"
     id="paint4_linear"><stop
       id="stop1289"
       stop-color="white" /><stop
       id="stop1291"
       stop-opacity="0"
       stop-color="white"
       offset="1" /></linearGradient><linearGradient
     gradientUnits="userSpaceOnUse"
     y2="1134.5699"
     x2="1410.77"
     y1="992.71802"
     x1="1410.77"
     id="paint5_linear"><stop
       id="stop1294"
       stop-color="white" /><stop
       id="stop1296"
       stop-opacity="0"
       stop-color="white"
       offset="1" /></linearGradient><linearGradient
     gradientUnits="userSpaceOnUse"
     y2="1435.25"
     x2="1306.14"
     y1="1326.42"
     x1="1306.14"
     id="paint6_linear"><stop
       id="stop1299"
       stop-color="white" /><stop
       id="stop1301"
       stop-opacity="0"
       stop-color="white"
       offset="1" /></linearGradient><linearGradient
     gradientUnits="userSpaceOnUse"
     y2="1364.75"
     x2="1327.24"
     y1="1258.64"
     x1="1327.24"
     id="paint7_linear"><stop
       id="stop1304"
       stop-color="white" /><stop
       id="stop1306"
       stop-opacity="0"
       stop-color="white"
       offset="1" /></linearGradient><linearGradient
     gradientUnits="userSpaceOnUse"
     y2="1295.17"
     x2="1359.03"
     y1="1192.46"
     x1="1359.03"
     id="paint8_linear"><stop
       id="stop1309"
       stop-color="white" /><stop
       id="stop1311"
       stop-opacity="0"
       stop-color="white"
       offset="1" /></linearGradient><linearGradient
     gradientUnits="userSpaceOnUse"
     y2="1234.38"
     x2="1369.36"
     y1="1093.8199"
     x1="1369.36"
     id="paint9_linear"><stop
       id="stop1314"
       stop-color="white" /><stop
       id="stop1316"
       stop-opacity="0"
       stop-color="white"
       offset="1" /></linearGradient><linearGradient
     gradientUnits="userSpaceOnUse"
     y2="1131.27"
     x2="1371.23"
     y1="1005.55"
     x1="1371.23"
     id="paint10_linear"><stop
       id="stop1319"
       stop-color="white" /><stop
       id="stop1321"
       stop-opacity="0"
       stop-color="white"
       offset="1" /></linearGradient><linearGradient
     gradientUnits="userSpaceOnUse"
     y2="1070.91"
     x2="1360.0699"
     y1="948"
     x1="1360.0699"
     id="paint11_linear"><stop
       id="stop1324"
       stop-color="white" /><stop
       id="stop1326"
       stop-opacity="0"
       stop-color="white"
       offset="1" /></linearGradient><linearGradient
     gradientUnits="userSpaceOnUse"
     y2="1291.9"
     x2="1383.4"
     y1="1063.64"
     x1="1383.4"
     id="paint12_linear"><stop
       id="stop1329"
       stop-color="white" /><stop
       id="stop1331"
       stop-opacity="0"
       stop-color="white"
       offset="1" /></linearGradient><linearGradient
     gradientUnits="userSpaceOnUse"
     y2="1474.15"
     x2="1333.96"
     y1="1282.66"
     x1="1333.96"
     id="paint13_linear"><stop
       id="stop1334"
       stop-color="white" /><stop
       id="stop1336"
       stop-opacity="0"
       stop-color="white"
       offset="1" /></linearGradient></defs><sodipodi:namedview
   pagecolor="#ffffff"
   bordercolor="#666666"
   borderopacity="1"
   objecttolerance="10"
   gridtolerance="10"
   guidetolerance="10"
   inkscape:pageopacity="0"
   inkscape:pageshadow="2"
   inkscape:window-width="1920"
   inkscape:window-height="1001"
   id="namedview1953"
   showgrid="false"
   inkscape:zoom="1.0325968"
   inkscape:cx="182.55822"
   inkscape:cy="352.02715"
   inkscape:window-x="-9"
   inkscape:window-y="-9"
   inkscape:window-maximized="1"
   inkscape:current-layer="Layer_1" />
<style
   type="text/css"
   id="style1948">
	.st0{fill-rule:evenodd;clip-rule:evenodd;fill:#129647;}
</style>
<path
   class="st0"
   d="m 878.36611,-385.62162 v 0 c 23.1,0 42,19 42,42 v 210.6 84.000003 h -84 -38.7 -84 v -84.000003 -210.4 -0.1 -0.2 0 c 0.1,-89 73.1,-161.8 162.2,-161.8 v 0 c 47.5,0 90.4,20.7 120.2,53.6 29.69999,-32.9 72.59999,-53.6 120.09999,-53.6 v 0 c 89.1,0 162,72.8 162.2,161.9 v 0 0.2 0.1 210.3 84.000003 h -84 -38.7 -84 v -84.000003 -210.6 c 0,-23.1 18.9,-42 42,-42 v 0 c 23.1,0 42,19 42,42 v 210.6 h 38.7 v -210.6 0 c 0,-43 -35.2,-78.2 -78.2,-78.2 v 0 c -43,0 -78.2,35.2 -78.2,78.2 v 0.3 294.300003 h -83.99999 c 0,-150.400003 0,-144.200003 0,-294.600003 0,-43 -35.2,-78.2 -78.2,-78.2 v 0 c -43,0 -78.2,35.2 -78.2,78.2 v 0 210.6 h 38.7 v -210.6 c 0.1,-23.1 19,-42 42.1,-42 z m 103.4,308.800003 h 28.59999 V -343.62162 c 0,-58.3 47.6,-105.9 105.9,-105.9 58.3,0 105.9,47.6 105.9,105.9 v 238.3 h -94.2 v -238.3 c 0,-7.8 -6.5,-14.3 -14.3,-14.3 -7.8,0 -14.3,6.5 -14.3,14.3 v 266.900003 h 151.3 V -343.62162 c -0.1,-73.8 -60.7,-134.2 -134.5,-134.2 -38.1,0 -74.1,16.2 -99.6,44.5 l -20.49999,22.7 -20.6,-22.7 c -25.6,-28.2 -61.5,-44.5 -99.6,-44.5 -73.8,0 -134.5,60.4 -134.5,134.2 v 266.900003 h 151.3 V -343.62162 c 0,-7.8 -6.5,-14.3 -14.3,-14.3 -7.8,0 -14.3,6.5 -14.3,14.3 v 238.3 h -94.1 v -238.3 c 0,-58.3 47.6,-105.9 105.9,-105.9 58.3,0 105.9,47.6 105.9,105.9 0,111.9 0,155 0,266.800003 z"
   id="path1950"
   inkscape:connector-curvature="0"
   style="clip-rule:evenodd;fill:#129647;fill-rule:evenodd" />
<style
   type="text/css"
   id="style1709">
	.st0{fill-rule:evenodd;clip-rule:evenodd;fill:#FFFFFF;}
	.st1{opacity:0.7;}
	.st2{fill:#FFFFFF;}
</style><rect
   width="1770"
   height="1748.6637"
   id="rect1081"
   x="-3023.4771"
   y="-1504.2031"
   style="fill:#e5e5e5;stroke-width:1.01841402" /><g
   style="fill:none"
   id="medium_plant_2"
   transform="matrix(1,0,0,1.0371671,1609.5076,-3230.3949)"><g
     id="Vector_5"><mask
       fill="white"
       id="path-6-inside-1"><path
         inkscape:connector-curvature="0"
         id="path1090"
         d="m 1309.03,1475.95 -1.76,1.98 -0.34,-0.29 c 0.7,-0.58 1.4,-1.17 2.1,-1.69 z" /></mask><path
       style="fill:#6c63ff"
       inkscape:connector-curvature="0"
       id="path1093"
       d="m 1309.03,1475.95 -1.76,1.98 -0.34,-0.29 c 0.7,-0.58 1.4,-1.17 2.1,-1.69 z" /><path
       style="fill:#ffffff"
       inkscape:connector-curvature="0"
       id="path1095"
       mask="url(#path-6-inside-1)"
       d="m 1309.03,1475.95 0.75,0.67 -1.35,-1.47 z m -1.76,1.98 -0.65,0.76 0.75,0.64 0.65,-0.73 z m -0.34,-0.29 -0.64,-0.76 -0.91,0.75 0.9,0.77 z m 1.35,-2.35 -1.76,1.98 1.5,1.33 1.76,-1.98 z m -0.36,1.89 -0.34,-0.3 -1.3,1.52 0.34,0.29 z m -0.35,1.23 c 0.71,-0.59 1.38,-1.16 2.05,-1.65 l -1.19,-1.61 c -0.73,0.54 -1.45,1.14 -2.14,1.73 z" /><path
       inkscape:connector-curvature="0"
       style="fill:url(#paint0_linear)"
       id="path1097"
       mask="url(#path-6-inside-1)"
       d="m 1309.03,1475.95 0.75,0.67 -1.35,-1.47 z m -1.76,1.98 -0.65,0.76 0.75,0.64 0.65,-0.73 z m -0.34,-0.29 -0.64,-0.76 -0.91,0.75 0.9,0.77 z m 1.35,-2.35 -1.76,1.98 1.5,1.33 1.76,-1.98 z m -0.36,1.89 -0.34,-0.3 -1.3,1.52 0.34,0.29 z m -0.35,1.23 c 0.71,-0.59 1.38,-1.16 2.05,-1.65 l -1.19,-1.61 c -0.73,0.54 -1.45,1.14 -2.14,1.73 z" /></g><g
     id="Vector_6"><path
       style="fill:#6c63ff"
       inkscape:connector-curvature="0"
       id="path1100"
       d="m 1316.69,1436.42 c -0.88,0 -1.76,-0.03 -2.64,-0.1 l 0.24,-1.06 v 0 -0.01 l 1.33,-6.38 v 0 l 0.99,-4.72 1.09,-0.99 v 0 c 0.84,-0.78 2.1,-1.93 3.74,-3.37 0,0 0,0 0,0 l 2.71,-2.36 v 0 c 7.4,-6.43 19.33,-16.25 32.22,-24.84 12.42,-8.27 25.67,-15.35 36.64,-17.22 l -43.95,52.21 c -10.26,5.48 -21.23,9.03 -32.36,8.84 v 0 z" /><path
       style="stroke:#ffffff"
       inkscape:connector-curvature="0"
       id="path1102"
       d="m 1316.69,1436.42 c -0.88,0 -1.76,-0.03 -2.64,-0.1 l 0.24,-1.06 v 0 -0.01 l 1.33,-6.38 v 0 l 0.99,-4.72 1.09,-0.99 v 0 c 0.84,-0.78 2.1,-1.93 3.74,-3.37 0,0 0,0 0,0 l 2.71,-2.36 v 0 c 7.4,-6.43 19.33,-16.25 32.22,-24.84 12.42,-8.27 25.67,-15.35 36.64,-17.22 l -43.95,52.21 c -10.26,5.48 -21.23,9.03 -32.36,8.84 v 0 z" /><path
       inkscape:connector-curvature="0"
       style="stroke:url(#paint1_linear)"
       id="path1104"
       d="m 1316.69,1436.42 c -0.88,0 -1.76,-0.03 -2.64,-0.1 l 0.24,-1.06 v 0 -0.01 l 1.33,-6.38 v 0 l 0.99,-4.72 1.09,-0.99 v 0 c 0.84,-0.78 2.1,-1.93 3.74,-3.37 0,0 0,0 0,0 l 2.71,-2.36 v 0 c 7.4,-6.43 19.33,-16.25 32.22,-24.84 12.42,-8.27 25.67,-15.35 36.64,-17.22 l -43.95,52.21 c -10.26,5.48 -21.23,9.03 -32.36,8.84 v 0 z" /></g><g
     id="Vector_7"><path
       style="fill:#6c63ff"
       inkscape:connector-curvature="0"
       id="path1107"
       d="m 1341.62,1360.07 0.05,-0.07 c 0.1,-0.13 0.25,-0.33 0.45,-0.58 0.4,-0.51 0.99,-1.25 1.75,-2.2 1.52,-1.9 3.72,-4.6 6.46,-7.83 5.47,-6.46 13.07,-15.01 21.59,-23.38 8.51,-8.38 17.92,-16.58 27.01,-22.34 8.83,-5.59 17.26,-8.81 24.24,-7.82 -0.02,0.03 -0.03,0.06 -0.05,0.09 -0.25,0.45 -0.62,1.12 -1.11,1.98 -0.98,1.71 -2.44,4.17 -4.36,7.16 -3.82,5.96 -9.44,14.01 -16.62,22.35 -14.28,16.55 -34.68,34.17 -59.41,38.91 z" /><path
       style="stroke:#ffffff"
       inkscape:connector-curvature="0"
       id="path1109"
       d="m 1341.62,1360.07 0.05,-0.07 c 0.1,-0.13 0.25,-0.33 0.45,-0.58 0.4,-0.51 0.99,-1.25 1.75,-2.2 1.52,-1.9 3.72,-4.6 6.46,-7.83 5.47,-6.46 13.07,-15.01 21.59,-23.38 8.51,-8.38 17.92,-16.58 27.01,-22.34 8.83,-5.59 17.26,-8.81 24.24,-7.82 -0.02,0.03 -0.03,0.06 -0.05,0.09 -0.25,0.45 -0.62,1.12 -1.11,1.98 -0.98,1.71 -2.44,4.17 -4.36,7.16 -3.82,5.96 -9.44,14.01 -16.62,22.35 -14.28,16.55 -34.68,34.17 -59.41,38.91 z" /><path
       inkscape:connector-curvature="0"
       style="stroke:url(#paint2_linear)"
       id="path1111"
       d="m 1341.62,1360.07 0.05,-0.07 c 0.1,-0.13 0.25,-0.33 0.45,-0.58 0.4,-0.51 0.99,-1.25 1.75,-2.2 1.52,-1.9 3.72,-4.6 6.46,-7.83 5.47,-6.46 13.07,-15.01 21.59,-23.38 8.51,-8.38 17.92,-16.58 27.01,-22.34 8.83,-5.59 17.26,-8.81 24.24,-7.82 -0.02,0.03 -0.03,0.06 -0.05,0.09 -0.25,0.45 -0.62,1.12 -1.11,1.98 -0.98,1.71 -2.44,4.17 -4.36,7.16 -3.82,5.96 -9.44,14.01 -16.62,22.35 -14.28,16.55 -34.68,34.17 -59.41,38.91 z" /></g><g
     id="Vector_8"><path
       style="fill:#6c63ff"
       inkscape:connector-curvature="0"
       id="path1114"
       d="m 1368.62,1273.99 0.03,-0.04 c 0.09,-0.1 0.22,-0.25 0.4,-0.44 0.35,-0.39 0.87,-0.97 1.54,-1.7 1.34,-1.46 3.29,-3.55 5.71,-6.06 4.83,-5.02 11.55,-11.7 19.06,-18.38 7.51,-6.68 15.8,-13.34 23.81,-18.32 7.67,-4.77 15,-7.95 21.09,-8.19 -0.01,0.02 -0.02,0.04 -0.03,0.05 -0.28,0.53 -0.7,1.29 -1.24,2.27 -1.09,1.94 -2.7,4.73 -4.74,8.07 -4.08,6.68 -9.91,15.58 -16.91,24.45 -7,8.88 -15.16,17.72 -23.9,24.31 -8.57,6.45 -17.64,10.7 -26.69,10.73 z" /><path
       style="stroke:#ffffff"
       inkscape:connector-curvature="0"
       id="path1116"
       d="m 1368.62,1273.99 0.03,-0.04 c 0.09,-0.1 0.22,-0.25 0.4,-0.44 0.35,-0.39 0.87,-0.97 1.54,-1.7 1.34,-1.46 3.29,-3.55 5.71,-6.06 4.83,-5.02 11.55,-11.7 19.06,-18.38 7.51,-6.68 15.8,-13.34 23.81,-18.32 7.67,-4.77 15,-7.95 21.09,-8.19 -0.01,0.02 -0.02,0.04 -0.03,0.05 -0.28,0.53 -0.7,1.29 -1.24,2.27 -1.09,1.94 -2.7,4.73 -4.74,8.07 -4.08,6.68 -9.91,15.58 -16.91,24.45 -7,8.88 -15.16,17.72 -23.9,24.31 -8.57,6.45 -17.64,10.7 -26.69,10.73 z" /><path
       inkscape:connector-curvature="0"
       style="stroke:url(#paint3_linear)"
       id="path1118"
       d="m 1368.62,1273.99 0.03,-0.04 c 0.09,-0.1 0.22,-0.25 0.4,-0.44 0.35,-0.39 0.87,-0.97 1.54,-1.7 1.34,-1.46 3.29,-3.55 5.71,-6.06 4.83,-5.02 11.55,-11.7 19.06,-18.38 7.51,-6.68 15.8,-13.34 23.81,-18.32 7.67,-4.77 15,-7.95 21.09,-8.19 -0.01,0.02 -0.02,0.04 -0.03,0.05 -0.28,0.53 -0.7,1.29 -1.24,2.27 -1.09,1.94 -2.7,4.73 -4.74,8.07 -4.08,6.68 -9.91,15.58 -16.91,24.45 -7,8.88 -15.16,17.72 -23.9,24.31 -8.57,6.45 -17.64,10.7 -26.69,10.73 z" /></g><g
     id="Vector_9"><path
       style="fill:#6c63ff"
       inkscape:connector-curvature="0"
       id="path1121"
       d="m 1379.16,1236.04 5.46,-19.46 44.79,-109.2 c 0,0.55 -0.01,1.18 -0.02,1.88 -0.04,2.82 -0.16,6.87 -0.48,11.83 -0.62,9.93 -2.02,23.49 -5.09,38.03 -6.07,28.71 -18.66,61.09 -44.66,76.92 z" /><path
       style="stroke:#ffffff"
       inkscape:connector-curvature="0"
       id="path1123"
       d="m 1379.16,1236.04 5.46,-19.46 44.79,-109.2 c 0,0.55 -0.01,1.18 -0.02,1.88 -0.04,2.82 -0.16,6.87 -0.48,11.83 -0.62,9.93 -2.02,23.49 -5.09,38.03 -6.07,28.71 -18.66,61.09 -44.66,76.92 z" /><path
       inkscape:connector-curvature="0"
       style="stroke:url(#paint4_linear)"
       id="path1125"
       d="m 1379.16,1236.04 5.46,-19.46 44.79,-109.2 c 0,0.55 -0.01,1.18 -0.02,1.88 -0.04,2.82 -0.16,6.87 -0.48,11.83 -0.62,9.93 -2.02,23.49 -5.09,38.03 -6.07,28.71 -18.66,61.09 -44.66,76.92 z" /></g><g
     id="Vector_10"><path
       style="fill:#6c63ff"
       inkscape:connector-curvature="0"
       id="path1128"
       d="m 1407.22,999.179 c -0.01,-0.122 -0.02,-0.243 -0.03,-0.362 0.68,1.953 1.48,4.353 2.32,7.153 2.51,8.24 5.47,19.9 7.32,33.58 3.64,26.85 2.97,61.41 -13.9,93.03 l 0.3,-39.13 v 0 -0.05 l 0.02,-0.2 c 0.01,-0.18 0.03,-0.44 0.06,-0.78 0.06,-0.69 0.13,-1.69 0.23,-2.97 0.2,-2.57 0.48,-6.23 0.8,-10.66 0.63,-8.85 1.43,-20.73 2.07,-32.85 0.64,-12.12 1.14,-24.48 1.16,-34.29 0.02,-4.91 -0.09,-9.18 -0.35,-12.471 z" /><path
       style="stroke:#ffffff"
       inkscape:connector-curvature="0"
       id="path1130"
       d="m 1407.22,999.179 c -0.01,-0.122 -0.02,-0.243 -0.03,-0.362 0.68,1.953 1.48,4.353 2.32,7.153 2.51,8.24 5.47,19.9 7.32,33.58 3.64,26.85 2.97,61.41 -13.9,93.03 l 0.3,-39.13 v 0 -0.05 l 0.02,-0.2 c 0.01,-0.18 0.03,-0.44 0.06,-0.78 0.06,-0.69 0.13,-1.69 0.23,-2.97 0.2,-2.57 0.48,-6.23 0.8,-10.66 0.63,-8.85 1.43,-20.73 2.07,-32.85 0.64,-12.12 1.14,-24.48 1.16,-34.29 0.02,-4.91 -0.09,-9.18 -0.35,-12.471 z" /><path
       inkscape:connector-curvature="0"
       style="stroke:url(#paint5_linear)"
       id="path1132"
       d="m 1407.22,999.179 c -0.01,-0.122 -0.02,-0.243 -0.03,-0.362 0.68,1.953 1.48,4.353 2.32,7.153 2.51,8.24 5.47,19.9 7.32,33.58 3.64,26.85 2.97,61.41 -13.9,93.03 l 0.3,-39.13 v 0 -0.05 l 0.02,-0.2 c 0.01,-0.18 0.03,-0.44 0.06,-0.78 0.06,-0.69 0.13,-1.69 0.23,-2.97 0.2,-2.57 0.48,-6.23 0.8,-10.66 0.63,-8.85 1.43,-20.73 2.07,-32.85 0.64,-12.12 1.14,-24.48 1.16,-34.29 0.02,-4.91 -0.09,-9.18 -0.35,-12.471 z" /></g><g
     id="Vector_11"><path
       style="fill:#6c63ff"
       inkscape:connector-curvature="0"
       id="path1135"
       d="m 1313.65,1434.5 c -17.11,-15.67 -21.79,-42.43 -22.13,-65.49 -0.17,-11.61 0.76,-22.23 1.72,-29.96 0.49,-3.86 0.99,-6.99 1.36,-9.16 0.19,-1.09 0.34,-1.93 0.45,-2.5 0.02,-0.08 0.03,-0.16 0.05,-0.23 6.06,3.22 10.74,10.59 14.33,20.04 3.69,9.72 6.19,21.54 7.87,32.98 1.69,11.44 2.56,22.49 3.01,30.69 0.22,4.09 0.34,7.47 0.41,9.83 0.03,1.18 0.05,2.1 0.06,2.73 0,0.31 0,0.55 0.01,0.71 v 0.09 z" /><path
       style="stroke:#ffffff"
       inkscape:connector-curvature="0"
       id="path1137"
       d="m 1313.65,1434.5 c -17.11,-15.67 -21.79,-42.43 -22.13,-65.49 -0.17,-11.61 0.76,-22.23 1.72,-29.96 0.49,-3.86 0.99,-6.99 1.36,-9.16 0.19,-1.09 0.34,-1.93 0.45,-2.5 0.02,-0.08 0.03,-0.16 0.05,-0.23 6.06,3.22 10.74,10.59 14.33,20.04 3.69,9.72 6.19,21.54 7.87,32.98 1.69,11.44 2.56,22.49 3.01,30.69 0.22,4.09 0.34,7.47 0.41,9.83 0.03,1.18 0.05,2.1 0.06,2.73 0,0.31 0,0.55 0.01,0.71 v 0.09 z" /><path
       inkscape:connector-curvature="0"
       style="stroke:url(#paint6_linear)"
       id="path1139"
       d="m 1313.65,1434.5 c -17.11,-15.67 -21.79,-42.43 -22.13,-65.49 -0.17,-11.61 0.76,-22.23 1.72,-29.96 0.49,-3.86 0.99,-6.99 1.36,-9.16 0.19,-1.09 0.34,-1.93 0.45,-2.5 0.02,-0.08 0.03,-0.16 0.05,-0.23 6.06,3.22 10.74,10.59 14.33,20.04 3.69,9.72 6.19,21.54 7.87,32.98 1.69,11.44 2.56,22.49 3.01,30.69 0.22,4.09 0.34,7.47 0.41,9.83 0.03,1.18 0.05,2.1 0.06,2.73 0,0.31 0,0.55 0.01,0.71 v 0.09 z" /></g><g
     id="Vector_12"><path
       style="fill:#6c63ff"
       inkscape:connector-curvature="0"
       id="path1142"
       d="m 1339.01,1363.97 c -17.51,-18.11 -24.07,-44.26 -26.22,-66.01 -1.08,-10.96 -1.05,-20.78 -0.74,-27.86 0.15,-3.53 0.37,-6.39 0.56,-8.36 0.09,-0.98 0.17,-1.74 0.23,-2.26 0,-0.03 0.01,-0.06 0.01,-0.09 6.28,3.2 11.32,10.69 15.32,20.35 4.12,9.94 7.1,22.06 9.25,33.82 2.14,11.75 3.44,23.12 4.2,31.55 0.38,4.21 0.63,7.69 0.78,10.12 0.08,1.21 0.13,2.16 0.17,2.81 0.01,0.32 0.02,0.57 0.03,0.73 l 0.01,0.08 z" /><path
       style="stroke:#ffffff"
       inkscape:connector-curvature="0"
       id="path1144"
       d="m 1339.01,1363.97 c -17.51,-18.11 -24.07,-44.26 -26.22,-66.01 -1.08,-10.96 -1.05,-20.78 -0.74,-27.86 0.15,-3.53 0.37,-6.39 0.56,-8.36 0.09,-0.98 0.17,-1.74 0.23,-2.26 0,-0.03 0.01,-0.06 0.01,-0.09 6.28,3.2 11.32,10.69 15.32,20.35 4.12,9.94 7.1,22.06 9.25,33.82 2.14,11.75 3.44,23.12 4.2,31.55 0.38,4.21 0.63,7.69 0.78,10.12 0.08,1.21 0.13,2.16 0.17,2.81 0.01,0.32 0.02,0.57 0.03,0.73 l 0.01,0.08 z" /><path
       inkscape:connector-curvature="0"
       style="stroke:url(#paint7_linear)"
       id="path1146"
       d="m 1339.01,1363.97 c -17.51,-18.11 -24.07,-44.26 -26.22,-66.01 -1.08,-10.96 -1.05,-20.78 -0.74,-27.86 0.15,-3.53 0.37,-6.39 0.56,-8.36 0.09,-0.98 0.17,-1.74 0.23,-2.26 0,-0.03 0.01,-0.06 0.01,-0.09 6.28,3.2 11.32,10.69 15.32,20.35 4.12,9.94 7.1,22.06 9.25,33.82 2.14,11.75 3.44,23.12 4.2,31.55 0.38,4.21 0.63,7.69 0.78,10.12 0.08,1.21 0.13,2.16 0.17,2.81 0.01,0.32 0.02,0.57 0.03,0.73 l 0.01,0.08 z" /></g><g
     id="Vector_13"><path
       style="fill:#6c63ff"
       inkscape:connector-curvature="0"
       id="path1149"
       d="m 1361.71,1294.43 c -6.76,-6 -10.76,-15.17 -12.92,-25.68 -2.21,-10.71 -2.49,-22.74 -1.88,-34.03 0.61,-11.3 2.12,-21.83 3.47,-29.55 0.67,-3.85 1.31,-7 1.78,-9.19 0.23,-1.09 0.42,-1.94 0.55,-2.52 0.01,-0.02 0.01,-0.04 0.02,-0.06 4.41,4.22 7.82,11.46 10.42,20.11 2.72,9.03 4.55,19.51 5.78,29.49 1.23,9.97 1.85,19.41 2.17,26.37 0.15,3.47 0.24,6.33 0.28,8.31 0.02,0.99 0.03,1.77 0.04,2.29 0,0.27 0,0.47 0,0.6 v 0.05 z" /><path
       style="stroke:#ffffff"
       inkscape:connector-curvature="0"
       id="path1151"
       d="m 1361.71,1294.43 c -6.76,-6 -10.76,-15.17 -12.92,-25.68 -2.21,-10.71 -2.49,-22.74 -1.88,-34.03 0.61,-11.3 2.12,-21.83 3.47,-29.55 0.67,-3.85 1.31,-7 1.78,-9.19 0.23,-1.09 0.42,-1.94 0.55,-2.52 0.01,-0.02 0.01,-0.04 0.02,-0.06 4.41,4.22 7.82,11.46 10.42,20.11 2.72,9.03 4.55,19.51 5.78,29.49 1.23,9.97 1.85,19.41 2.17,26.37 0.15,3.47 0.24,6.33 0.28,8.31 0.02,0.99 0.03,1.77 0.04,2.29 0,0.27 0,0.47 0,0.6 v 0.05 z" /><path
       inkscape:connector-curvature="0"
       style="stroke:url(#paint8_linear)"
       id="path1153"
       d="m 1361.71,1294.43 c -6.76,-6 -10.76,-15.17 -12.92,-25.68 -2.21,-10.71 -2.49,-22.74 -1.88,-34.03 0.61,-11.3 2.12,-21.83 3.47,-29.55 0.67,-3.85 1.31,-7 1.78,-9.19 0.23,-1.09 0.42,-1.94 0.55,-2.52 0.01,-0.02 0.01,-0.04 0.02,-0.06 4.41,4.22 7.82,11.46 10.42,20.11 2.72,9.03 4.55,19.51 5.78,29.49 1.23,9.97 1.85,19.41 2.17,26.37 0.15,3.47 0.24,6.33 0.28,8.31 0.02,0.99 0.03,1.77 0.04,2.29 0,0.27 0,0.47 0,0.6 v 0.05 z" /></g><g
     id="Vector_14"><path
       style="fill:#6c63ff"
       inkscape:connector-curvature="0"
       id="path1156"
       d="m 1382.22,1233.15 c -21.65,-21.41 -26.42,-55.82 -25.7,-85.16 0.36,-14.85 2.13,-28.37 3.81,-38.17 0.85,-4.9 1.66,-8.87 2.27,-11.62 0.15,-0.69 0.29,-1.3 0.42,-1.83 l 18.36,116.57 z" /><path
       style="stroke:#ffffff"
       inkscape:connector-curvature="0"
       id="path1158"
       d="m 1382.22,1233.15 c -21.65,-21.41 -26.42,-55.82 -25.7,-85.16 0.36,-14.85 2.13,-28.37 3.81,-38.17 0.85,-4.9 1.66,-8.87 2.27,-11.62 0.15,-0.69 0.29,-1.3 0.42,-1.83 l 18.36,116.57 z" /><path
       inkscape:connector-curvature="0"
       style="stroke:url(#paint9_linear)"
       id="path1160"
       d="m 1382.22,1233.15 c -21.65,-21.41 -26.42,-55.82 -25.7,-85.16 0.36,-14.85 2.13,-28.37 3.81,-38.17 0.85,-4.9 1.66,-8.87 2.27,-11.62 0.15,-0.69 0.29,-1.3 0.42,-1.83 l 18.36,116.57 z" /></g><g
     id="Vector_15"><path
       style="fill:#6c63ff"
       inkscape:connector-curvature="0"
       id="path1163"
       d="m 1402.78,1129.72 c -29.17,-20.82 -45.13,-51.48 -53.81,-77.15 -4.42,-13.07 -6.95,-24.84 -8.37,-33.34 -0.49,-2.88 -0.84,-5.39 -1.1,-7.45 0.04,0.12 0.09,0.23 0.13,0.35 1.23,3.06 3.04,6.94 5.23,11.32 4.39,8.78 10.32,19.63 16.28,30.2 5.97,10.57 11.96,20.86 16.46,28.5 2.25,3.83 4.13,6.99 5.45,9.2 0.66,1.1 1.17,1.96 1.53,2.55 0.17,0.3 0.31,0.52 0.4,0.67 l 0.1,0.18 0.03,0.04 v 0 z" /><path
       style="stroke:#ffffff"
       inkscape:connector-curvature="0"
       id="path1165"
       d="m 1402.78,1129.72 c -29.17,-20.82 -45.13,-51.48 -53.81,-77.15 -4.42,-13.07 -6.95,-24.84 -8.37,-33.34 -0.49,-2.88 -0.84,-5.39 -1.1,-7.45 0.04,0.12 0.09,0.23 0.13,0.35 1.23,3.06 3.04,6.94 5.23,11.32 4.39,8.78 10.32,19.63 16.28,30.2 5.97,10.57 11.96,20.86 16.46,28.5 2.25,3.83 4.13,6.99 5.45,9.2 0.66,1.1 1.17,1.96 1.53,2.55 0.17,0.3 0.31,0.52 0.4,0.67 l 0.1,0.18 0.03,0.04 v 0 z" /><path
       inkscape:connector-curvature="0"
       style="stroke:url(#paint10_linear)"
       id="path1167"
       d="m 1402.78,1129.72 c -29.17,-20.82 -45.13,-51.48 -53.81,-77.15 -4.42,-13.07 -6.95,-24.84 -8.37,-33.34 -0.49,-2.88 -0.84,-5.39 -1.1,-7.45 0.04,0.12 0.09,0.23 0.13,0.35 1.23,3.06 3.04,6.94 5.23,11.32 4.39,8.78 10.32,19.63 16.28,30.2 5.97,10.57 11.96,20.86 16.46,28.5 2.25,3.83 4.13,6.99 5.45,9.2 0.66,1.1 1.17,1.96 1.53,2.55 0.17,0.3 0.31,0.52 0.4,0.67 l 0.1,0.18 0.03,0.04 v 0 z" /></g><g
     id="Vector_16"><path
       style="fill:#6c63ff"
       inkscape:connector-curvature="0"
       id="path1170"
       d="m 1334.29,955.612 c -0.92,-1.133 -1.81,-2.175 -2.69,-3.114 1.06,0.709 2.23,1.515 3.49,2.421 6.14,4.432 14.38,11.243 22.78,20.753 16.75,18.981 34.12,48.718 36.6,91.778 l -3.07,2.63 c -0.07,-0.18 -0.15,-0.39 -0.25,-0.63 -0.34,-0.84 -0.84,-2.07 -1.48,-3.63 -1.29,-3.13 -3.14,-7.61 -5.44,-13.01 -4.58,-10.81 -10.91,-25.32 -17.89,-40.11 -6.97,-14.797 -14.59,-29.891 -21.76,-41.866 -3.58,-5.987 -7.06,-11.206 -10.29,-15.222 z" /><path
       style="stroke:#ffffff"
       inkscape:connector-curvature="0"
       id="path1172"
       d="m 1334.29,955.612 c -0.92,-1.133 -1.81,-2.175 -2.69,-3.114 1.06,0.709 2.23,1.515 3.49,2.421 6.14,4.432 14.38,11.243 22.78,20.753 16.75,18.981 34.12,48.718 36.6,91.778 l -3.07,2.63 c -0.07,-0.18 -0.15,-0.39 -0.25,-0.63 -0.34,-0.84 -0.84,-2.07 -1.48,-3.63 -1.29,-3.13 -3.14,-7.61 -5.44,-13.01 -4.58,-10.81 -10.91,-25.32 -17.89,-40.11 -6.97,-14.797 -14.59,-29.891 -21.76,-41.866 -3.58,-5.987 -7.06,-11.206 -10.29,-15.222 z" /><path
       inkscape:connector-curvature="0"
       style="stroke:url(#paint11_linear)"
       id="path1174"
       d="m 1334.29,955.612 c -0.92,-1.133 -1.81,-2.175 -2.69,-3.114 1.06,0.709 2.23,1.515 3.49,2.421 6.14,4.432 14.38,11.243 22.78,20.753 16.75,18.981 34.12,48.718 36.6,91.778 l -3.07,2.63 c -0.07,-0.18 -0.15,-0.39 -0.25,-0.63 -0.34,-0.84 -0.84,-2.07 -1.48,-3.63 -1.29,-3.13 -3.14,-7.61 -5.44,-13.01 -4.58,-10.81 -10.91,-25.32 -17.89,-40.11 -6.97,-14.797 -14.59,-29.891 -21.76,-41.866 -3.58,-5.987 -7.06,-11.206 -10.29,-15.222 z" /></g><g
     id="Vector_17"><path
       style="fill:#444053"
       inkscape:connector-curvature="0"
       id="path1177"
       d="m 1401.58,1137.54 c -4.37,38.26 -16.4,89.86 -35.97,153.74 l -2.14,-0.65 c 19.1,-62.38 31.05,-113.52 35.61,-151.57 2.29,-19.07 2.72,-34.88 1.26,-47.18 -1.43,-12.01 -4.67,-20.75 -9.84,-25.9 l 1.56,-1.63 c 5.24,5.2 8.7,13.84 10.32,25.89 1.66,12.31 1.4,28.12 -0.8,47.3 z" /><path
       style="stroke:#ffffff"
       inkscape:connector-curvature="0"
       id="path1179"
       d="m 1401.58,1137.54 c -4.37,38.26 -16.4,89.86 -35.97,153.74 l -2.14,-0.65 c 19.1,-62.38 31.05,-113.52 35.61,-151.57 2.29,-19.07 2.72,-34.88 1.26,-47.18 -1.43,-12.01 -4.67,-20.75 -9.84,-25.9 l 1.56,-1.63 c 5.24,5.2 8.7,13.84 10.32,25.89 1.66,12.31 1.4,28.12 -0.8,47.3 z" /><path
       inkscape:connector-curvature="0"
       style="stroke:url(#paint12_linear)"
       id="path1181"
       d="m 1401.58,1137.54 c -4.37,38.26 -16.4,89.86 -35.97,153.74 l -2.14,-0.65 c 19.1,-62.38 31.05,-113.52 35.61,-151.57 2.29,-19.07 2.72,-34.88 1.26,-47.18 -1.43,-12.01 -4.67,-20.75 -9.84,-25.9 l 1.56,-1.63 c 5.24,5.2 8.7,13.84 10.32,25.89 1.66,12.31 1.4,28.12 -0.8,47.3 z" /></g><g
     id="Vector_18"><path
       style="fill:#444053"
       inkscape:connector-curvature="0"
       id="path1184"
       d="m 1341.39,1366.86 c -5.5,16.12 -11.37,32.85 -17.5,50.05 -0.85,2.42 -1.73,4.87 -2.6,7.26 l -0.13,0.34 c -0.32,0.88 -0.64,1.76 -0.96,2.64 -1.16,3.23 -2.33,6.47 -3.52,9.72 -4.4,12.09 -8.92,24.35 -13.59,36.79 l -0.41,-0.34 m 38.71,-106.46 c 1.46,-4.28 2.9,-8.52 4.31,-12.71 7.45,-22.16 14.22,-43.05 20.21,-62.28 m -24.52,74.99 -0.47,-0.16 m 0.47,0.16 -0.47,-0.16 c 0,0 0,0 0,0 m 24.99,-74.83 c 0.1,-0.34 0.21,-0.68 0.33,-1.01 m -0.33,1.01 -0.47,-0.15 c 0,0 -0.01,0 -0.01,0.01 m 0.48,0.14 -0.48,-0.14 c 0,0 0,0 0,0 m 0.81,-0.87 c 0.13,-0.45 0.27,-0.89 0.41,-1.33 0.22,-0.71 0.43,-1.41 0.64,-2.11 0.44,-1.38 0.87,-2.73 1.29,-4.12 l -0.61,0.28 m -1.73,7.28 -0.47,-0.16 c 0,0 -0.01,0 -0.01,0.01 m 0.48,0.15 -0.48,-0.14 c 0,-0.01 0,-0.01 0,-0.01 m 2.21,-7.13 c 0.07,-0.22 0.13,-0.43 0.2,-0.64 l -1.17,0.53 m 0.97,0.11 -0.75,0.34 m 0.75,-0.34 c -0.38,1.24 -0.76,2.45 -1.15,3.69 h -0.01 c -0.21,0.71 -0.42,1.4 -0.64,2.11 -0.13,0.44 -0.27,0.88 -0.41,1.33 m 1.24,-7.24 -2.27,1.15 m 2.27,-1.15 0.21,0.46 0.01,-0.01 m -0.22,-0.45 0.23,0.45 h -0.01 m -2.49,0.7 c -0.08,0.3 -0.18,0.59 -0.28,0.88 m 0.28,-0.88 0.22,0.45 0.2,-0.1 m -0.42,-0.35 0.48,0.14 c -0.02,0.07 -0.04,0.14 -0.06,0.21 m -0.7,0.53 c -0.63,2.09 -1.28,4.17 -1.95,6.3 -0.32,1.03 -0.64,2.08 -0.97,3.14 -5.6,17.87 -11.94,36.97 -18.89,57.13 -1.36,3.91 -2.76,7.97 -4.16,12.03 -5.54,15.84 -11.41,32.2 -17.6,49.07 -0.55,1.51 -1.1,3 -1.66,4.5 -0.61,1.64 -1.23,3.29 -1.85,4.99 -0.53,1.46 -1.07,2.91 -1.62,4.38 -0.2,0.54 -0.4,1.08 -0.6,1.63 l -2.19,5.91 c -4.47,11.98 -9.08,24.14 -13.81,36.5 m 65.3,-185.58 0.48,0.16 v -0.01 c 0,0 0,0 0,0 m -0.48,-0.15 0.48,0.15 c 0,0 0,0 0,0 m -65.78,185.43 3.35,2.74 c 0.06,-0.17 0.12,-0.33 0.18,-0.5 m -3.53,-2.24 0.47,0.18 c 0.04,-0.11 0.09,-0.23 0.13,-0.34 m -0.6,0.16 0.32,-0.39 0.28,0.23 m 2.93,2.4 c 4.65,-12.38 9.15,-24.58 13.53,-36.62 v 0 c 1.19,-3.25 2.36,-6.49 3.52,-9.72 0.32,-0.88 0.64,-1.76 0.96,-2.64 v -0.01 l 0.13,-0.33 0.47,0.17 -0.47,-0.18 v 0 c 0.87,-2.38 1.75,-4.83 2.59,-7.25 v 0 c 6.14,-17.2 12,-33.93 17.51,-50.04 m -38.24,106.62 -2.93,-2.4 m 0,0 c 4.68,-12.24 9.24,-24.29 13.67,-36.16 h 0.01 l 2.19,-5.92 c 0.2,-0.54 0.4,-1.09 0.6,-1.63 0.55,-1.46 1.09,-2.92 1.62,-4.38 v 0 c 0.63,-1.71 1.24,-3.35 1.84,-4.98 0.56,-1.5 1.11,-2.99 1.67,-4.51 m 0,0 c 6.19,-16.87 12.06,-33.23 17.61,-49.07 v -0.01 c 1.39,-4.06 2.79,-8.12 4.15,-12.03 v 0 c 6.96,-20.16 13.29,-39.27 18.9,-57.14 v 0 c 0.32,-1.06 0.65,-2.1 0.97,-3.14 0.66,-2.12 1.31,-4.21 1.95,-6.3 m -43.58,127.69 -0.46,-0.16 0.46,0.17 c 0,0 0,-0.01 0,-0.01 z m 43.58,-127.69 c 0.07,-0.22 0.15,-0.45 0.22,-0.68 m 0,0 2.07,-1.05 m -1.46,6.79 c -0.11,0.32 -0.23,0.67 -0.33,1.02 m 0,0 c -5.99,19.22 -12.76,40.11 -20.21,62.26 v 0 c -1.41,4.19 -2.84,8.42 -4.3,12.71" /><path
       style="stroke:#ffffff"
       inkscape:connector-curvature="0"
       id="path1186"
       d="m 1341.39,1366.86 c -5.5,16.12 -11.37,32.85 -17.5,50.05 -0.85,2.42 -1.73,4.87 -2.6,7.26 l -0.13,0.34 c -0.32,0.88 -0.64,1.76 -0.96,2.64 -1.16,3.23 -2.33,6.47 -3.52,9.72 -4.4,12.09 -8.92,24.35 -13.59,36.79 l -0.41,-0.34 m 38.71,-106.46 c 1.46,-4.28 2.9,-8.52 4.31,-12.71 7.45,-22.16 14.22,-43.05 20.21,-62.28 m -24.52,74.99 -0.47,-0.16 m 0.47,0.16 -0.47,-0.16 c 0,0 0,0 0,0 m 24.99,-74.83 c 0.1,-0.34 0.21,-0.68 0.33,-1.01 m -0.33,1.01 -0.47,-0.15 c 0,0 -0.01,0 -0.01,0.01 m 0.48,0.14 -0.48,-0.14 c 0,0 0,0 0,0 m 0.81,-0.87 c 0.13,-0.45 0.27,-0.89 0.41,-1.33 0.22,-0.71 0.43,-1.41 0.64,-2.11 0.44,-1.38 0.87,-2.73 1.29,-4.12 l -0.61,0.28 m -1.73,7.28 -0.47,-0.16 c 0,0 -0.01,0 -0.01,0.01 m 0.48,0.15 -0.48,-0.14 c 0,-0.01 0,-0.01 0,-0.01 m 2.21,-7.13 c 0.07,-0.22 0.13,-0.43 0.2,-0.64 l -1.17,0.53 m 0.97,0.11 -0.75,0.34 m 0.75,-0.34 c -0.38,1.24 -0.76,2.45 -1.15,3.69 h -0.01 c -0.21,0.71 -0.42,1.4 -0.64,2.11 -0.13,0.44 -0.27,0.88 -0.41,1.33 m 1.24,-7.24 -2.27,1.15 m 2.27,-1.15 0.21,0.46 0.01,-0.01 m -0.22,-0.45 0.23,0.45 h -0.01 m -2.49,0.7 c -0.08,0.3 -0.18,0.59 -0.28,0.88 m 0.28,-0.88 0.22,0.45 0.2,-0.1 m -0.42,-0.35 0.48,0.14 c -0.02,0.07 -0.04,0.14 -0.06,0.21 m -0.7,0.53 c -0.63,2.09 -1.28,4.17 -1.95,6.3 -0.32,1.03 -0.64,2.08 -0.97,3.14 -5.6,17.87 -11.94,36.97 -18.89,57.13 -1.36,3.91 -2.76,7.97 -4.16,12.03 -5.54,15.84 -11.41,32.2 -17.6,49.07 -0.55,1.51 -1.1,3 -1.66,4.5 -0.61,1.64 -1.23,3.29 -1.85,4.99 -0.53,1.46 -1.07,2.91 -1.62,4.38 -0.2,0.54 -0.4,1.08 -0.6,1.63 l -2.19,5.91 c -4.47,11.98 -9.08,24.14 -13.81,36.5 m 65.3,-185.58 0.48,0.16 v -0.01 c 0,0 0,0 0,0 m -0.48,-0.15 0.48,0.15 c 0,0 0,0 0,0 m -65.78,185.43 3.35,2.74 c 0.06,-0.17 0.12,-0.33 0.18,-0.5 m -3.53,-2.24 0.47,0.18 c 0.04,-0.11 0.09,-0.23 0.13,-0.34 m -0.6,0.16 0.32,-0.39 0.28,0.23 m 2.93,2.4 c 4.65,-12.38 9.15,-24.58 13.53,-36.62 v 0 c 1.19,-3.25 2.36,-6.49 3.52,-9.72 0.32,-0.88 0.64,-1.76 0.96,-2.64 v -0.01 l 0.13,-0.33 0.47,0.17 -0.47,-0.18 v 0 c 0.87,-2.38 1.75,-4.83 2.59,-7.25 v 0 c 6.14,-17.2 12,-33.93 17.51,-50.04 m -38.24,106.62 -2.93,-2.4 m 0,0 c 4.68,-12.24 9.24,-24.29 13.67,-36.16 h 0.01 l 2.19,-5.92 c 0.2,-0.54 0.4,-1.09 0.6,-1.63 0.55,-1.46 1.09,-2.92 1.62,-4.38 v 0 c 0.63,-1.71 1.24,-3.35 1.84,-4.98 0.56,-1.5 1.11,-2.99 1.67,-4.51 m 0,0 c 6.19,-16.87 12.06,-33.23 17.61,-49.07 v -0.01 c 1.39,-4.06 2.79,-8.12 4.15,-12.03 v 0 c 6.96,-20.16 13.29,-39.27 18.9,-57.14 v 0 c 0.32,-1.06 0.65,-2.1 0.97,-3.14 0.66,-2.12 1.31,-4.21 1.95,-6.3 m -43.58,127.69 -0.46,-0.16 0.46,0.17 c 0,0 0,-0.01 0,-0.01 z m 43.58,-127.69 c 0.07,-0.22 0.15,-0.45 0.22,-0.68 m 0,0 2.07,-1.05 m -1.46,6.79 c -0.11,0.32 -0.23,0.67 -0.33,1.02 m 0,0 c -5.99,19.22 -12.76,40.11 -20.21,62.26 v 0 c -1.41,4.19 -2.84,8.42 -4.3,12.71" /><path
       inkscape:connector-curvature="0"
       style="stroke:url(#paint13_linear)"
       id="path1188"
       d="m 1341.39,1366.86 c -5.5,16.12 -11.37,32.85 -17.5,50.05 -0.85,2.42 -1.73,4.87 -2.6,7.26 l -0.13,0.34 c -0.32,0.88 -0.64,1.76 -0.96,2.64 -1.16,3.23 -2.33,6.47 -3.52,9.72 -4.4,12.09 -8.92,24.35 -13.59,36.79 l -0.41,-0.34 m 38.71,-106.46 c 1.46,-4.28 2.9,-8.52 4.31,-12.71 7.45,-22.16 14.22,-43.05 20.21,-62.28 m -24.52,74.99 -0.47,-0.16 m 0.47,0.16 -0.47,-0.16 c 0,0 0,0 0,0 m 24.99,-74.83 c 0.1,-0.34 0.21,-0.68 0.33,-1.01 m -0.33,1.01 -0.47,-0.15 c 0,0 -0.01,0 -0.01,0.01 m 0.48,0.14 -0.48,-0.14 c 0,0 0,0 0,0 m 0.81,-0.87 c 0.13,-0.45 0.27,-0.89 0.41,-1.33 0.22,-0.71 0.43,-1.41 0.64,-2.11 0.44,-1.38 0.87,-2.73 1.29,-4.12 l -0.61,0.28 m -1.73,7.28 -0.47,-0.16 c 0,0 -0.01,0 -0.01,0.01 m 0.48,0.15 -0.48,-0.14 c 0,-0.01 0,-0.01 0,-0.01 m 2.21,-7.13 c 0.07,-0.22 0.13,-0.43 0.2,-0.64 l -1.17,0.53 m 0.97,0.11 -0.75,0.34 m 0.75,-0.34 c -0.38,1.24 -0.76,2.45 -1.15,3.69 h -0.01 c -0.21,0.71 -0.42,1.4 -0.64,2.11 -0.13,0.44 -0.27,0.88 -0.41,1.33 m 1.24,-7.24 -2.27,1.15 m 2.27,-1.15 0.21,0.46 0.01,-0.01 m -0.22,-0.45 0.23,0.45 h -0.01 m -2.49,0.7 c -0.08,0.3 -0.18,0.59 -0.28,0.88 m 0.28,-0.88 0.22,0.45 0.2,-0.1 m -0.42,-0.35 0.48,0.14 c -0.02,0.07 -0.04,0.14 -0.06,0.21 m -0.7,0.53 c -0.63,2.09 -1.28,4.17 -1.95,6.3 -0.32,1.03 -0.64,2.08 -0.97,3.14 -5.6,17.87 -11.94,36.97 -18.89,57.13 -1.36,3.91 -2.76,7.97 -4.16,12.03 -5.54,15.84 -11.41,32.2 -17.6,49.07 -0.55,1.51 -1.1,3 -1.66,4.5 -0.61,1.64 -1.23,3.29 -1.85,4.99 -0.53,1.46 -1.07,2.91 -1.62,4.38 -0.2,0.54 -0.4,1.08 -0.6,1.63 l -2.19,5.91 c -4.47,11.98 -9.08,24.14 -13.81,36.5 m 65.3,-185.58 0.48,0.16 v -0.01 c 0,0 0,0 0,0 m -0.48,-0.15 0.48,0.15 c 0,0 0,0 0,0 m -65.78,185.43 3.35,2.74 c 0.06,-0.17 0.12,-0.33 0.18,-0.5 m -3.53,-2.24 0.47,0.18 c 0.04,-0.11 0.09,-0.23 0.13,-0.34 m -0.6,0.16 0.32,-0.39 0.28,0.23 m 2.93,2.4 c 4.65,-12.38 9.15,-24.58 13.53,-36.62 v 0 c 1.19,-3.25 2.36,-6.49 3.52,-9.72 0.32,-0.88 0.64,-1.76 0.96,-2.64 v -0.01 l 0.13,-0.33 0.47,0.17 -0.47,-0.18 v 0 c 0.87,-2.38 1.75,-4.83 2.59,-7.25 v 0 c 6.14,-17.2 12,-33.93 17.51,-50.04 m -38.24,106.62 -2.93,-2.4 m 0,0 c 4.68,-12.24 9.24,-24.29 13.67,-36.16 h 0.01 l 2.19,-5.92 c 0.2,-0.54 0.4,-1.09 0.6,-1.63 0.55,-1.46 1.09,-2.92 1.62,-4.38 v 0 c 0.63,-1.71 1.24,-3.35 1.84,-4.98 0.56,-1.5 1.11,-2.99 1.67,-4.51 m 0,0 c 6.19,-16.87 12.06,-33.23 17.61,-49.07 v -0.01 c 1.39,-4.06 2.79,-8.12 4.15,-12.03 v 0 c 6.96,-20.16 13.29,-39.27 18.9,-57.14 v 0 c 0.32,-1.06 0.65,-2.1 0.97,-3.14 0.66,-2.12 1.31,-4.21 1.95,-6.3 m -43.58,127.69 -0.46,-0.16 0.46,0.17 c 0,0 0,-0.01 0,-0.01 z m 43.58,-127.69 c 0.07,-0.22 0.15,-0.45 0.22,-0.68 m 0,0 2.07,-1.05 m -1.46,6.79 c -0.11,0.32 -0.23,0.67 -0.33,1.02 m 0,0 c -5.99,19.22 -12.76,40.11 -20.21,62.26 v 0 c -1.41,4.19 -2.84,8.42 -4.3,12.71" /></g></g><g
   style="fill:none"
   id="medium_plant_1"
   transform="matrix(1,0,0,1.0371671,-426.64477,-3536.4572)"><path
     style="fill:#8f8960"
     inkscape:connector-curvature="0"
     d="m 1046.24,1538.42 c 0,0 41.9,-78.68 71.81,-77.46 0,0 -22.76,79.38 -70.2,91.26 z"
     id="Vector_19" /><path
     style="fill:#b9b435"
     inkscape:connector-curvature="0"
     d="m 1049.8,1466.69 c 0,0 29.67,-87.1 60.11,-91.43 0,0 -11.43,72.56 -57.81,98.41 z"
     id="Vector_20" /><path
     style="fill:#b9b435"
     inkscape:connector-curvature="0"
     d="m 1047.97,1372.27 c 0,0 28.89,-68.86 54.04,-77.23 0,0 -13.22,83.28 -50.23,95.17 z"
     id="Vector_21" /><path
     style="fill:#b9b435"
     inkscape:connector-curvature="0"
     d="m 1044.86,1310.03 8.3,-125.84 c 0,0 35.28,99.26 -7.2,148.31 z"
     id="Vector_22" /><path
     style="fill:#8f8960"
     inkscape:connector-curvature="0"
     d="m 1022.74,1181.83 c 0,0 -23.115,-94.92 -30.389,-100.83 0,0 57.489,65.97 43.579,141.77 z"
     id="Vector_23" /><path
     style="fill:#8f8960"
     inkscape:connector-curvature="0"
     d="m 1051.48,1537.25 c 0,0 -28.56,-84.6 -58.172,-88.37 0,0 9.472,82.08 54.322,101.73 z"
     id="Vector_24" /><path
     style="fill:#8f8960"
     inkscape:connector-curvature="0"
     d="m 1051.36,1465.07 c 0,0 -32.45,-86.06 -63.024,-89.39 0,0 13.774,72.16 60.944,96.46 z"
     id="Vector_25" /><path
     style="fill:#b9b435"
     inkscape:connector-curvature="0"
     d="m 1053.97,1377.96 c 0,0 -23.62,-70.9 -48.05,-81.18 0,0 6.89,84.14 42.89,98.8 z"
     id="Vector_26" /><path
     style="fill:#8f8960"
     inkscape:connector-curvature="0"
     d="m 1041.49,1307.3 -57.471,-111.93 c 0,0 6.988,105.27 65.381,132.95 z"
     id="Vector_27" /><path
     style="fill:#8f8960"
     inkscape:connector-curvature="0"
     d="m 1006.26,1188.64 c 0,0 -73.527,-63.42 -75.493,-72.63 0,0 32.539,81.57 105.833,102.92 z"
     id="Vector_28" /><path
     style="fill:#b9b435"
     inkscape:connector-curvature="0"
     d="m 1040.17,1261.49 c 0,0 -81.912,-97.72 -105.111,-100.03 0,0 74.551,11.22 107.761,95.54 z"
     id="Vector_29" /><path
     style="fill:#444053"
     inkscape:connector-curvature="0"
     d="m 1051.77,1390.98 -3.36,0.08 c -3.36,-136.92 -20.16,-219.36 -47.34,-232.16 l 1.41,-3.07 c 28.74,13.54 45.79,94.86 49.29,235.15 z"
     id="Vector_30" /><path
     style="fill:#444053"
     inkscape:connector-curvature="0"
     d="m 1052.3,1459.55 c 0,4.61 0,9.28 0,13.99 -0.11,17.82 -0.35,36.37 -0.73,55.47 0,2.68 -0.12,5.37 -0.17,8.07 -0.01,0.13 -0.01,0.26 0,0.39 -0.1,4.53 -0.22,9.12 -0.34,13.75 -0.12,4.63 -0.26,9.44 -0.4,14.43 -1.5,-0.48 -2.99,-0.99 -4.47,-1.5 0.17,-4.69 0.34,-9.36 0.5,-14 0,-2.19 0.16,-4.37 0.22,-6.54 0.07,-2.18 0.15,-4.54 0.2,-6.8 0.13,-3.54 0.24,-7.05 0.34,-10.56 0.54,-18.79 0.92,-37.01 1.16,-54.51 0,-4.54 0.04,-8.98 0.13,-13.34 0.21,-22.3 0.14,-43.37 -0.21,-62.99 -0.07,-3.63 -0.15,-7.21 -0.24,-10.74 0,-0.18 0,-0.35 0,-0.54 l 1.86,-1.9 1.4,-1.43 c 0,1.7 0,3.4 0.13,5.22 0,1.25 0,2.51 0,3.79 0,0.39 0,0.76 0,1.15 0.47,21.11 0.69,44.12 0.62,68.59 z"
     id="Vector_31" /></g><g
   style="fill:none"
   id="second_plant"
   transform="matrix(1,0,0,1.0371671,718.32209,-3524.2148)"><path
     style="fill:#6c63ff"
     inkscape:connector-curvature="0"
     d="m 692.483,1488.62 c 0,0 -35.63,-65.55 -61.483,-71.29 0,0 21.485,81.57 59.484,89.56 z"
     id="Vector_32" /><path
     style="fill:#444053"
     inkscape:connector-curvature="0"
     d="m 693.164,1461.3 3.247,-0.24 c -10.003,-130.58 -1.721,-210.62 23.126,-225.44 l -1.624,-2.79 c -26.39,15.69 -34.915,94.68 -24.749,228.47 z"
     id="second_plant_stem" /><path
     style="fill:#6c63ff"
     inkscape:connector-curvature="0"
     d="m 689.358,1426.41 -20.813,-124.35 c 0,0 -25.198,102.37 21.989,146.81 z"
     id="Vector_33" /><path
     style="fill:#6c63ff"
     inkscape:connector-curvature="0"
     d="m 698.581,1296.59 c 0,0 13.438,-96.87 20.158,-103.42 0,0 -50.614,71.52 -29.196,145.49 z"
     id="Vector_34" /><path
     style="fill:#6c63ff"
     inkscape:connector-curvature="0"
     d="m 754.587,1559.23 c 0,0 0,2.43 -0.319,6.6 l -4.67,-3.98 -0.454,-0.39 c 0.123,-0.08 0.253,-0.16 0.387,-0.22 1.587,-0.9 3.288,-1.57 5.056,-2.01 z"
     id="Vector_35" /><path
     style="fill:#6c63ff"
     inkscape:connector-curvature="0"
     d="m 687.074,1494.91 c 0,0 16.429,-72.94 39.711,-85.67 0,0 1.546,84.4 -32.807,102.68 z"
     id="Vector_36" /><path
     style="fill:#6c63ff"
     inkscape:connector-curvature="0"
     d="m 692.449,1423.33 45.995,-117.26 c 0,0 3.578,105.45 -51.774,138.94 z"
     id="Vector_37" /><path
     style="fill:#6c63ff"
     inkscape:connector-curvature="0"
     d="m 715.648,1301.7 c 0,0 66.825,-70.63 67.849,-79.99 0,0 -24.223,84.44 -94.928,113.2 z"
     id="Vector_38" /><path
     style="fill:#6c63ff"
     inkscape:connector-curvature="0"
     d="m 715.329,1276.26 c 0,0 71.73,-105.59 94.576,-110.26 0,0 -73.057,18.78 -97.667,106.08 z"
     id="Vector_39" /></g><g
   style="fill:none"
   id="Tree_1"
   transform="matrix(1,0,0,1.0371671,1031.1223,-1551.3023)"><path
     style="opacity:0.5;fill:#3f3703"
     inkscape:connector-curvature="0"
     d="m 1178.92,-149.974 c 0,0 78.42,-3.332 86.69,-157.734 8.26,-154.402 -73.48,-180.566 -73.48,-180.566 0,0 -26.06,-14.56 -37.22,-15.159 -11.17,-0.599 -49.85,3.032 -49.85,3.032 l 42.29,-8.198 c 0,0 -59.56,-22.795 -77.35,-24.629 l 64.36,13.699 c 0,0 0.89,-35.858 -14.52,-47.724 0,0 13.14,-0.973 20.18,24.854 1.97,7.452 5.66,14.333 10.76,20.093 5.1,5.759 11.47,10.236 18.61,13.071 23.86,9.358 56.87,24.143 64.39,36.794 0,0 13.89,14.598 11.76,-23.394 -2.12,-37.992 -12.24,-70.594 -15.96,-71.493 0,0 -28.41,-30.356 -68.27,-32.19 0,0 23.26,-9.433 62.53,20.063 0,0 3.32,-14.972 -11.46,-32.528 -14.78,-17.555 -37.67,-54.536 -62.76,-58.654 0,0 35.06,-2.133 62.87,43.458 0,0 10.27,6.7 11.17,-10.331 1.12,-12.955 3.46,-25.774 6.96,-38.292 0,0 8.45,39.19 -9.38,56.82 0,0 34.13,44.692 32.64,94.812 0,0 10.57,22.795 14.48,-3.968 0,0 2.27,-36.794 6.85,-68.049 1.83,-12.588 1.06,-25.421 -2.26,-37.697 -3.32,-12.276 -9.13,-23.73 -17.06,-33.646 -7.44,-9.47 -12.8,-18.715 -9.86,-23.469 l 39.57,47.425 c 0,0 33.31,-77.482 57.4,-94.064 24.08,-16.581 27.21,-20.362 27.21,-20.362 l -38.98,45.89 48.95,-17.33 -48.95,22.795 c 0,0 -22.67,18.528 -35.66,69.284 -12.99,50.756 -14.22,82.348 -14.22,82.348 0,0 69.83,-55.622 83.12,-53.788 l -45.19,34.362 c -12.28,9.344 -22.42,21.23 -29.74,34.855 -7.32,13.626 -11.65,28.672 -12.69,44.123 0,0 87.33,-22.458 108.47,-26.725 l 39.9,-41.174 -30.22,39.078 62.23,-0.899 35.66,-25.527 c 0,0 -28.1,23.693 -25.38,25.191 2.71,1.497 43.81,3.368 43.81,3.368 0,0 -104.56,-0.636 -116.03,6.962 -11.46,7.599 -37.22,10.331 -37.22,10.331 l 74.04,11.23 -88.22,-6.401 c 0,0 -66.78,12.165 -70.43,33.126 0,0 13.63,35.672 22.67,49.821 7.45,11.79 22.67,49.857 25.69,83.283 3.01,33.426 7.44,84.781 -4.21,116.035 -11.65,31.255 -15.71,49.072 -9.87,58.505 5.85,9.432 11.17,21.597 -7.44,24.03 -18.61,2.433 -100.95,-1.235 -100.95,-1.235 0,0 -25.27,4.978 -20.43,-13.512 z"
     id="Vector_40"
     inkscape:transform-center-x="194.76241"
     inkscape:transform-center-y="472.1513" /></g><g
   style="fill:none"
   id="big_plant"
   transform="matrix(1,0,0,1.0371671,1237.6885,-2440.754)"><path
     style="fill:#6c63ff"
     inkscape:connector-curvature="0"
     d="m 527.382,629.976 c 0,0 56.318,-61.058 97.437,-45.903 0,0 -48.166,63.348 -105.005,64.972 z"
     id="Vector_41" /><path
     style="fill:#6c63ff"
     inkscape:connector-curvature="0"
     d="m 552.878,560.796 c 0,0 62.246,-58.476 89.317,-48.194 0,0 -44.934,64.973 -92.029,61.189 z"
     id="Vector_42" /><path
     style="fill:#6c63ff"
     inkscape:connector-curvature="0"
     d="m 577.741,496.911 c 0,0 53.59,-69.845 82.821,-64.436 0,0 -32.479,62.26 -82.821,71.47 z"
     id="Vector_43" /><path
     style="fill:#6c63ff"
     inkscape:connector-curvature="0"
     d="m 604.844,410.774 c 0,0 47.371,-53.603 72.948,-53.424 0,0 -37.351,71.47 -74.896,70.885 z"
     id="Vector_44" /><path
     style="fill:#6c63ff"
     inkscape:connector-curvature="0"
     d="m 620.775,353.419 45.78,-111.526 c 0,0 2.289,100.822 -51.577,132.22 z"
     id="Vector_45" /><path
     style="fill:#6c63ff"
     inkscape:connector-curvature="0"
     d="m 639.353,230.425 c 0,0 7.568,-93.138 2.696,-100.707 0,0 32.723,77.415 -3.02,141.851 z"
     id="Vector_46" /><path
     style="fill:#6c63ff"
     inkscape:connector-curvature="0"
     d="m 532.026,627.166 c 0,0 -13.349,-82.012 -56.026,-92.034 0,0 5.294,79.413 51.82,112.078 z"
     id="Vector_47" /><path
     style="fill:#6c63ff"
     inkscape:connector-curvature="0"
     d="m 557.912,561.381 c 0,0 -0.455,-85.407 -26.551,-97.963 0,0 -16.24,77.318 18.984,108.829 z"
     id="Vector_48" /><path
     style="fill:#6c63ff"
     inkscape:connector-curvature="0"
     d="m 579.738,495.953 c 0,0 -3.654,-87.973 -30.676,-100.367 0,0 -9.257,69.619 26.632,106.117 z"
     id="Vector_49" /><path
     style="fill:#6c63ff"
     inkscape:connector-curvature="0"
     d="m 608.547,417.791 c 0,0 -0.179,-71.47 -19.487,-88.331 0,0 -19.196,78.374 9.37,102.722 z"
     id="Vector_50" /><path
     style="fill:#6c63ff"
     inkscape:connector-curvature="0"
     d="M 618.502,349.911 599.745,230.815 c 0,0 -25.512,97.573 19.65,140.569 z"
     id="Vector_51" /><path
     style="fill:#6c63ff"
     inkscape:connector-curvature="0"
     d="m 622.172,231.546 c 0,0 -48.183,-80.046 -47.192,-89.013 0,0 5.115,83.897 65.77,125.723 z"
     id="Vector_52" /><path
     style="fill:#6c63ff"
     inkscape:connector-curvature="0"
     d="m 627.823,207.912 c 0,0 -45.47,-113.7021 -66.046,-122.912 0,0 64.958,33.039 69.83,119.664 z"
     id="Vector_53" /><path
     style="fill:#444053"
     inkscape:connector-curvature="0"
     d="m 602.571,428.917 -3.102,-0.958 c 38.374,-125.154 47.939,-205.054 26.958,-224.952 l 2.241,-2.372 c 22.248,21.117 13.219,100.042 -26.097,228.282 z"
     id="Vector_54" /><path
     style="fill:#444053"
     inkscape:connector-curvature="0"
     d="m 605.397,419.61 -1.462,4.743 -1.072,3.525 c -0.13,0.341 -0.227,0.682 -0.325,1.023 -5.992,19.232 -12.748,40.121 -20.218,62.26 -1.396,4.207 -2.842,8.447 -4.303,12.735 -5.505,16.129 -11.368,32.86 -17.506,50.045 -0.845,2.421 -1.722,4.873 -2.599,7.277 l -0.162,0.39 c -1.462,4.093 -2.956,8.122 -4.466,12.329 -5.716,15.702 -11.671,31.707 -17.864,48.015 -1.624,4.532 -3.442,9.063 -5.196,13.628 -1.332,3.476 -2.68,6.984 -4.044,10.493 -0.325,0.877 -0.666,1.754 -1.023,2.631 -2.956,7.635 -5.96,15.312 -9.013,23.033 l -3.914,-3.249 c 2.577,-6.497 5.132,-12.962 7.665,-19.394 0.796,-2.03 1.624,-4.044 2.371,-6.059 1.624,-4.239 3.248,-8.446 4.872,-12.637 l 0.146,-0.373 c 1.148,-2.989 2.301,-5.962 3.459,-8.918 6.496,-16.812 12.765,-33.331 18.79,-49.444 l 2.192,-5.913 c 0.747,-2.014 1.494,-4.012 2.225,-6.01 1.185,-3.248 2.354,-6.335 3.508,-9.486 6.187,-16.86 12.065,-33.25 17.587,-49.054 1.418,-4.072 2.809,-8.1 4.173,-12.085 6.951,-20.142 13.268,-39.26 18.871,-57.128 1.039,-3.248 2.03,-6.497 3.004,-9.632 0,-0.227 0.146,-0.455 0.211,-0.682 l 2.274,-1.153 z"
     id="Vector_55" /></g><rect
   ry="0.091528498"
   y="148.35286"
   x="1024.0236"
   height="105.10811"
   width="278.68924"
   id="rect1847"
   style="fill:#333333;fill-rule:evenodd;stroke-width:0.31475604" /><g
   id="g3523"
   transform="translate(-10,-14)"><path
     id="path1488"
     d="m 70.698789,192.03427 c 0,0 56.109381,70.7602 48.427971,103.99664 0,0 -60.957764,-49.46723 -60.266111,-106.34216 z"
     inkscape:connector-curvature="0"
     style="fill:#129647;fill-opacity:1;stroke-width:1.00082719" /><path
     id="path1490"
     d="m 129.57248,217.62749 c 0,0 65.83934,59.55459 62.65647,95.05727 0,0 -57.81003,-34.68498 -68.9753,-94.57449 z"
     inkscape:connector-curvature="0"
     style="fill:#129647;fill-opacity:1;stroke-width:1.00082719" /><path
     id="path1492"
     d="m 208.5218,243.99563 c 0,0 50.84061,53.18732 52.1974,83.96289 0,0 -66.32827,-39.92316 -67.96964,-85.08301 z"
     inkscape:connector-curvature="0"
     style="fill:#129647;fill-opacity:1;stroke-width:1.00082719" /><path
     id="path1494"
     d="m 260.98812,259.23825 102.82758,47.2078 c 0,0 -90.43099,9.7557 -121.76398,-52.73634 z"
     inkscape:connector-curvature="0"
     style="fill:#129647;fill-opacity:1;stroke-width:1.00082719" /><path
     id="path1496"
     d="m 400.48174,279.00953 c 0,0 82.51542,25.11047 89.85296,20.56288 0,0 -72.96672,25.93294 -126.65685,-28.02064 z"
     inkscape:connector-curvature="0"
     style="fill:#129647;fill-opacity:1;stroke-width:1.00509048" /><path
     id="path1498"
     d="m 70.50405,198.27361 c 0,0 76.73859,-6.61911 86.47475,-38.75324 0,0 -70.387856,-14.06758 -96.729855,30.40588 z"
     inkscape:connector-curvature="0"
     style="fill:#129647;fill-opacity:1;stroke-width:1.00082719" /><path
     id="path1500"
     d="m 130.57233,219.86783 c 0,0 78.82008,-10.54995 88.40466,-43.89725 0,0 -63.09494,-6.24805 -93.82208,39.43202 z"
     inkscape:connector-curvature="0"
     style="fill:#129647;fill-opacity:1;stroke-width:1.00082719" /><path
     id="path1502"
     d="m 200.62838,245.44987 c 0,0 64.24139,-5.19327 78.23776,-29.54553 0,0 -71.52592,-17.58856 -91.74453,18.444 z"
     inkscape:connector-curvature="0"
     style="fill:#129647;fill-opacity:1;stroke-width:1.00082719" /><path
     id="path1504"
     d="m 269.26118,251.60538 105.91643,-30.87304 c 0,0 -89.12435,-23.83944 -125.16454,33.43199 z"
     inkscape:connector-curvature="0"
     style="fill:#129647;fill-opacity:1;stroke-width:1.00082719" /><path
     id="path1506"
     d="m 378.67332,253.49649 c 0,0 59.08875,-39.46384 66.01033,-37.24657 0,0 -64.18376,-5.83661 -93.32173,51.73633 z"
     inkscape:connector-curvature="0"
     style="fill:#129647;fill-opacity:1;stroke-width:0.85529459" /><path
     id="path1508"
     d="m 441.98724,241.72602 c 0,0 99.5437,-62.61012 106.636,-87.97868 0,0 -25.94967,80.38 -103.49175,92.3076 z"
     inkscape:connector-curvature="0"
     style="fill:#129647;fill-opacity:1;stroke-width:1.00082719" /><path
     sodipodi:nodetypes="ccccc"
     id="path1510"
     d="m 192.1113,242.63247 0.68236,-3.79904 c 114.64311,37.44339 294.07808,38.87396 310.78362,12.19068 l 2.23945,2.13226 c -17.6688,28.21318 -196.22784,27.77666 -313.70543,-10.5239 z"
     inkscape:connector-curvature="0"
     style="fill:#129647;fill-opacity:1;stroke-width:1.00082719" /><path
     id="path1512"
     d="m 134.95455,222.58565 c -3.83474,-1.38778 -7.7194,-2.79366 -11.63732,-4.21157 -14.7987,-5.48808 -30.175648,-11.34203 -45.978902,-17.51881 -2.229313,-0.80676 -4.440204,-1.7514 -6.675001,-2.62037 -0.105829,-0.0504 -0.214125,-0.0896 -0.324408,-0.11709 -3.745919,-1.47609 -7.53724,-2.99267 -11.3619,-4.52127 -3.824633,-1.52866 -7.794531,-3.13395 -11.914148,-4.79341 0.733617,-1.54075 1.489936,-3.0612 2.244033,-4.57048 3.863411,1.60286 7.710183,3.19972 11.534212,4.77634 1.821697,0.65922 3.599433,1.49526 5.391136,2.21596 1.797748,0.73489 3.743027,1.53523 5.611867,2.27174 2.915689,1.21177 5.810872,2.39197 8.708313,3.56097 15.509763,6.26319 30.581008,12.17507 45.084568,17.71293 3.77649,1.36669 7.46088,2.74827 11.06762,4.1619 18.50303,6.94914 36.04528,13.21338 52.44381,18.72654 3.03516,1.01416 6.03095,2.00198 8.98737,2.96354 0.1496,0.0541 0.29113,0.10549 0.44916,0.1625 l 1.16593,2.66172 0.87749,2.00334 c -1.41412,-0.51176 -2.82824,-1.02354 -4.37115,-1.42536 -1.03979,-0.3763 -2.08789,-0.75561 -3.15265,-1.14094 -0.32439,-0.11736 -0.63218,-0.22881 -0.95659,-0.34619 -17.66472,-5.82692 -36.85418,-12.50664 -57.19344,-19.95172 z"
     inkscape:connector-curvature="0"
     style="fill:#129647;fill-opacity:1;stroke-width:1.00082719" /></g><path
   id="path1539"
   d="m 1196.5996,201.50647 c 17.2787,7.71038 41.0483,5.05409 41.0483,5.05409 0,0 -24.6433,8.71269 -44.0419,1.32014 -16.4571,-6.27156 -19.8956,-26.90786 -1.3111,-33.52221 24.9485,-7.20667 30.4484,-1.47857 34.7887,7.99659 4.2167,9.20536 -31.8135,9.31701 -34.5948,9.60254 0,0 31.3202,-9.34323 26.3766,-15.05242 -1.4136,-1.63231 -1.6817,-3.57525 -13.6241,-2.43479 -16.9613,2.96292 -19.5874,21.73301 -8.6417,27.03606 z"
   inkscape:connector-curvature="0"
   style="fill:#ffffff;fill-opacity:1;stroke-width:0.51522309"
   sodipodi:nodetypes="ccscscscc" /><path
   d="m 1035.5902,185.36921 v -14.73805 h 2.5776 v 2.76848 q 0.7328,-1.47926 1.8973,-2.27995 1.1776,-0.81422 2.5515,-0.81422 0.3925,0 0.8243,0.0676 v 2.49703 q -0.6542,-0.23074 -1.1776,-0.23074 -1.2168,0 -2.2505,0.75999 -1.0206,0.74645 -1.845,2.25276 v 9.7168 z"
   style="font-style:normal;font-variant:normal;font-weight:normal;font-stretch:normal;font-size:139.02207947px;line-height:3;font-family:'Lucida Sans';-inkscape-font-specification:'Lucida Sans';letter-spacing:0px;word-spacing:0px;fill:#ffffff;fill-opacity:1;stroke:none;stroke-width:0.68226868;stroke-opacity:1"
   id="path1584"
   inkscape:connector-curvature="0" /><path
   d="m 1061.5501,190.26832 0.3009,-2.32066 q 2.2375,1.09933 4.4226,1.09933 2.4468,0 3.3889,-1.30289 0.9552,-1.28922 0.9552,-3.48775 v -2.32052 q -0.5626,1.22132 -1.7533,2.15768 -1.1907,0.93648 -2.9048,0.93648 -2.9179,0 -4.2525,-2.17134 -1.3347,-2.185 -1.3347,-4.95348 0,-2.10345 0.7851,-3.92191 0.7851,-1.83214 2.1721,-2.75496 1.4,-0.92283 3.1926,-0.92283 0.7982,0 1.4786,0.19003 0.6935,0.19003 1.2823,0.56995 0.6019,0.37993 1.3346,1.24852 v -1.68281 h 2.5907 v 10.72105 q 0,4.68203 -0.7589,6.40556 -0.7458,1.72352 -2.3552,2.51055 -1.5963,0.78717 -3.8076,0.78717 -0.7197,0 -1.5571,-0.0814 -0.8243,-0.0814 -1.4785,-0.21722 -0.6412,-0.12282 -1.701,-0.48853 z m 9.0676,-10.00178 v -6.12044 q -0.8505,-0.92283 -1.7795,-1.37065 -0.9159,-0.46148 -1.9235,-0.46148 -1.714,0 -2.7608,1.43854 -1.0337,1.42489 -1.0337,4.13913 0,2.13063 0.772,3.47423 0.772,1.32994 2.5123,1.32994 1.1252,0 2.172,-0.6108 1.0598,-0.61067 2.0412,-1.81847 z"
   style="font-style:normal;font-variant:normal;font-weight:normal;font-stretch:normal;font-size:139.02207947px;line-height:3;font-family:'Lucida Sans';-inkscape-font-specification:'Lucida Sans';letter-spacing:0px;word-spacing:0px;fill:#ffffff;fill-opacity:1;stroke:none;stroke-width:0.68226868"
   id="path1588"
   inkscape:connector-curvature="0" /><path
   d="m 1093.1102,185.36921 v -14.73805 h 2.5776 v 2.76848 q 0.9814,-1.47926 2.2768,-2.27995 1.3084,-0.81422 2.7085,-0.81422 1.8056,0 2.9309,1.19428 1.1253,1.18062 1.1253,3.2842 v 10.58526 h -2.5777 v -9.71681 q 0,-1.53349 -0.2617,-2.02202 -0.2617,-0.48853 -0.7327,-0.74646 -0.471,-0.27131 -1.0075,-0.27131 -0.9552,0 -2.0674,0.61066 -1.0991,0.61067 -2.3945,2.60564 v 9.5403 z"
   style="font-style:normal;font-variant:normal;font-weight:normal;font-stretch:normal;font-size:139.02207947px;line-height:3;font-family:'Lucida Sans';-inkscape-font-specification:'Lucida Sans';letter-spacing:0px;word-spacing:0px;fill:#ffffff;fill-opacity:1;stroke:none;stroke-width:0.68226868"
   id="path1592"
   inkscape:connector-curvature="0" /><path
   d="m 1124.6703,185.36921 v -14.73805 h 2.5776 v 2.76848 q 0.7328,-1.47926 1.8973,-2.27995 1.1776,-0.81422 2.5515,-0.81422 0.3925,0 0.8243,0.0676 v 2.49703 q -0.6542,-0.23074 -1.1776,-0.23074 -1.2168,0 -2.2505,0.75999 -1.0206,0.74645 -1.845,2.25276 v 9.7168 z"
   style="font-style:normal;font-variant:normal;font-weight:normal;font-stretch:normal;font-size:139.02207947px;line-height:3;font-family:'Lucida Sans';-inkscape-font-specification:'Lucida Sans';letter-spacing:0px;word-spacing:0px;fill:#ffffff;fill-opacity:1;stroke:none;stroke-width:0.68226868"
   id="path1596"
   inkscape:connector-curvature="0" /><path
   d="m 1142.9887,183.49637 q -1.1514,1.09933 -2.2767,1.65576 -1.1122,0.55643 -2.1851,0.55643 -1.5048,0 -2.8001,-1.03144 -1.2954,-1.03144 -1.2954,-3.01275 0,-2.17134 1.8057,-3.5827 1.8057,-1.42502 5.7703,-1.42502 h 0.6019 v -1.77775 q 0,-1.05849 -0.2748,-1.5335 -0.2748,-0.48853 -0.8636,-0.75998 -0.5757,-0.27145 -1.4393,-0.27145 -2.002,0 -4.3702,1.30289 v -2.21206 q 2.6038,-1.09933 4.9067,-1.09933 1.2561,0 2.3029,0.42077 1.0598,0.40711 1.6879,1.30275 0.6281,0.88212 0.6281,2.84991 v 6.67686 q 0,1.11286 0.17,1.50645 0.1701,0.37992 0.4711,0.58347 0.314,0.20356 0.7196,0.20356 0.1702,0 0.4973,-0.0538 l 0.1831,1.47926 q -0.8766,0.43429 -1.9365,0.43429 -0.7066,0 -1.3608,-0.475 -0.6542,-0.47501 -0.9421,-1.73719 z m -0.3794,-1.45207 v -3.81345 l -0.8244,-0.0276 q -2.0281,0 -3.402,0.81421 -1.3738,0.81422 -1.3738,2.21206 0,0.96354 0.6673,1.62857 0.6804,0.6649 1.5832,0.6649 0.8113,0 1.6487,-0.3664 0.8374,-0.37992 1.701,-1.11285 z"
   style="font-style:normal;font-variant:normal;font-weight:normal;font-stretch:normal;font-size:139.02207947px;line-height:3;font-family:'Lucida Sans';-inkscape-font-specification:'Lucida Sans';letter-spacing:0px;word-spacing:0px;fill:#ffffff;fill-opacity:1;stroke:none;stroke-width:0.68226868"
   id="path1598"
   inkscape:connector-curvature="0" /><path
   d="m 1156.8061,185.36921 q -1.1907,0.33935 -2.0674,0.33935 -1.9103,0 -3.0356,-1.14005 -1.1253,-1.15343 -1.1253,-3.27054 v -8.65831 h -1.7795 v -2.0085 h 1.7795 v -2.6734 l 2.5777,-0.25793 v 2.93133 h 3.716 v 2.0085 h -3.716 v 8.16978 q 0,1.54702 0.5757,2.22558 0.5757,0.66504 1.8318,0.66504 0.5103,0 1.2431,-0.17651 z"
   style="font-style:normal;font-variant:normal;font-weight:normal;font-stretch:normal;font-size:139.02207947px;line-height:3;font-family:'Lucida Sans';-inkscape-font-specification:'Lucida Sans';letter-spacing:0px;word-spacing:0px;fill:#ffffff;fill-opacity:1;stroke:none;stroke-width:0.68226868"
   id="path1600"
   inkscape:connector-curvature="0" /><path
   d="m 1160.5221,185.36921 v -14.73805 h 2.5777 v 14.73805 z m 0,-17.41145 v -2.67354 h 2.5777 v 2.67354 z"
   style="font-style:normal;font-variant:normal;font-weight:normal;font-stretch:normal;font-size:139.02207947px;line-height:3;font-family:'Lucida Sans';-inkscape-font-specification:'Lucida Sans';letter-spacing:0px;word-spacing:0px;fill:#ffffff;fill-opacity:1;stroke:none;stroke-width:0.68226868"
   id="path1602"
   inkscape:connector-curvature="0" /><path
   d="m 1171.2123,185.36921 -5.2862,-14.73805 h 2.5776 l 4.1348,11.46751 4.3571,-11.46751 h 2.4076 l -5.6133,14.73805 z"
   style="font-style:normal;font-variant:normal;font-weight:normal;font-stretch:normal;font-size:139.02207947px;line-height:3;font-family:'Lucida Sans';-inkscape-font-specification:'Lucida Sans';letter-spacing:0px;word-spacing:0px;fill:#ffffff;fill-opacity:1;stroke:none;stroke-width:0.68226868"
   id="path1604"
   inkscape:connector-curvature="0" /><g
   transform="matrix(0.19275573,0,0,0.1999199,974.64716,-117.74455)"
   id="text1537"
   style="font-style:normal;font-variant:normal;font-weight:normal;font-stretch:normal;font-size:146.55354309px;line-height:3;font-family:'Lucida Sans';-inkscape-font-specification:'Lucida Sans';letter-spacing:0px;word-spacing:0px;fill:#ffffff;fill-opacity:1;stroke:none;stroke-width:3.66383839"
   aria-label="arth"><path
     inkscape:connector-curvature="0"
     id="path1607"
     style="fill:#ffffff;fill-opacity:1;stroke-width:3.66383839"
     d="m 1397.2677,1584.4929 q -6.2972,5.7963 -12.4513,8.7302 -6.0826,2.9339 -11.9504,2.9339 -8.2293,0 -15.3137,-5.4385 -7.0844,-5.4385 -7.0844,-15.8862 0,-11.4495 9.8752,-18.8916 9.8752,-7.5138 31.5577,-7.5138 h 3.2917 v -9.3742 q 0,-5.5817 -1.5028,-8.0862 -1.5027,-2.5762 -4.7229,-4.0074 -3.1486,-1.4312 -7.8715,-1.4312 -10.9486,0 -23.9008,6.8697 v -11.6641 q 14.2403,-5.7963 26.8347,-5.7963 6.8697,0 12.5945,2.2183 5.7963,2.1468 9.2311,6.8697 3.4349,4.6514 3.4349,15.0275 v 35.2072 q 0,5.8678 0.9303,7.9431 0.9302,2.0036 2.5761,3.077 1.7174,1.0734 3.9358,1.0734 0.9302,0 2.7192,-0.2862 l 1.0018,7.7999 q -4.7944,2.2899 -10.5907,2.2899 -3.8642,0 -7.4422,-2.5046 -3.578,-2.5045 -5.1523,-9.1595 z m -2.0752,-7.6569 v -20.1082 l -4.5082,-0.1431 q -11.0917,0 -18.6055,4.2936 -7.5137,4.2935 -7.5137,11.6641 0,5.0808 3.6495,8.5872 3.7211,3.5064 8.6587,3.5064 4.4367,0 9.0165,-1.9321 4.5798,-2.0037 9.3027,-5.8679 z" /><path
     inkscape:connector-curvature="0"
     id="path1609"
     style="fill:#ffffff;fill-opacity:1;stroke-width:3.66383839"
     d="m 1438.1997,1594.368 v -77.7134 h 14.0972 v 14.5981 q 4.0073,-7.8 10.3761,-12.022 6.4403,-4.2935 13.954,-4.2935 2.1468,0 4.5083,0.3578 v 13.1669 q -3.578,-1.2165 -6.4404,-1.2165 -6.655,0 -12.3082,4.0073 -5.5816,3.9358 -10.0898,11.8788 v 51.2365 z" /><path
     inkscape:connector-curvature="0"
     id="path1611"
     style="fill:#ffffff;fill-opacity:1;stroke-width:3.66383839"
     d="m 1532.9442,1594.368 q -6.5119,1.789 -11.3063,1.789 -10.4477,0 -16.6018,-6.011 -6.1541,-6.0825 -6.1541,-17.2458 v -45.6548 h -9.7321 v -10.5908 h 9.7321 v -14.0972 l 14.0972,-1.3596 v 15.4568 h 20.3228 v 10.5908 h -20.3228 v 43.0787 q 0,8.1578 3.1486,11.7357 3.1486,3.5064 10.0183,3.5064 2.7908,0 6.7981,-0.9302 z" /><path
     inkscape:connector-curvature="0"
     id="path1613"
     style="fill:#ffffff;fill-opacity:1;stroke-width:3.66383839"
     d="m 1553.2671,1594.368 v -112.9922 h 14.0972 v 49.8769 q 5.3669,-7.8 12.4513,-12.022 7.156,-4.2935 14.8128,-4.2935 9.8752,0 16.0293,6.2972 6.1541,6.2257 6.1541,17.3174 v 55.8162 h -14.0972 v -51.2365 q 0,-8.0862 -1.4312,-10.6623 -1.4312,-2.5761 -4.0073,-3.9358 -2.5761,-1.4311 -5.5101,-1.4311 -5.2238,0 -11.3064,3.2201 -6.0109,3.2202 -13.0953,13.7394 v 50.3062 z" /></g><rect
   style="fill:#333333;fill-rule:evenodd;stroke-width:0.31475604"
   id="rect1904"
   width="278.68924"
   height="105.10811"
   x="710.41577"
   y="153.70369"
   ry="0.091528498" /><g
   style="fill:none"
   transform="matrix(1,0,0,1.0371671,723.94428,161.25191)"
   id="g1845"><path
     style="clip-rule:evenodd;fill:#ffffff;fill-rule:evenodd"
     inkscape:connector-curvature="0"
     class="st0"
     d="m 26.4,19.6 v 0 c 3.7,0 6.6,3 6.6,6.6 V 59.5 72.8 H 19.7 13.6 0.3 v -13.3 -33.3 0 0 0 C 0.4,12.1 11.9,0.6 26,0.6 v 0 c 7.5,0 14.3,3.3 19,8.5 4.7,-5.2 11.5,-8.5 19,-8.5 v 0 c 14.1,0 25.6,11.5 25.6,25.6 v 0 0 0 33.2 13.3 H 76.3 70.2 56.9 V 59.5 26.2 c 0,-3.6 3,-6.6 6.6,-6.6 v 0 c 3.7,0 6.6,3 6.6,6.6 v 33.3 h 6.1 v -33.3 0 c 0,-6.8 -5.6,-12.4 -12.4,-12.4 v 0 c -6.8,0 -12.4,5.6 -12.4,12.4 v 0 46.5 H 38.3 c 0,-23.8 0,-22.8 0,-46.6 0,-6.8 -5.6,-12.4 -12.4,-12.4 v 0 c -6.8,0 -12.4,5.6 -12.4,12.4 v 0 33.3 h 6.1 V 26.2 c 0.1,-3.7 3.1,-6.6 6.8,-6.6 z m 16.3,48.8 h 4.5 V 26.2 C 47.2,17 54.7,9.5 64,9.5 73.2,9.5 80.7,17 80.7,26.2 V 63.9 H 65.8 V 26.2 c 0,-1.2 -1,-2.3 -2.3,-2.3 -1.2,0 -2.3,1 -2.3,2.3 V 68.4 H 85.1 V 26.2 C 85.2,14.5 75.6,5 64,5 58,5 52.3,7.6 48.2,12 L 45,15.6 41.7,12 C 37.7,7.5 32,5 26,5 14.3,5 4.7,14.5 4.7,26.2 V 68.4 H 28.6 V 26.2 c 0,-1.2 -1,-2.3 -2.3,-2.3 -1.2,0 -2.3,1 -2.3,2.3 V 63.9 H 9.2 V 26.2 C 9.2,17 16.8,9.5 26,9.5 c 9.2,0 16.7,7.5 16.7,16.7 0,17.7 0,24.5 0,42.2 z"
     id="path1711" /><g
     style="opacity:0.7"
     class="st1"
     id="g1793"><path
       style="fill:#ffffff"
       inkscape:connector-curvature="0"
       class="st2"
       d="m 102.1,11 h 2.1 l 3.4,5.2 3.4,-5.2 h 2.1 V 22 H 111 v -7.9 l -3.5,5.2 h -0.1 L 104,14.1 V 22 h -1.9 z"
       id="path1713" /><path
       style="fill:#ffffff"
       inkscape:connector-curvature="0"
       class="st2"
       d="m 121.3,22.2 c -0.9,0 -1.6,-0.1 -2.3,-0.4 -0.7,-0.3 -1.3,-0.7 -1.8,-1.2 -0.5,-0.5 -0.9,-1.1 -1.2,-1.8 -0.3,-0.7 -0.4,-1.4 -0.4,-2.2 v 0 c 0,-0.8 0.1,-1.5 0.4,-2.2 0.3,-0.7 0.7,-1.3 1.2,-1.8 0.5,-0.5 1.1,-0.9 1.8,-1.2 0.7,-0.3 1.5,-0.5 2.3,-0.5 0.8,0 1.6,0.1 2.3,0.4 0.7,0.3 1.3,0.7 1.8,1.2 0.5,0.5 0.9,1.1 1.2,1.8 0.3,0.7 0.4,1.4 0.4,2.2 v 0 c 0,0.8 -0.1,1.5 -0.4,2.2 -0.3,0.7 -0.7,1.3 -1.2,1.8 -0.5,0.5 -1.1,0.9 -1.8,1.2 -0.7,0.3 -1.4,0.5 -2.3,0.5 z m 0.1,-1.8 c 0.5,0 1,-0.1 1.5,-0.3 0.5,-0.2 0.8,-0.5 1.2,-0.8 0.3,-0.4 0.6,-0.8 0.8,-1.2 0.2,-0.5 0.3,-1 0.3,-1.5 v 0 c 0,-0.5 -0.1,-1 -0.3,-1.5 -0.2,-0.5 -0.4,-0.9 -0.8,-1.2 -0.3,-0.4 -0.7,-0.6 -1.2,-0.8 -0.5,-0.2 -1,-0.3 -1.5,-0.3 -0.5,0 -1,0.1 -1.5,0.3 -0.5,0.2 -0.8,0.5 -1.2,0.8 -0.3,0.4 -0.6,0.8 -0.8,1.2 -0.2,0.5 -0.3,1 -0.3,1.5 v 0 c 0,0.5 0.1,1 0.3,1.5 0.2,0.5 0.4,0.9 0.8,1.2 0.3,0.4 0.7,0.6 1.2,0.8 0.4,0.2 0.9,0.3 1.5,0.3 z"
       id="path1715" /><path
       style="fill:#ffffff"
       inkscape:connector-curvature="0"
       class="st2"
       d="m 128.8,11 h 2.1 l 3.3,8.5 3.3,-8.5 h 2.1 L 135,22.1 h -1.7 z"
       id="path1717" /><path
       style="fill:#ffffff"
       inkscape:connector-curvature="0"
       class="st2"
       d="m 141.9,11 h 8.2 v 1.7 h -6.2 v 2.8 h 5.5 v 1.7 h -5.5 v 2.9 h 6.3 V 22 H 142 V 11 Z"
       id="path1719" /><path
       style="fill:#ffffff"
       inkscape:connector-curvature="0"
       class="st2"
       d="m 152.7,11 h 2.1 l 3.4,5.2 3.4,-5.2 h 2.1 v 11 h -1.9 v -7.9 l -3.5,5.2 h -0.1 l -3.4,-5.2 V 22 h -1.9 V 11 Z"
       id="path1721" /><path
       style="fill:#ffffff"
       inkscape:connector-curvature="0"
       class="st2"
       d="m 166.7,11 h 8.2 v 1.7 h -6.2 v 2.8 h 5.5 v 1.7 h -5.5 v 2.9 H 175 V 22 h -8.2 V 11 Z"
       id="path1723" /><path
       style="fill:#ffffff"
       inkscape:connector-curvature="0"
       class="st2"
       d="m 177.6,11 h 1.8 l 5.9,7.6 V 11 h 1.9 v 11 h -1.6 l -6.1,-7.8 V 22 h -1.9 z"
       id="path1725" /><path
       style="fill:#ffffff"
       inkscape:connector-curvature="0"
       class="st2"
       d="m 193.1,12.8 h -3.5 V 11 h 8.9 v 1.8 H 195 V 22 h -2 v -9.2 z"
       id="path1727" /><path
       style="fill:#ffffff"
       inkscape:connector-curvature="0"
       class="st2"
       d="m 104.8,29.7 h -3.5 v -1.8 h 8.9 v 1.8 h -3.5 v 9.2 h -2 v -9.2 z"
       id="path1729" /><path
       style="fill:#ffffff"
       inkscape:connector-curvature="0"
       class="st2"
       d="m 112.6,27.9 h 8.2 v 1.7 h -6.2 v 2.8 h 5.5 v 1.7 h -5.5 V 37 h 6.3 v 1.7 h -8.2 V 27.9 Z"
       id="path1731" /><path
       style="fill:#ffffff"
       inkscape:connector-curvature="0"
       class="st2"
       d="m 123.5,27.9 h 2.1 l 3.4,5.2 3.4,-5.2 h 2.1 v 11 h -1.9 V 31 l -3.5,5.2 H 129 L 125.6,31 v 7.9 h -1.9 v -11 z"
       id="path1733" /><path
       style="fill:#ffffff"
       inkscape:connector-curvature="0"
       class="st2"
       d="m 137.4,27.9 h 4.3 c 0.6,0 1.2,0.1 1.7,0.3 0.5,0.2 1,0.4 1.3,0.7 0.4,0.3 0.6,0.7 0.8,1.2 0.2,0.5 0.3,1 0.3,1.5 v 0 c 0,0.6 -0.1,1.2 -0.3,1.6 -0.2,0.5 -0.5,0.9 -0.9,1.2 -0.4,0.3 -0.9,0.6 -1.4,0.7 -0.5,0.2 -1.1,0.2 -1.7,0.2 h -2.2 v 3.5 h -1.9 z m 4.2,5.7 c 0.7,0 1.3,-0.2 1.7,-0.6 0.4,-0.4 0.6,-0.8 0.6,-1.4 v 0 c 0,-0.7 -0.2,-1.1 -0.6,-1.5 -0.4,-0.3 -1,-0.5 -1.7,-0.5 h -2.3 v 4 z"
       id="path1735" /><path
       style="fill:#ffffff"
       inkscape:connector-curvature="0"
       class="st2"
       d="m 148.3,27.9 h 1.9 v 9.3 h 5.8 v 1.7 h -7.7 z"
       id="path1737" /><path
       style="fill:#ffffff"
       inkscape:connector-curvature="0"
       class="st2"
       d="m 162.2,27.8 h 1.8 l 4.8,11.1 h -2 l -1.1,-2.7 h -5.2 l -1.1,2.7 h -2 z m 2.8,6.7 -1.9,-4.4 -1.9,4.4 z"
       id="path1739" /><path
       style="fill:#ffffff"
       inkscape:connector-curvature="0"
       class="st2"
       d="m 173.8,29.7 h -3.5 v -1.8 h 8.9 v 1.8 h -3.5 v 9.2 h -2 v -9.2 z"
       id="path1741" /><path
       style="fill:#ffffff"
       inkscape:connector-curvature="0"
       class="st2"
       d="m 181.6,27.9 h 8.2 v 1.7 h -6.2 v 2.8 h 5.5 v 1.7 h -5.5 V 37 h 6.3 v 1.7 h -8.2 V 27.9 Z"
       id="path1743" /><path
       style="fill:#ffffff"
       inkscape:connector-curvature="0"
       class="st2"
       d="m 197.5,27.9 h 8.2 v 1.7 h -6.3 v 3 h 5.6 v 1.7 h -5.6 v 4.5 h -1.9 z"
       id="path1745" /><path
       style="fill:#ffffff"
       inkscape:connector-curvature="0"
       class="st2"
       d="m 213.4,39.1 c -0.9,0 -1.6,-0.1 -2.3,-0.4 -0.7,-0.3 -1.3,-0.7 -1.8,-1.2 -0.5,-0.5 -0.9,-1.1 -1.2,-1.8 -0.3,-0.7 -0.4,-1.4 -0.4,-2.2 v 0 c 0,-0.8 0.1,-1.5 0.4,-2.2 0.3,-0.7 0.7,-1.3 1.2,-1.8 0.5,-0.5 1.1,-0.9 1.8,-1.2 0.7,-0.3 1.5,-0.5 2.3,-0.5 0.8,0 1.6,0.1 2.3,0.4 0.7,0.3 1.3,0.7 1.8,1.2 0.5,0.5 0.9,1.1 1.2,1.8 0.3,0.7 0.4,1.4 0.4,2.2 v 0 c 0,0.8 -0.1,1.5 -0.4,2.2 -0.3,0.7 -0.7,1.3 -1.2,1.8 -0.5,0.5 -1.1,0.9 -1.8,1.2 -0.7,0.3 -1.4,0.5 -2.3,0.5 z m 0,-1.8 c 0.5,0 1,-0.1 1.5,-0.3 0.5,-0.2 0.8,-0.5 1.2,-0.8 0.3,-0.4 0.6,-0.8 0.8,-1.2 0.2,-0.5 0.3,-1 0.3,-1.5 v 0 c 0,-0.5 -0.1,-1 -0.3,-1.5 -0.2,-0.5 -0.4,-0.9 -0.8,-1.2 -0.3,-0.4 -0.7,-0.6 -1.2,-0.8 -0.5,-0.2 -1,-0.3 -1.5,-0.3 -0.5,0 -1,0.1 -1.5,0.3 -0.5,0.2 -0.8,0.5 -1.2,0.8 -0.3,0.4 -0.6,0.8 -0.8,1.2 -0.2,0.5 -0.3,1 -0.3,1.5 v 0 c 0,0.5 0.1,1 0.3,1.5 0.2,0.5 0.4,0.9 0.8,1.2 0.3,0.4 0.7,0.6 1.2,0.8 0.5,0.2 1,0.3 1.5,0.3 z"
       id="path1747" /><path
       style="fill:#ffffff"
       inkscape:connector-curvature="0"
       class="st2"
       d="m 221.8,27.9 h 4.9 c 0.7,0 1.3,0.1 1.8,0.3 0.5,0.2 1,0.5 1.3,0.8 0.3,0.3 0.5,0.7 0.7,1.1 0.2,0.4 0.2,0.8 0.2,1.3 v 0 c 0,0.5 -0.1,0.9 -0.2,1.2 -0.1,0.4 -0.3,0.7 -0.5,1 -0.2,0.3 -0.5,0.5 -0.8,0.7 -0.3,0.2 -0.7,0.3 -1.1,0.4 l 3,4.2 h -2.3 l -2.7,-3.8 v 0 h -2.4 v 3.8 h -1.9 z m 4.8,5.4 c 0.7,0 1.2,-0.2 1.7,-0.5 0.4,-0.3 0.6,-0.8 0.6,-1.4 v 0 c 0,-0.6 -0.2,-1.1 -0.6,-1.4 -0.4,-0.3 -1,-0.5 -1.7,-0.5 h -2.8 v 3.7 h 2.8 z"
       id="path1749" /><path
       style="fill:#ffffff"
       inkscape:connector-curvature="0"
       class="st2"
       d="m 102.1,44.8 h 1.8 l 5.9,7.6 v -7.6 h 1.9 v 11 h -1.6 L 104,48 v 7.8 h -1.9 z"
       id="path1751" /><path
       style="fill:#ffffff"
       inkscape:connector-curvature="0"
       class="st2"
       d="m 120.1,56 c -0.9,0 -1.6,-0.1 -2.3,-0.4 -0.7,-0.3 -1.3,-0.7 -1.8,-1.2 -0.5,-0.5 -0.9,-1.1 -1.2,-1.8 -0.3,-0.7 -0.4,-1.4 -0.4,-2.2 v 0 c 0,-0.8 0.1,-1.5 0.4,-2.2 0.3,-0.7 0.7,-1.3 1.2,-1.8 0.5,-0.5 1.1,-0.9 1.8,-1.2 0.7,-0.3 1.5,-0.5 2.3,-0.5 0.8,0 1.6,0.1 2.3,0.4 0.7,0.3 1.3,0.7 1.8,1.2 0.5,0.5 0.9,1.1 1.2,1.8 0.3,0.7 0.4,1.4 0.4,2.2 v 0 c 0,0.8 -0.1,1.5 -0.4,2.2 -0.3,0.7 -0.7,1.3 -1.2,1.8 -0.5,0.5 -1.1,0.9 -1.8,1.2 -0.7,0.3 -1.5,0.5 -2.3,0.5 z m 0,-1.8 c 0.5,0 1,-0.1 1.5,-0.3 0.5,-0.2 0.8,-0.5 1.2,-0.8 0.3,-0.4 0.6,-0.8 0.8,-1.2 0.2,-0.5 0.3,-1 0.3,-1.5 v 0 c 0,-0.5 -0.1,-1 -0.3,-1.5 -0.2,-0.5 -0.4,-0.9 -0.8,-1.2 -0.3,-0.4 -0.7,-0.6 -1.2,-0.8 -0.5,-0.2 -1,-0.3 -1.5,-0.3 -0.5,0 -1,0.1 -1.5,0.3 -0.5,0.2 -0.8,0.5 -1.2,0.8 -0.3,0.4 -0.6,0.8 -0.8,1.2 -0.2,0.5 -0.3,1 -0.3,1.5 v 0 c 0,0.5 0.1,1 0.3,1.5 0.2,0.5 0.4,0.9 0.8,1.2 0.3,0.4 0.7,0.6 1.2,0.8 0.5,0.2 1,0.3 1.5,0.3 z"
       id="path1753" /><path
       style="fill:#ffffff"
       inkscape:connector-curvature="0"
       class="st2"
       d="m 128.5,44.8 h 1.8 l 5.9,7.6 v -7.6 h 1.9 v 11 h -1.6 L 130.4,48 v 7.8 h -1.9 z"
       id="path1755" /><path
       style="fill:#ffffff"
       inkscape:connector-curvature="0"
       class="st2"
       d="m 146.3,44.8 h 4.3 c 0.6,0 1.2,0.1 1.7,0.3 0.5,0.2 1,0.4 1.3,0.7 0.4,0.3 0.6,0.7 0.8,1.2 0.2,0.5 0.3,1 0.3,1.5 v 0 c 0,0.6 -0.1,1.2 -0.3,1.6 -0.2,0.5 -0.5,0.9 -0.9,1.2 -0.4,0.3 -0.9,0.6 -1.4,0.7 -0.5,0.2 -1.1,0.2 -1.7,0.2 h -2.2 v 3.5 h -1.9 z m 4.2,5.7 c 0.7,0 1.3,-0.2 1.7,-0.6 0.4,-0.4 0.6,-0.8 0.6,-1.4 v 0 c 0,-0.7 -0.2,-1.1 -0.6,-1.5 -0.4,-0.3 -1,-0.5 -1.7,-0.5 h -2.3 v 4 z"
       id="path1757" /><path
       style="fill:#ffffff"
       inkscape:connector-curvature="0"
       class="st2"
       d="m 157.2,44.8 h 4.9 c 0.7,0 1.3,0.1 1.8,0.3 0.5,0.2 1,0.5 1.3,0.8 0.3,0.3 0.5,0.7 0.7,1.1 0.2,0.4 0.2,0.8 0.2,1.3 v 0 c 0,0.5 -0.1,0.9 -0.2,1.2 -0.1,0.4 -0.3,0.7 -0.5,1 -0.2,0.3 -0.5,0.5 -0.8,0.7 -0.3,0.2 -0.7,0.3 -1.1,0.4 l 3,4.2 h -2.3 L 161.5,52 v 0 h -2.4 v 3.8 h -1.9 z m 4.7,5.4 c 0.7,0 1.2,-0.2 1.7,-0.5 0.4,-0.3 0.6,-0.8 0.6,-1.4 v 0 c 0,-0.6 -0.2,-1.1 -0.6,-1.4 -0.4,-0.3 -1,-0.5 -1.7,-0.5 h -2.8 v 3.7 h 2.8 z"
       id="path1759" /><path
       style="fill:#ffffff"
       inkscape:connector-curvature="0"
       class="st2"
       d="m 174.1,56 c -0.9,0 -1.6,-0.1 -2.3,-0.4 -0.7,-0.3 -1.3,-0.7 -1.8,-1.2 -0.5,-0.5 -0.9,-1.1 -1.2,-1.8 -0.3,-0.7 -0.4,-1.4 -0.4,-2.2 v 0 c 0,-0.8 0.1,-1.5 0.4,-2.2 0.3,-0.7 0.7,-1.3 1.2,-1.8 0.5,-0.5 1.1,-0.9 1.8,-1.2 0.7,-0.3 1.5,-0.5 2.3,-0.5 0.8,0 1.6,0.1 2.3,0.4 0.7,0.3 1.3,0.7 1.8,1.2 0.5,0.5 0.9,1.1 1.2,1.8 0.3,0.7 0.4,1.4 0.4,2.2 v 0 c 0,0.8 -0.1,1.5 -0.4,2.2 -0.3,0.7 -0.7,1.3 -1.2,1.8 -0.5,0.5 -1.1,0.9 -1.8,1.2 -0.7,0.3 -1.4,0.5 -2.3,0.5 z m 0,-1.8 c 0.5,0 1,-0.1 1.5,-0.3 0.5,-0.2 0.8,-0.5 1.2,-0.8 0.3,-0.4 0.6,-0.8 0.8,-1.2 0.2,-0.5 0.3,-1 0.3,-1.5 v 0 c 0,-0.5 -0.1,-1 -0.3,-1.5 -0.2,-0.5 -0.4,-0.9 -0.8,-1.2 -0.3,-0.4 -0.7,-0.6 -1.2,-0.8 -0.5,-0.2 -1,-0.3 -1.5,-0.3 -0.5,0 -1,0.1 -1.5,0.3 -0.5,0.2 -0.8,0.5 -1.2,0.8 -0.3,0.4 -0.6,0.8 -0.8,1.2 -0.2,0.5 -0.3,1 -0.3,1.5 v 0 c 0,0.5 0.1,1 0.3,1.5 0.2,0.5 0.4,0.9 0.8,1.2 0.3,0.4 0.7,0.6 1.2,0.8 0.5,0.2 1,0.3 1.5,0.3 z"
       id="path1761" /><path
       style="fill:#ffffff"
       inkscape:connector-curvature="0"
       class="st2"
       d="m 182.6,44.8 h 8.2 v 1.7 h -6.3 v 3 h 5.6 v 1.7 h -5.6 v 4.5 h -1.9 z"
       id="path1763" /><path
       style="fill:#ffffff"
       inkscape:connector-curvature="0"
       class="st2"
       d="m 193.3,44.8 h 1.9 v 11 h -1.9 z"
       id="path1765" /><path
       style="fill:#ffffff"
       inkscape:connector-curvature="0"
       class="st2"
       d="m 201.2,46.6 h -3.5 v -1.8 h 8.9 v 1.8 h -3.5 v 9.2 h -2 v -9.2 z"
       id="path1767" /><path
       style="fill:#ffffff"
       inkscape:connector-curvature="0"
       class="st2"
       d="m 107.3,72.9 c -0.9,0 -1.6,-0.1 -2.3,-0.4 -0.7,-0.3 -1.3,-0.7 -1.8,-1.2 -0.5,-0.5 -0.9,-1.1 -1.2,-1.8 -0.3,-0.7 -0.4,-1.4 -0.4,-2.2 v 0 c 0,-0.8 0.1,-1.5 0.4,-2.2 0.3,-0.7 0.7,-1.3 1.2,-1.8 0.5,-0.5 1.1,-0.9 1.8,-1.2 0.7,-0.3 1.5,-0.5 2.3,-0.5 0.8,0 1.6,0.1 2.3,0.4 0.7,0.3 1.3,0.7 1.8,1.2 0.5,0.5 0.9,1.1 1.2,1.8 0.3,0.7 0.4,1.4 0.4,2.2 v 0 c 0,0.8 -0.1,1.5 -0.4,2.2 -0.3,0.7 -0.7,1.3 -1.2,1.8 -0.5,0.5 -1.1,0.9 -1.8,1.2 -0.7,0.3 -1.4,0.5 -2.3,0.5 z m 0.1,-1.8 c 0.5,0 1,-0.1 1.5,-0.3 0.5,-0.2 0.8,-0.5 1.2,-0.8 0.3,-0.4 0.6,-0.8 0.8,-1.2 0.2,-0.5 0.3,-1 0.3,-1.5 v 0 c 0,-0.5 -0.1,-1 -0.3,-1.5 -0.2,-0.5 -0.4,-0.9 -0.8,-1.2 -0.3,-0.4 -0.7,-0.6 -1.2,-0.8 -0.5,-0.2 -1,-0.3 -1.5,-0.3 -0.5,0 -1,0.1 -1.5,0.3 -0.5,0.2 -0.8,0.5 -1.2,0.8 -0.3,0.4 -0.6,0.8 -0.8,1.2 -0.2,0.5 -0.3,1 -0.3,1.5 v 0 c 0,0.5 0.1,1 0.3,1.5 0.2,0.5 0.4,0.9 0.8,1.2 0.3,0.4 0.7,0.6 1.2,0.8 0.4,0.2 0.9,0.3 1.5,0.3 z"
       id="path1769" /><path
       style="fill:#ffffff"
       inkscape:connector-curvature="0"
       class="st2"
       d="m 115.8,61.7 h 4.9 c 0.7,0 1.3,0.1 1.8,0.3 0.5,0.2 1,0.5 1.3,0.8 0.3,0.3 0.5,0.7 0.7,1.1 0.2,0.4 0.2,0.8 0.2,1.3 v 0 c 0,0.5 -0.1,0.9 -0.2,1.2 -0.1,0.4 -0.3,0.7 -0.5,1 -0.2,0.3 -0.5,0.5 -0.8,0.7 -0.3,0.2 -0.7,0.3 -1.1,0.4 l 3,4.2 h -2.3 l -2.7,-3.8 v 0 h -2.4 v 3.8 h -1.9 z m 4.7,5.4 c 0.7,0 1.2,-0.2 1.7,-0.5 0.4,-0.3 0.6,-0.8 0.6,-1.4 v 0 c 0,-0.6 -0.2,-1.1 -0.6,-1.4 -0.4,-0.3 -1,-0.5 -1.7,-0.5 h -2.8 V 67 h 2.8 z"
       id="path1771" /><path
       style="fill:#ffffff"
       inkscape:connector-curvature="0"
       class="st2"
       d="m 132.7,72.9 c -0.9,0 -1.6,-0.1 -2.3,-0.4 -0.7,-0.3 -1.3,-0.7 -1.8,-1.2 -0.5,-0.5 -0.9,-1.1 -1.2,-1.8 -0.3,-0.7 -0.4,-1.4 -0.4,-2.2 v 0 c 0,-0.8 0.1,-1.5 0.4,-2.2 0.3,-0.7 0.7,-1.3 1.2,-1.8 0.5,-0.5 1.1,-0.9 1.8,-1.2 0.7,-0.3 1.5,-0.5 2.3,-0.5 0.5,0 0.9,0 1.3,0.1 0.4,0.1 0.8,0.2 1.1,0.3 0.3,0.1 0.7,0.3 1,0.5 0.3,0.2 0.6,0.4 0.9,0.6 l -1.2,1.5 c -0.2,-0.2 -0.4,-0.3 -0.6,-0.5 -0.2,-0.1 -0.5,-0.3 -0.7,-0.4 -0.2,-0.1 -0.5,-0.2 -0.8,-0.2 -0.3,-0.1 -0.6,-0.1 -1,-0.1 -0.5,0 -1,0.1 -1.4,0.3 -0.4,0.2 -0.8,0.5 -1.1,0.8 -0.3,0.4 -0.6,0.8 -0.8,1.2 -0.2,0.4 -0.3,1 -0.3,1.5 v 0 c 0,0.6 0.1,1.1 0.3,1.6 0.2,0.5 0.4,0.9 0.8,1.2 0.3,0.3 0.7,0.6 1.2,0.8 0.5,0.2 1,0.3 1.5,0.3 0.5,0 1,-0.1 1.5,-0.2 0.5,-0.2 0.9,-0.4 1.2,-0.6 v -2.1 h -2.8 v -1.7 h 4.7 v 4.6 c -0.3,0.2 -0.6,0.5 -0.9,0.7 -0.3,0.2 -0.7,0.4 -1.1,0.6 -0.4,0.2 -0.8,0.3 -1.2,0.4 -0.6,0 -1.1,0.1 -1.6,0.1 z"
       id="path1773" /><path
       style="fill:#ffffff"
       inkscape:connector-curvature="0"
       class="st2"
       d="m 144,61.6 h 1.8 l 4.8,11.1 h -2 L 147.5,70 h -5.2 l -1.1,2.7 h -2 z m 2.8,6.7 -1.9,-4.4 -1.9,4.4 z"
       id="path1775" /><path
       style="fill:#ffffff"
       inkscape:connector-curvature="0"
       class="st2"
       d="m 152.9,61.7 h 1.8 l 5.9,7.6 v -7.6 h 1.9 v 11 h -1.6 l -6.1,-7.8 v 7.8 h -1.9 z"
       id="path1777" /><path
       style="fill:#ffffff"
       inkscape:connector-curvature="0"
       class="st2"
       d="m 165.8,61.7 h 1.9 v 11 h -1.9 z"
       id="path1779" /><path
       style="fill:#ffffff"
       inkscape:connector-curvature="0"
       class="st2"
       d="m 170.6,71.2 6.5,-7.9 h -6.3 v -1.7 h 8.8 V 63 l -6.5,7.9 h 6.5 v 1.7 h -9 z"
       id="path1781" /><path
       style="fill:#ffffff"
       inkscape:connector-curvature="0"
       class="st2"
       d="m 186.2,61.6 h 1.8 l 4.8,11.1 h -2 L 189.7,70 h -5.2 l -1.1,2.7 h -2 z m 2.8,6.7 -1.9,-4.4 -1.9,4.4 z"
       id="path1783" /><path
       style="fill:#ffffff"
       inkscape:connector-curvature="0"
       class="st2"
       d="m 197.8,63.4 h -3.5 v -1.8 h 8.9 v 1.8 h -3.5 v 9.2 h -2 v -9.2 z"
       id="path1785" /><path
       style="fill:#ffffff"
       inkscape:connector-curvature="0"
       class="st2"
       d="m 205.7,61.7 h 1.9 v 11 h -1.9 z"
       id="path1787" /><path
       style="fill:#ffffff"
       inkscape:connector-curvature="0"
       class="st2"
       d="m 216.1,72.9 c -0.9,0 -1.6,-0.1 -2.3,-0.4 -0.7,-0.3 -1.3,-0.7 -1.8,-1.2 -0.5,-0.5 -0.9,-1.1 -1.2,-1.8 -0.3,-0.7 -0.4,-1.4 -0.4,-2.2 v 0 c 0,-0.8 0.1,-1.5 0.4,-2.2 0.3,-0.7 0.7,-1.3 1.2,-1.8 0.5,-0.5 1.1,-0.9 1.8,-1.2 0.7,-0.3 1.5,-0.5 2.3,-0.5 0.8,0 1.6,0.1 2.3,0.4 0.7,0.3 1.3,0.7 1.8,1.2 0.5,0.5 0.9,1.1 1.2,1.8 0.3,0.7 0.4,1.4 0.4,2.2 v 0 c 0,0.8 -0.1,1.5 -0.4,2.2 -0.3,0.7 -0.7,1.3 -1.2,1.8 -0.5,0.5 -1.1,0.9 -1.8,1.2 -0.7,0.3 -1.4,0.5 -2.3,0.5 z m 0.1,-1.8 c 0.5,0 1,-0.1 1.5,-0.3 0.5,-0.2 0.8,-0.5 1.2,-0.8 0.3,-0.4 0.6,-0.8 0.8,-1.2 0.2,-0.5 0.3,-1 0.3,-1.5 v 0 c 0,-0.5 -0.1,-1 -0.3,-1.5 -0.2,-0.5 -0.4,-0.9 -0.8,-1.2 -0.3,-0.4 -0.7,-0.6 -1.2,-0.8 -0.5,-0.2 -1,-0.3 -1.5,-0.3 -0.5,0 -1,0.1 -1.5,0.3 -0.5,0.2 -0.8,0.5 -1.2,0.8 -0.3,0.4 -0.6,0.8 -0.8,1.2 -0.2,0.5 -0.3,1 -0.3,1.5 v 0 c 0,0.5 0.1,1 0.3,1.5 0.2,0.5 0.4,0.9 0.8,1.2 0.3,0.4 0.7,0.6 1.2,0.8 0.4,0.2 0.9,0.3 1.5,0.3 z"
       id="path1789" /><path
       style="fill:#ffffff"
       inkscape:connector-curvature="0"
       class="st2"
       d="m 224.6,61.7 h 1.8 l 5.9,7.6 v -7.6 h 1.9 v 11 h -1.6 l -6.1,-7.8 v 7.8 h -1.9 z"
       id="path1791" /></g></g><path
   sodipodi:nodetypes="ccscscscc"
   style="fill:#ffffff;fill-opacity:1;stroke-width:0.18800385"
   inkscape:connector-curvature="0"
   d="m 1048.9963,182.08225 c 5.5813,3.17821 13.2594,2.08343 13.2594,2.08343 0,0 -7.9603,3.59126 -14.2264,0.54401 -5.316,-2.58521 -6.4267,-11.09159 -0.4235,-13.81784 8.0588,-2.9708 9.8354,-0.6097 11.2374,3.2962 1.3621,3.7944 -10.2764,3.84035 -11.1748,3.95821 0,0 10.1171,-3.85153 8.5202,-6.2049 -0.4566,-0.67277 -0.5433,-1.4736 -4.4009,-1.0037 -5.4789,1.22133 -6.3271,8.95862 -2.7914,11.14459 z"
   id="path1887" /><path
   id="path1900"
   d="m 1079.8507,181.52113 c 5.5814,3.17821 13.2595,2.08343 13.2595,2.08343 0,0 -7.9603,3.59126 -14.2265,0.54401 -5.316,-2.58522 -6.4267,-11.09159 -0.4235,-13.81785 8.0589,-2.97079 9.8355,-0.60969 11.2375,3.29621 1.362,3.7944 -10.2765,3.84035 -11.1749,3.95821 0,0 10.1171,-3.85153 8.5202,-6.2049 -0.4566,-0.67277 -0.5432,-1.4736 -4.4008,-1.0037 -5.4789,1.22133 -6.3272,8.95862 -2.7915,11.14459 z"
   inkscape:connector-curvature="0"
   style="fill:#ffffff;fill-opacity:1;stroke-width:0.18800385"
   sodipodi:nodetypes="ccscscscc" /><path
   sodipodi:nodetypes="ccscscscc"
   style="fill:#ffffff;fill-opacity:1;stroke-width:0.18800385"
   inkscape:connector-curvature="0"
   d="m 1111.8508,181.62587 c 5.5814,3.17821 13.2594,2.08343 13.2594,2.08343 0,0 -7.9603,3.59126 -14.2264,0.54401 -5.316,-2.58521 -6.4267,-11.09159 -0.4235,-13.81784 8.0589,-2.9708 9.8355,-0.6097 11.2375,3.2962 1.362,3.7944 -10.2765,3.84036 -11.1749,3.95821 0,0 10.1171,-3.85153 8.5202,-6.2049 -0.4566,-0.67276 -0.5432,-1.47359 -4.4009,-1.00369 -5.4788,1.22132 -6.3271,8.95861 -2.7914,11.14458 z"
   id="path1902" /><rect
   ry="0.091528498"
   y="31.71475"
   x="1054.9579"
   height="105.10811"
   width="278.68924"
   id="rect1933"
   style="fill:#333333;fill-rule:evenodd;stroke-width:0.31475604" /><g
   transform="matrix(1.1471234,0,0,1.1897587,667.48975,-1927.3767)"
   id="text1908"
   style="font-style:normal;font-variant:normal;font-weight:normal;font-stretch:normal;font-size:30.06212234px;line-height:3;font-family:'Lucida Sans';-inkscape-font-specification:'Lucida Sans';letter-spacing:0px;word-spacing:0px;fill:#ffffff;fill-opacity:1;stroke:none;stroke-width:0.75155306"
   aria-label="regenerativ"><path
     inkscape:connector-curvature="0"
     id="path1910"
     style="fill:#ffffff;fill-opacity:1;stroke-width:0.75155306"
     d="m 364.3887,1695.0648 v -15.9411 h 2.89171 v 2.9944 q 0.82202,-1.5999 2.12843,-2.466 1.32109,-0.8807 2.86236,-0.8807 0.44036,0 0.92476,0.073 v 2.7009 q -0.73394,-0.2496 -1.32109,-0.2496 -1.36513,0 -2.52475,0.822 -1.14494,0.8074 -2.06971,2.4367 v 10.51 z" /><path
     inkscape:connector-curvature="0"
     id="path1912"
     style="fill:#ffffff;fill-opacity:1;stroke-width:0.75155306"
     d="m 388.40317,1694.5511 q -2.9064,0.8807 -4.97611,0.8807 -3.71373,0 -5.84215,-2.4954 -2.12842,-2.5101 -2.12842,-5.9155 0,-2.2459 0.93944,-4.2716 0.93944,-2.0256 2.45136,-3.0091 1.52659,-0.9835 3.58162,-0.9835 2.75961,0 4.40363,1.9816 1.64402,1.9817 1.64402,5.9303 l -0.0147,0.8807 H 378.4069 q 0.23486,2.1137 0.91009,3.2587 0.67522,1.1449 1.79081,1.7908 1.13026,0.6312 2.86236,0.6312 0.88072,0 1.74677,-0.1468 0.88073,-0.1615 2.68622,-0.822 z m -9.86414,-9.1743 h 7.03113 q 0,-2.3926 -0.93944,-3.4201 -0.92476,-1.0275 -2.37796,-1.0275 -1.6587,0 -2.59814,1.1155 -0.92476,1.101 -1.11559,3.3321 z" /><path
     inkscape:connector-curvature="0"
     id="path1914"
     style="fill:#ffffff;fill-opacity:1;stroke-width:0.75155306"
     d="m 393.51138,1700.3639 0.33761,-2.5101 q 2.51007,1.189 4.96142,1.189 2.74493,0 3.80181,-1.4092 1.07155,-1.3945 1.07155,-3.7724 v -2.5101 q -0.63119,1.3211 -1.96696,2.3339 -1.33577,1.0129 -3.25869,1.0129 -3.27336,0 -4.7706,-2.3487 -1.49723,-2.3632 -1.49723,-5.3577 0,-2.2752 0.88073,-4.2422 0.88072,-1.9816 2.43667,-2.9798 1.57063,-0.9981 3.58162,-0.9981 0.89541,0 1.6587,0.2055 0.77798,0.2055 1.43852,0.6165 0.67523,0.411 1.49724,1.3504 v -1.8201 h 2.90639 v 11.5962 q 0,5.0642 -0.85137,6.9284 -0.83669,1.8642 -2.64217,2.7156 -1.79081,0.8513 -4.27153,0.8513 -0.80733,0 -1.74677,-0.088 -0.92476,-0.088 -1.6587,-0.2349 -0.71926,-0.1321 -1.90824,-0.5284 z m 10.17239,-10.8183 v -6.6201 q -0.95412,-0.9982 -1.99632,-1.4826 -1.02751,-0.4991 -2.15778,-0.4991 -1.92291,0 -3.09722,1.556 -1.15962,1.5413 -1.15962,4.477 0,2.3046 0.86605,3.7578 0.86605,1.4385 2.81832,1.4385 1.26238,0 2.43668,-0.6605 1.18898,-0.6606 2.28989,-1.967 z" /><path
     inkscape:connector-curvature="0"
     id="path1916"
     style="fill:#ffffff;fill-opacity:1;stroke-width:0.75155306"
     d="m 423.86708,1694.5511 q -2.9064,0.8807 -4.97611,0.8807 -3.71373,0 -5.84215,-2.4954 -2.12842,-2.5101 -2.12842,-5.9155 0,-2.2459 0.93944,-4.2716 0.93944,-2.0256 2.45136,-3.0091 1.52659,-0.9835 3.58162,-0.9835 2.75961,0 4.40363,1.9816 1.64402,1.9817 1.64402,5.9303 l -0.0147,0.8807 h -10.05496 q 0.23486,2.1137 0.91009,3.2587 0.67522,1.1449 1.79081,1.7908 1.13026,0.6312 2.86236,0.6312 0.88072,0 1.74677,-0.1468 0.88073,-0.1615 2.68622,-0.822 z m -9.86414,-9.1743 h 7.03113 q 0,-2.3926 -0.93944,-3.4201 -0.92476,-1.0275 -2.37796,-1.0275 -1.6587,0 -2.59814,1.1155 -0.92476,1.101 -1.11559,3.3321 z" /><path
     inkscape:connector-curvature="0"
     id="path1918"
     style="fill:#ffffff;fill-opacity:1;stroke-width:0.75155306"
     d="m 428.91657,1695.0648 v -15.9411 h 2.89172 v 2.9944 q 1.10091,-1.5999 2.55411,-2.466 1.46788,-0.8807 3.0385,-0.8807 2.02567,0 3.28805,1.2917 1.26237,1.2771 1.26237,3.5523 v 11.4494 h -2.89172 v -10.51 q 0,-1.6587 -0.29357,-2.1871 -0.29358,-0.5285 -0.82201,-0.8073 -0.52844,-0.2936 -1.13027,-0.2936 -1.07155,0 -2.31924,0.6605 -1.23302,0.6606 -2.68622,2.8183 v 10.3192 z" /><path
     inkscape:connector-curvature="0"
     id="path1920"
     style="fill:#ffffff;fill-opacity:1;stroke-width:0.75155306"
     d="m 459.27227,1694.5511 q -2.9064,0.8807 -4.9761,0.8807 -3.71373,0 -5.84215,-2.4954 -2.12843,-2.5101 -2.12843,-5.9155 0,-2.2459 0.93945,-4.2716 0.93944,-2.0256 2.45135,-3.0091 1.52659,-0.9835 3.58162,-0.9835 2.75961,0 4.40363,1.9816 1.64402,1.9817 1.64402,5.9303 l -0.0147,0.8807 H 449.276 q 0.23486,2.1137 0.91008,3.2587 0.67522,1.1449 1.79081,1.7908 1.13027,0.6312 2.86236,0.6312 0.88073,0 1.74678,-0.1468 0.88072,-0.1615 2.68621,-0.822 z m -9.86413,-9.1743 h 7.03113 q 0,-2.3926 -0.93944,-3.4201 -0.92477,-1.0275 -2.37796,-1.0275 -1.65871,0 -2.59815,1.1155 -0.92476,1.101 -1.11558,3.3321 z" /><path
     inkscape:connector-curvature="0"
     id="path1922"
     style="fill:#ffffff;fill-opacity:1;stroke-width:0.75155306"
     d="m 464.32177,1695.0648 v -15.9411 h 2.89172 v 2.9944 q 0.82201,-1.5999 2.12842,-2.466 1.32109,-0.8807 2.86236,-0.8807 0.44036,0 0.92476,0.073 v 2.7009 q -0.73393,-0.2496 -1.32109,-0.2496 -1.36512,0 -2.52474,0.822 -1.14495,0.8074 -2.06971,2.4367 v 10.51 z" /><path
     inkscape:connector-curvature="0"
     id="path1924"
     style="fill:#ffffff;fill-opacity:1;stroke-width:0.75155306"
     d="m 484.87205,1693.0391 q -1.29173,1.189 -2.5541,1.7909 -1.2477,0.6018 -2.45136,0.6018 -1.68806,0 -3.14125,-1.1156 -1.4532,-1.1156 -1.4532,-3.2587 0,-2.3486 2.02567,-3.8752 2.02567,-1.5413 6.47333,-1.5413 h 0.67523 v -1.9229 q 0,-1.1449 -0.30826,-1.6587 -0.30825,-0.5284 -0.96879,-0.822 -0.64587,-0.2936 -1.61467,-0.2936 -2.24585,0 -4.90271,1.4092 v -2.3926 q 2.92108,-1.189 5.50454,-1.189 1.40916,0 2.58346,0.455 1.18898,0.4404 1.89357,1.4092 0.70458,0.9541 0.70458,3.0825 v 7.222 q 0,1.2036 0.19082,1.6293 0.19082,0.411 0.52844,0.6312 0.35229,0.2202 0.80733,0.2202 0.19082,0 0.55779,-0.059 l 0.2055,1.6 q -0.98347,0.4697 -2.17245,0.4697 -0.79266,0 -1.5266,-0.5138 -0.73393,-0.5137 -1.05687,-1.8789 z m -0.42568,-1.5706 v -4.1247 l -0.92476,-0.029 q -2.27521,0 -3.81648,0.8808 -1.54128,0.8807 -1.54128,2.3926 0,1.0422 0.74862,1.7614 0.7633,0.7193 1.77613,0.7193 0.91009,0 1.84953,-0.3963 0.93944,-0.411 1.90824,-1.2037 z" /><path
     inkscape:connector-curvature="0"
     id="path1926"
     style="fill:#ffffff;fill-opacity:1;stroke-width:0.75155306"
     d="m 500.37283,1695.0648 q -1.33577,0.367 -2.31925,0.367 -2.1431,0 -3.40547,-1.233 -1.26238,-1.2477 -1.26238,-3.5376 v -9.3651 h -1.99631 v -2.1724 h 1.99631 v -2.8917 l 2.89172,-0.2789 v 3.1706 h 4.16877 v 2.1724 h -4.16877 v 8.8367 q 0,1.6733 0.64587,2.4073 0.64586,0.7192 2.05503,0.7192 0.57247,0 1.39448,-0.1908 z" /><path
     inkscape:connector-curvature="0"
     id="path1928"
     style="fill:#ffffff;fill-opacity:1;stroke-width:0.75155306"
     d="m 504.5416,1695.0648 v -15.9411 h 2.89172 v 15.9411 z m 0,-18.8328 v -2.8918 h 2.89172 v 2.8918 z" /><path
     inkscape:connector-curvature="0"
     id="path1930"
     style="fill:#ffffff;fill-opacity:1;stroke-width:0.75155306"
     d="m 516.53416,1695.0648 -5.93022,-15.9411 h 2.89172 l 4.63849,12.4035 4.88803,-12.4035 h 2.70089 l -6.29719,15.9411 z" /></g></svg>