<?xml version="1.0" encoding="UTF-8" standalone="no"?>
<svg
   xmlns:dc="http://purl.org/dc/elements/1.1/"
   xmlns:cc="http://creativecommons.org/ns#"
   xmlns:rdf="http://www.w3.org/1999/02/22-rdf-syntax-ns#"
   xmlns:svg="http://www.w3.org/2000/svg"
   xmlns="http://www.w3.org/2000/svg"
   xmlns:xlink="http://www.w3.org/1999/xlink"
   xmlns:sodipodi="http://sodipodi.sourceforge.net/DTD/sodipodi-0.dtd"
   xmlns:inkscape="http://www.inkscape.org/namespaces/inkscape"
   id="e7d73eaa-25fa-486a-81c6-86c739fe4253"
   data-name="Layer 1"
   width="548.97748"
   height="514.26398"
   viewBox="0 0 548.97748 514.26399"
   version="1.1"
   sodipodi:docname="the_cost_broken.svg"
   inkscape:version="0.92.4 (5da689c313, 2019-01-14)">
  <metadata
     id="metadata59">
    <rdf:RDF>
      <cc:Work
         rdf:about="">
        <dc:format>image/svg+xml</dc:format>
        <dc:type
           rdf:resource="http://purl.org/dc/dcmitype/StillImage" />
        <dc:title></dc:title>
      </cc:Work>
    </rdf:RDF>
  </metadata>
  <defs
     id="defs57">
    <linearGradient
       gradientUnits="userSpaceOnUse"
       y2="321.57999"
       x2="316.89999"
       y1="512.47998"
       x1="316.89999"
       id="a17f7adb-619f-4eca-9f9e-ffa615402df6">
      <stop
         id="stop2"
         stop-opacity="0.25"
         stop-color="gray"
         offset="0" />
      <stop
         id="stop4"
         stop-opacity="0.12"
         stop-color="gray"
         offset="0.54" />
      <stop
         id="stop6"
         stop-opacity="0.1"
         stop-color="gray"
         offset="1" />
    </linearGradient>
    <linearGradient
       xlink:href="#a17f7adb-619f-4eca-9f9e-ffa615402df6"
       y2="709.84003"
       x2="622.28998"
       y1="709.84003"
       x1="552.72998"
       id="afa9d3b0-698e-4c8c-85f1-7e162fccf1ba" />
  </defs>
  <sodipodi:namedview
     pagecolor="#ffffff"
     bordercolor="#666666"
     borderopacity="1"
     objecttolerance="10"
     gridtolerance="10"
     guidetolerance="10"
     inkscape:pageopacity="0"
     inkscape:pageshadow="2"
     inkscape:window-width="1920"
     inkscape:window-height="1001"
     id="namedview55"
     showgrid="false"
     inkscape:zoom="0.53009258"
     inkscape:cx="681.93049"
     inkscape:cy="222.50754"
     inkscape:window-x="-9"
     inkscape:window-y="-9"
     inkscape:window-maximized="1"
     inkscape:current-layer="e7d73eaa-25fa-486a-81c6-86c739fe4253" />
  <rect
     style="fill:#10cc00;fill-rule:evenodd;stroke-width:0.58089793"
     id="rect916"
     width="566.38464"
     height="514.63031"
     x="906.65497"
     y="-99.568726" />
  <g
     id="g1064"
     transform="matrix(0.74834186,0,0,0.74834186,-74.509635,4.3994929)">
    <path
       sodipodi:nodetypes="ccccccccscsscccc"
       inkscape:connector-curvature="0"
       id="path913"
       d="M 342.53475,557.57619 C 242.28628,568.53329 179.00838,515.92427 179.00838,515.92427 117.66271,603.26384 123.90131,698.92146 123.90131,698.92146 105.18561,562.71332 149.89519,475.37375 149.89519,475.37375 83.350805,392.1932 125.98081,297.57533 125.98081,297.57533 155.08111,200.71837 274.14356,152.8458 274.14356,152.8458 c 24.09731,-11.66605 50.6238,-19.47879 79.93702,-25.82966 l 0.0473,58.8813 c -45.036,7.34313 -71.1139,38.1675 -71.1139,78.79204 0,42.57896 25.2403,65.13883 75.1624,84.68328 36.241,14.68626 55.3108,31.32695 55.3108,58.24244 0,27.92064 -23.3696,47.96765 -58.1308,47.96765 -27.3901,0 -58.4379,-9.29756 -76.0558,-21.05216 l -11.7546,32.77883 c 17.1433,12.25716 46.5158,21.05216 74.8831,21.55473 l 0.10567,68.71194"
       style="fill:#ffffff;fill-opacity:1;stroke:#ffffff;stroke-width:0.73746234px;stroke-linecap:butt;stroke-linejoin:miter;stroke-opacity:1" />
    <path
       style="fill:#ffffff;fill-opacity:1;stroke:#ffffff;stroke-width:0.73699999;stroke-linecap:butt;stroke-linejoin:miter;stroke-miterlimit:4;stroke-dasharray:none;stroke-opacity:1"
       d="m 450.39461,539.35135 c 33.07551,-11.17151 131.65367,-53.3602 242.90506,-193.05542 0,0 132.72659,-167.05534 130.53939,-313.825319 -154.57753,60.47228 -270.71326,66.45083 -363.11262,80.303709 l -3.61834,61.68245 c 29.3209,1.99577 49.0846,10.5044 62.99798,19.34073 l -13.36959,31.83154 c -17.15226,-11.83514 -37.40505,-18.36737 -58.24001,-18.78442 -37.67021,-1.30781 -47.04632,20.91219 -47.72542,40.47278 -0.88253,25.42038 11.17659,38.57853 53.11675,57.71898 49.68123,22.28679 79.79896,48.81137 78.28771,92.34133 -1.34172,38.64678 -29.49748,73.90417 -80.15263,80.47091 l -1.62828,61.50273"
       id="path920"
       inkscape:connector-curvature="0"
       sodipodi:nodetypes="ccccccccscscc" />
  </g>
  <g
     id="g1060"
     transform="matrix(1.0000039,0,0,1.0000039,1182.2435,62.952452)">
    <g
       id="g985">
	<g
   id="g983">
		<path
   id="path981"
   d="m 297.701,15.049 c -6.352,-0.883 -12.671,-1.32 -18.882,-1.32 -42.329,-0.008 -79.875,20.351 -93.539,58.413 -2.742,0.828 -5.484,1.773 -8.219,2.844 -38.531,15.117 -66.437,50.937 -82.905,106.335 -0.969,3.266 -0.367,6.961 1.945,9.797 3.72,4.569 10.439,5.257 15.009,1.538 1.727,-1.414 2.898,-3.25 3.484,-5.234 13.773,-46.398 35.804,-76.812 65.522,-90.538 -3.617,46.694 26.57,70.296 75.022,70.296 5.102,0 10.407,-0.258 15.899,-0.789 9.844,-0.938 19.273,-1.359 28.249,-1.359 74.983,0 119.015,29.258 119.015,29.258 0,0 -29.007,-166.491 -120.6,-179.241 z m -28.686,130.106 c -4.797,0.461 -9.461,0.688 -13.875,0.688 -26.867,0 -39.609,-8.148 -45.57,-14.984 -7.328,-8.398 -9.891,-21.03 -7.625,-37.53 0.156,-1.141 0.344,-2.266 0.555,-3.383 45.726,-7.977 90.631,17.992 91.139,18.289 v -0.008 c 3.734,2.203 8.594,1.992 12.156,-0.906 4.57,-3.719 5.258,-10.438 1.531,-15.008 -0.813,-1 -1.781,-1.805 -2.836,-2.43 l 0.008,-0.008 c -2.188,-1.297 -44.796,-26.086 -93.351,-22.508 4.039,-6.438 9.281,-12.063 15.718,-16.812 13.547,-9.992 31.993,-15.5 51.954,-15.5 5.242,0 10.609,0.383 15.944,1.125 15.672,2.18 30.585,11.008 44.312,26.25 12.234,13.563 23.469,32.008 33.398,54.82 6.055,13.898 10.875,27.733 14.586,39.921 -27.172,-8.828 -57.344,-13.469 -87.772,-13.469 -9.968,0 -20.155,0.484 -30.272,1.453 z"
   inkscape:connector-curvature="0"
   style="fill:#ffffff" />

	</g>

</g>
    <g
       id="g991">
	<g
   id="g989">
		<path
   id="path987"
   d="m 492.339,335.021 c 0.648,-2.797 1.203,-5.641 1.641,-8.547 6.188,-40.929 -10.898,-83.022 -50.646,-124.99 -2.344,-2.469 -5.828,-3.773 -9.438,-3.195 -5.82,0.938 -9.773,6.414 -8.836,12.226 0.359,2.203 1.359,4.141 2.789,5.648 33.289,35.125 48.615,69.414 45.646,102.006 -13.264,-9.093 -26.162,-13.374 -38.365,-13.374 -27.078,0 -50.719,21.062 -67.297,57.358 -38.414,84.116 -97.787,113.585 -97.787,113.585 0,0 59.912,21.944 119.295,21.944 37.266,0 74.313,-8.64 96.232,-36.765 30.828,-39.561 36.727,-90.505 6.766,-125.896 z M 468.745,447.81 c -14.756,18.938 -41.475,28.539 -79.404,28.539 -25.344,0 -51.117,-4.383 -71.531,-9.117 21.664,-19.484 48.508,-50.406 69.43,-96.218 6.953,-15.211 15.336,-27.313 24.242,-35 7.711,-6.656 15.453,-9.891 23.648,-9.891 9.383,0 19.656,4.281 30.537,12.727 0.898,0.711 1.781,1.438 2.641,2.172 -15.959,43.593 -60.889,69.491 -61.404,69.78 l 0.008,0.008 c -3.773,2.133 -6.023,6.445 -5.297,10.984 0.938,5.813 6.414,9.766 12.227,8.828 1.281,-0.203 2.461,-0.641 3.531,-1.242 l 0.008,0.008 c 2.211,-1.242 44.945,-25.727 66.131,-69.538 4.523,8.547 6.945,18.078 7.141,28.351 0.381,19.819 -7.4,40.991 -21.908,59.609 z"
   inkscape:connector-curvature="0"
   style="fill:#ffffff" />

	</g>

</g>
    <g
       id="g997">
	<g
   id="g995">
		<path
   id="path993"
   d="m 253.03,471.028 c -2.086,-0.789 -4.266,-0.891 -6.281,-0.406 -47.062,11.273 -84.421,7.398 -111.163,-11.477 46.687,-22.344 48.312,-66.336 14.734,-113.491 -53.632,-75.327 -49.468,-141.482 -49.468,-141.482 0,0 -129.686,108.366 -94.936,194.059 16.781,41.375 51.257,70.172 90.812,70.172 4.883,0 9.836,-0.445 14.844,-1.352 2.094,1.953 4.281,3.859 6.578,5.688 21.312,17.008 48.062,25.538 79.914,25.53 16.507,0 34.405,-2.297 53.601,-6.883 0.023,-0.008 0.055,-0.016 0.055,-0.016 3.305,-0.797 6.18,-3.155 7.485,-6.577 2.091,-5.507 -0.667,-11.663 -6.175,-13.765 z M 118.383,443.231 C 88.618,407.622 88.649,355.755 88.657,355.162 h -0.008 c 0.039,-4.336 -2.57,-8.438 -6.867,-10.07 -5.5,-2.094 -11.664,0.672 -13.758,6.172 -0.461,1.211 -0.68,2.453 -0.688,3.68 H 67.32 c -0.023,2.539 -0.188,51.812 27.172,92.069 -13.469,-0.508 -26.734,-5.641 -38.484,-14.922 -12.835,-10.141 -23.32,-24.617 -30.319,-41.875 -5.945,-14.663 -5.758,-31.999 0.578,-51.507 5.632,-17.367 15.984,-36.319 30.772,-56.327 9.016,-12.195 18.594,-23.289 27.289,-32.602 6.047,28.508 19.398,67.218 48.617,108.249 15.757,22.133 22.07,42.46 17.781,57.249 -3.258,11.195 -13.054,20.195 -29.14,26.75 -1.07,0.43 -2.133,0.828 -3.203,1.203 z"
   inkscape:connector-curvature="0"
   style="fill:#ffffff" />

	</g>

</g>
    <g
       id="g999">
</g>
    <g
       id="g1001">
</g>
    <g
       id="g1003">
</g>
    <g
       id="g1005">
</g>
    <g
       id="g1007">
</g>
    <g
       id="g1009">
</g>
    <g
       id="g1011">
</g>
    <g
       id="g1013">
</g>
    <g
       id="g1015">
</g>
    <g
       id="g1017">
</g>
    <g
       id="g1019">
</g>
    <g
       id="g1021">
</g>
    <g
       id="g1023">
</g>
    <g
       id="g1025">
</g>
    <g
       id="g1027">
</g>
  </g>
</svg>
