<?xml version="1.0" encoding="UTF-8" standalone="no"?>
<!-- Created with Inkscape (http://www.inkscape.org/) -->

<svg
   xmlns:dc="http://purl.org/dc/elements/1.1/"
   xmlns:cc="http://creativecommons.org/ns#"
   xmlns:rdf="http://www.w3.org/1999/02/22-rdf-syntax-ns#"
   xmlns:svg="http://www.w3.org/2000/svg"
   xmlns="http://www.w3.org/2000/svg"
   xmlns:xlink="http://www.w3.org/1999/xlink"
   xmlns:sodipodi="http://sodipodi.sourceforge.net/DTD/sodipodi-0.dtd"
   xmlns:inkscape="http://www.inkscape.org/namespaces/inkscape"
   width="142.48895mm"
   height="142.48895mm"
   viewBox="0 0 142.48895 142.48895"
   version="1.1"
   id="svg8"
   inkscape:version="0.92.4 (5da689c313, 2019-01-14)"
   sodipodi:docname="the_impact.svg">
  <defs
     id="defs2">
    <linearGradient
       id="a17f7adb-619f-4eca-9f9e-ffa615402df6"
       x1="316.89999"
       y1="512.47998"
       x2="316.89999"
       y2="321.57999"
       gradientUnits="userSpaceOnUse">
      <stop
         offset="0"
         stop-color="gray"
         stop-opacity="0.25"
         id="stop2" />
      <stop
         offset="0.54"
         stop-color="gray"
         stop-opacity="0.12"
         id="stop4" />
      <stop
         offset="1"
         stop-color="gray"
         stop-opacity="0.1"
         id="stop6" />
    </linearGradient>
    <linearGradient
       id="afa9d3b0-698e-4c8c-85f1-7e162fccf1ba"
       x1="552.72998"
       y1="709.84003"
       x2="622.28998"
       y2="709.84003"
       xlink:href="#a17f7adb-619f-4eca-9f9e-ffa615402df6" />
    <linearGradient
       id="24f03e8c-5c7e-4fae-8483-b5d808403054"
       x1="410.64999"
       y1="444.89999"
       x2="677"
       y2="444.89999"
       gradientUnits="userSpaceOnUse">
      <stop
         offset="0"
         stop-color="gray"
         stop-opacity="0.25"
         id="stop1509" />
      <stop
         offset="0.54"
         stop-color="gray"
         stop-opacity="0.12"
         id="stop1511" />
      <stop
         offset="1"
         stop-color="gray"
         stop-opacity="0.1"
         id="stop1513" />
    </linearGradient>
    <linearGradient
       id="00c9c3cb-352a-4ad1-9ec3-c89fe8d1d33c"
       x1="518.88"
       y1="466.38"
       x2="520.07001"
       y2="466.38"
       xlink:href="#24f03e8c-5c7e-4fae-8483-b5d808403054" />
    <linearGradient
       id="120917fe-dde0-4ef5-b791-4b8cdc7eaea0"
       x1="519.81"
       y1="467.31"
       x2="521.01001"
       y2="467.31"
       xlink:href="#24f03e8c-5c7e-4fae-8483-b5d808403054" />
    <linearGradient
       id="d6588c0b-28b1-4044-81f0-862b52dadcf0"
       x1="519.81"
       y1="466.38"
       x2="521.01001"
       y2="466.38"
       xlink:href="#24f03e8c-5c7e-4fae-8483-b5d808403054" />
  </defs>
  <sodipodi:namedview
     id="base"
     pagecolor="#ffffff"
     bordercolor="#666666"
     borderopacity="1.0"
     inkscape:pageopacity="0.0"
     inkscape:pageshadow="2"
     inkscape:zoom="0.16247604"
     inkscape:cx="-551.5275"
     inkscape:cy="753.12005"
     inkscape:document-units="mm"
     inkscape:current-layer="layer1"
     showgrid="false"
     inkscape:window-width="1600"
     inkscape:window-height="1201"
     inkscape:window-x="2391"
     inkscape:window-y="-9"
     inkscape:window-maximized="1"
     showguides="false">
    <inkscape:grid
       type="xygrid"
       id="grid1181" />
  </sodipodi:namedview>
  <metadata
     id="metadata5">
    <rdf:RDF>
      <cc:Work
         rdf:about="">
        <dc:format>image/svg+xml</dc:format>
        <dc:type
           rdf:resource="http://purl.org/dc/dcmitype/StillImage" />
        <dc:title></dc:title>
      </cc:Work>
    </rdf:RDF>
  </metadata>
  <g
     inkscape:label="Layer 1"
     inkscape:groupmode="layer"
     id="layer1"
     transform="translate(-1.024292,-89.584717)">
    <rect
       style="fill:#00a400;fill-rule:evenodd;stroke-width:0.26458332"
       id="rect1008"
       width="344.52115"
       height="323.36633"
       x="-454.21698"
       y="-590.39526" />
    <g
       transform="translate(-2086.9117,-126.80253)"
       id="layer1-8"
       inkscape:label="Layer 1">
      <path
         d="m 581.19644,232.7538 a 70.466599,70.466599 0 0 1 -71.71526,68.76328 70.466599,70.466599 0 0 1 -69.19255,-71.30119 70.466599,70.466599 0 0 1 70.88454,-69.61931 70.466599,70.466599 0 0 1 70.04358,70.46532"
         sodipodi:open="true"
         sodipodi:end="0"
         sodipodi:start="0.02401224"
         sodipodi:ry="70.466599"
         sodipodi:rx="70.466599"
         sodipodi:cy="231.0619"
         sodipodi:cx="510.75015"
         sodipodi:type="arc"
         id="path1947"
         style="opacity:1;vector-effect:none;fill:#00cf00;fill-opacity:1;fill-rule:evenodd;stroke-width:0.3208912;stroke-linecap:butt;stroke-linejoin:miter;stroke-miterlimit:4;stroke-dasharray:none;stroke-dashoffset:0;stroke-opacity:1" />
      <g
         style="stroke:#f7f7f7;stroke-opacity:1"
         transform="matrix(0.38632682,0,0,0.38632682,259.67255,96.606883)"
         id="g1013">
        <path
           sodipodi:nodetypes="cc"
           inkscape:connector-curvature="0"
           id="path965"
           d="m -263.15795,174.05096 c -0.24095,40.14088 -32.84952,72.55427 -72.99111,72.55427"
           style="opacity:1;vector-effect:none;fill:none;fill-opacity:1;fill-rule:evenodd;stroke:#f7f7f7;stroke-width:17.15920258;stroke-linecap:butt;stroke-linejoin:miter;stroke-miterlimit:4;stroke-dasharray:none;stroke-dashoffset:0;stroke-opacity:1" />
        <path
           style="fill:#000000;fill-opacity:1;fill-rule:evenodd;stroke:#f7f7f7;stroke-width:5.86384153;stroke-miterlimit:4;stroke-dasharray:none;stroke-opacity:1"
           d="m -340.54106,238.47334 v 19.35717 l -9.67857,-9.67858 z"
           id="rect975"
           inkscape:connector-curvature="0"
           sodipodi:nodetypes="cccc" />
      </g>
      <g
         style="stroke:#f7f7f7;stroke-opacity:1"
         transform="matrix(0.38632682,0,0,0.38632682,238.8859,69.730655)"
         id="g1005">
        <path
           style="opacity:1;vector-effect:none;fill:none;fill-opacity:1;fill-rule:evenodd;stroke:#f7f7f7;stroke-width:17.15920258;stroke-linecap:butt;stroke-linejoin:miter;stroke-miterlimit:4;stroke-dasharray:none;stroke-dashoffset:0;stroke-opacity:1"
           d="m -357.27291,75.180752 c -40.14088,0.240968 -72.55427,32.849518 -72.55427,72.991118"
           id="path963"
           inkscape:connector-curvature="0"
           sodipodi:nodetypes="cc" />
        <path
           sodipodi:nodetypes="cccc"
           inkscape:connector-curvature="0"
           id="path995"
           d="m -353.47211,65.731347 v 19.35717 l 9.67857,-9.67858 z"
           style="fill:#000000;fill-opacity:1;fill-rule:evenodd;stroke:#f7f7f7;stroke-width:5.86384153;stroke-miterlimit:4;stroke-dasharray:none;stroke-opacity:1" />
      </g>
      <g
         style="stroke:#f7f7f7;stroke-opacity:1"
         transform="matrix(0.38632682,0,0,0.38632682,234.84692,93.516864)"
         id="g1017">
        <path
           style="opacity:1;vector-effect:none;fill:none;fill-opacity:1;fill-rule:evenodd;stroke:#f7f7f7;stroke-width:17.15920258;stroke-linecap:butt;stroke-linejoin:miter;stroke-miterlimit:4;stroke-dasharray:none;stroke-dashoffset:0;stroke-opacity:1"
           d="m -428.91167,174.42893 c 0.24097,40.14088 32.84952,72.55428 72.99112,72.55428"
           id="path967"
           inkscape:connector-curvature="0"
           sodipodi:nodetypes="cc" />
        <path
           style="fill:#000000;fill-opacity:1;fill-rule:evenodd;stroke:#f7f7f7;stroke-width:5.86384153;stroke-miterlimit:4;stroke-dasharray:none;stroke-opacity:1"
           d="m -418.62234,170.40888 h -19.35717 l 9.67858,-9.67857 z"
           id="path1001"
           inkscape:connector-curvature="0"
           sodipodi:nodetypes="cccc"
           inkscape:transform-center-x="-91.848214"
           inkscape:transform-center-y="14.970315" />
      </g>
      <path
         d="M 72.832131,126.97342 A 28.625071,28.625071 0 0 1 43.699827,154.90656 28.625071,28.625071 0 0 1 15.592305,125.94247 28.625071,28.625071 0 0 1 44.38715,97.661578 28.625071,28.625071 0 0 1 72.840384,126.28613"
         sodipodi:open="true"
         sodipodi:end="0"
         sodipodi:start="0.02401224"
         sodipodi:ry="28.625071"
         sodipodi:rx="28.625071"
         sodipodi:cy="126.28613"
         sodipodi:cx="44.215313"
         sodipodi:type="arc"
         id="path1205"
         style="opacity:1;vector-effect:none;fill:#ffffff;fill-opacity:1;fill-rule:evenodd;stroke-width:0.10936537;stroke-linecap:butt;stroke-linejoin:miter;stroke-miterlimit:4;stroke-dasharray:none;stroke-dashoffset:0;stroke-opacity:1" />
      <g
         style="fill:#ffffff;fill-opacity:1"
         transform="matrix(0.09244895,0,0,0.09244895,85.149106,68.028896)"
         id="g1943">
        <path
           style="fill:#ffffff;fill-opacity:1;stroke:#535461;stroke-width:2;stroke-miterlimit:10"
           inkscape:connector-curvature="0"
           d="M -10.73,747.34"
           transform="translate(-122.5,-109.75)"
           stroke-miterlimit="10"
           id="path1523" />
        <rect
           style="opacity:1;fill:#ffffff;fill-opacity:1"
           x="559"
           y="84"
           width="36"
           height="46"
           id="rect1591" />
        <rect
           style="opacity:1;fill:#ffffff;fill-opacity:1"
           x="559"
           y="150"
           width="36"
           height="46"
           id="rect1593" />
        <rect
           style="opacity:1;fill:#ffffff;fill-opacity:1"
           x="559"
           y="216"
           width="36"
           height="46"
           id="rect1595" />
        <rect
           style="opacity:1;fill:#ffffff;fill-opacity:1"
           x="559"
           y="282"
           width="36"
           height="46"
           id="rect1597" />
        <rect
           style="opacity:1;fill:#ffffff;fill-opacity:1"
           x="559"
           y="348"
           width="36"
           height="46"
           id="rect1599" />
        <rect
           style="opacity:1;fill:#ffffff;fill-opacity:1"
           x="559"
           y="414"
           width="36"
           height="46"
           id="rect1601" />
        <rect
           style="opacity:1;fill:#ffffff;fill-opacity:1"
           x="672.5"
           y="178"
           width="134"
           height="39"
           id="rect1603" />
        <rect
           style="opacity:1;fill:#ffffff;fill-opacity:0.98500001"
           x="673"
           y="262"
           width="134"
           height="39"
           id="rect1605" />
        <rect
           style="opacity:1;fill:#ffffff;fill-opacity:1"
           x="673.5"
           y="346"
           width="134"
           height="39"
           id="rect1607" />
        <rect
           style="opacity:1;fill:#ffffff;fill-opacity:1"
           x="674"
           y="430"
           width="134"
           height="39"
           id="rect1609" />
        <rect
           style="opacity:1;fill:#ffffff;fill-opacity:1"
           x="910"
           y="272"
           width="45"
           height="58"
           id="rect1613" />
        <rect
           style="opacity:1;fill:#ffffff;fill-opacity:1"
           x="910"
           y="356"
           width="45"
           height="58"
           id="rect1615" />
        <rect
           style="opacity:1;fill:#ffffff;fill-opacity:1"
           x="910"
           y="440"
           width="45"
           height="58"
           id="rect1617" />
        <path
           inkscape:connector-curvature="0"
           id="path1945"
           d="M 954.99996,541.00002 V 249.00001 h -44.99999 v -64 h -38 v 64 H 826.99996 V 150 H 793.99997 V 76.000005 h -27 V 3.2460416e-6 H 710.99995 V 76.000005 h -27 V 150 H 651.99997 V 60.999996 H 633.99996 V 16.000004 h -11.00001 v 44.999992 h -64 c 0,0 0,281.000004 0,284.000024 0,3 0,194.51549 0,194.51549 z"
           style="fill:none;stroke:#fefefe;stroke-width:25.78018951;stroke-linecap:butt;stroke-linejoin:miter;stroke-miterlimit:4;stroke-dasharray:none;stroke-opacity:1" />
      </g>
      <path
         style="opacity:1;vector-effect:none;fill:#00cf00;fill-opacity:1;fill-rule:evenodd;stroke-width:0.26458332;stroke-linecap:butt;stroke-linejoin:miter;stroke-miterlimit:4;stroke-dasharray:none;stroke-dashoffset:0;stroke-opacity:1"
         id="path1177"
         sodipodi:type="arc"
         sodipodi:cx="109.73919"
         sodipodi:cy="129.56409"
         sodipodi:rx="0.54136968"
         sodipodi:ry="3.2482181"
         sodipodi:start="0.02401224"
         sodipodi:end="0"
         sodipodi:open="true"
         d="m 110.2804,129.64208 a 0.54136968,3.2482181 0 0 1 -0.55096,3.1697 0.54136968,3.2482181 0 0 1 -0.53158,-3.28669 0.54136968,3.2482181 0 0 1 0.54458,-3.20916 0.54136968,3.2482181 0 0 1 0.53812,3.24816" />
    </g>
    <path
       style="opacity:1;vector-effect:none;fill:#00b400;fill-opacity:1;fill-rule:evenodd;stroke-width:0.29212669;stroke-linecap:butt;stroke-linejoin:miter;stroke-miterlimit:4;stroke-dasharray:none;stroke-dashoffset:0;stroke-opacity:1"
       id="path1179"
       sodipodi:type="arc"
       sodipodi:cx="104.83768"
       sodipodi:cy="405.09598"
       sodipodi:rx="71.244476"
       sodipodi:ry="71.244476"
       sodipodi:start="0.02401224"
       sodipodi:end="0"
       sodipodi:open="true"
       d="m 176.06161,406.80655 a 71.244476,71.244476 0 0 1 -72.50692,69.52235 71.244476,71.244476 0 0 1 -69.956355,-72.08827 71.244476,71.244476 0 0 1 71.667025,-70.38784 71.244476,71.244476 0 0 1 70.81679,71.24319" />
    <path
       style="fill:#ffffff;stroke-width:0.07807586"
       d="m 19.463602,182.185 c -0.729331,-0.14277 -1.436986,-0.80745 -1.640579,-1.54047 -0.0519,-0.187 -0.07996,-3.16195 -0.08024,-8.53414 l -4.39e-4,-8.24701 9.60163,-7.91468 c 5.280888,-4.3531 9.633062,-7.91468 9.671483,-7.91468 0.03842,0 3.436494,2.77557 7.551265,6.16794 4.114777,3.39243 8.4144,6.93566 9.554715,7.87385 1.140312,0.93822 2.100428,1.75334 2.13358,1.81143 0.0332,0.0581 0.05066,3.84029 0.03906,8.40499 -0.02107,8.23889 -0.02242,8.30195 -0.184831,8.65071 -0.08999,0.19317 -0.329246,0.50339 -0.531735,0.68913 -0.70087,0.64307 -0.130461,0.59648 -7.600248,0.62118 l -6.655975,0.0221 v -6.44372 -6.44375 h -4.294176 -4.294187 v 6.44125 6.44127 l -6.460775,-0.009 c -3.553429,-0.005 -6.617311,-0.0391 -6.808613,-0.077 z M 12.65387,164.42741 c -0.318078,-0.17266 -2.462323,-2.79229 -2.552253,-3.11804 -0.09358,-0.33891 0.0056,-0.74773 0.246723,-1.00908 0.22449,-0.24409 23.947463,-19.98105 24.411388,-20.30969 0.681866,-0.48304 1.174231,-0.61703 2.267435,-0.61703 1.072133,0 1.49568,0.11123 2.194339,0.57664 0.188724,0.12582 2.170097,1.75654 4.403069,3.62416 l 4.059951,3.39559 0.03906,-3.44987 c 0.03577,-3.16103 0.05086,-3.46724 0.180239,-3.65782 0.30634,-0.45121 0.346401,-0.45566 4.086695,-0.45555 3.772294,1.7e-4 3.75736,-9.9e-4 4.120673,0.49356 0.160339,0.21853 0.16187,0.27976 0.182836,7.23776 l 0.02118,7.01738 3.618938,3.00609 c 1.990414,1.65336 3.711257,3.11578 3.824093,3.24991 0.15974,0.18987 0.205166,0.3276 0.205166,0.62222 0,0.43366 -0.0071,0.44463 -1.397978,2.11427 -1.045959,1.25572 -1.223651,1.39914 -1.73357,1.39914 -0.331572,0 -0.428983,-0.0433 -0.827763,-0.36689 -0.248589,-0.20178 -5.523533,-4.59645 -11.722104,-9.76589 l -11.270122,-9.39901 -0.168006,0.15139 c -0.532078,0.47879 -22.77417,18.98844 -23.030631,19.1659 -0.352573,0.24392 -0.815308,0.28183 -1.159316,0.0951 z"
       id="path1006"
       inkscape:connector-curvature="0" />
    <path
       style="fill:#fefefe;fill-opacity:1;stroke-width:0.1196362"
       d="m 78.325448,208.18498 c -1.822349,-0.0396 -3.355159,-0.11372 -3.40626,-0.16487 -0.197278,-0.1973 -0.259695,-12.79892 -0.269226,-54.34609 -0.0097,-42.26359 -0.0055,-43.08434 0.218719,-43.28731 0.125748,-0.11371 0.542957,-0.26266 0.927187,-0.3309 0.461463,-0.082 9.526778,-0.14264 26.706842,-0.17895 l 11.78399,-0.0551 0.58091,0.57215 -0.0909,97.84542 -9.457,0.008 c -13.024696,0.006 -25.17227,-0.0235 -26.994646,-0.0631 z m 13.542256,-12.80637 v -4.30691 h -4.306897 -4.306914 v 4.30691 4.3069 h 4.306914 4.306897 z m 14.475976,0 v -4.30691 h -4.30689 -4.306926 v 4.30691 4.3069 h 4.306926 4.30689 z m -14.475976,-14.476 v -4.30689 h -4.306897 -4.306914 v 4.30689 4.3069 h 4.306914 4.306897 z m 14.475976,0 v -4.30689 h -4.30689 -4.306926 v 4.30689 4.3069 h 4.306926 4.30689 z M 91.867704,166.42664 v -4.3069 h -4.306897 -4.306914 v 4.3069 4.30688 h 4.306914 4.306897 z m 14.475976,0 v -4.3069 h -4.30689 -4.306926 v 4.3069 4.30688 h 4.306926 4.30689 z M 91.867704,151.95065 v -4.3069 h -4.306897 -4.306914 v 4.3069 4.3069 h 4.306914 4.306897 z m 14.475976,0 v -4.3069 h -4.30689 -4.306926 v 4.3069 4.3069 h 4.306926 4.30689 z M 91.867704,137.47466 v -4.3069 h -4.306897 -4.306914 v 4.3069 4.3069 h 4.306914 4.306897 z m 14.475976,0 v -4.3069 h -4.30689 -4.306926 v 4.3069 4.3069 h 4.306926 4.30689 z m -14.504357,-14.5059 0.0314,-4.27699 h -4.308441 -4.308408 v 4.30842 4.30842 l 4.276992,-0.0315 4.276994,-0.0314 z m 14.504357,0.0299 v -4.30691 h -4.30689 -4.306926 v 4.30691 4.30689 h 4.306926 4.30689 z"
       id="path1062"
       inkscape:connector-curvature="0"
       sodipodi:nodetypes="cssccscccccccccccccccccccccccccccccccccccccccccccccccccccccccccccccccccccccccccccccccccccccccccccccccccccccccccccccccccc" />
  </g>
</svg>
